%TF.GenerationSoftware,KiCad,Pcbnew,9.0.8-9.0.8~ubuntu24.04.1*%
%TF.CreationDate,2026-05-06T20:02:44+02:00*%
%TF.ProjectId,viva,76697661-2e6b-4696-9361-645f70636258,rev?*%
%TF.SameCoordinates,Original*%
%TF.FileFunction,Legend,Top*%
%TF.FilePolarity,Positive*%
%FSLAX46Y46*%
G04 Gerber Fmt 4.6, Leading zero omitted, Abs format (unit mm)*
G04 Created by KiCad (PCBNEW 9.0.8-9.0.8~ubuntu24.04.1) date 2026-05-06 20:02:44*
%MOMM*%
%LPD*%
G01*
G04 APERTURE LIST*
%ADD10C,0.150000*%
%ADD11C,0.100000*%
%ADD12C,0.120000*%
G04 APERTURE END LIST*
D10*
X165333333Y-68954819D02*
X165000000Y-68478628D01*
X164761905Y-68954819D02*
X164761905Y-67954819D01*
X164761905Y-67954819D02*
X165142857Y-67954819D01*
X165142857Y-67954819D02*
X165238095Y-68002438D01*
X165238095Y-68002438D02*
X165285714Y-68050057D01*
X165285714Y-68050057D02*
X165333333Y-68145295D01*
X165333333Y-68145295D02*
X165333333Y-68288152D01*
X165333333Y-68288152D02*
X165285714Y-68383390D01*
X165285714Y-68383390D02*
X165238095Y-68431009D01*
X165238095Y-68431009D02*
X165142857Y-68478628D01*
X165142857Y-68478628D02*
X164761905Y-68478628D01*
X166190476Y-67954819D02*
X166000000Y-67954819D01*
X166000000Y-67954819D02*
X165904762Y-68002438D01*
X165904762Y-68002438D02*
X165857143Y-68050057D01*
X165857143Y-68050057D02*
X165761905Y-68192914D01*
X165761905Y-68192914D02*
X165714286Y-68383390D01*
X165714286Y-68383390D02*
X165714286Y-68764342D01*
X165714286Y-68764342D02*
X165761905Y-68859580D01*
X165761905Y-68859580D02*
X165809524Y-68907200D01*
X165809524Y-68907200D02*
X165904762Y-68954819D01*
X165904762Y-68954819D02*
X166095238Y-68954819D01*
X166095238Y-68954819D02*
X166190476Y-68907200D01*
X166190476Y-68907200D02*
X166238095Y-68859580D01*
X166238095Y-68859580D02*
X166285714Y-68764342D01*
X166285714Y-68764342D02*
X166285714Y-68526247D01*
X166285714Y-68526247D02*
X166238095Y-68431009D01*
X166238095Y-68431009D02*
X166190476Y-68383390D01*
X166190476Y-68383390D02*
X166095238Y-68335771D01*
X166095238Y-68335771D02*
X165904762Y-68335771D01*
X165904762Y-68335771D02*
X165809524Y-68383390D01*
X165809524Y-68383390D02*
X165761905Y-68431009D01*
X165761905Y-68431009D02*
X165714286Y-68526247D01*
X165333333Y-72454819D02*
X165000000Y-71978628D01*
X164761905Y-72454819D02*
X164761905Y-71454819D01*
X164761905Y-71454819D02*
X165142857Y-71454819D01*
X165142857Y-71454819D02*
X165238095Y-71502438D01*
X165238095Y-71502438D02*
X165285714Y-71550057D01*
X165285714Y-71550057D02*
X165333333Y-71645295D01*
X165333333Y-71645295D02*
X165333333Y-71788152D01*
X165333333Y-71788152D02*
X165285714Y-71883390D01*
X165285714Y-71883390D02*
X165238095Y-71931009D01*
X165238095Y-71931009D02*
X165142857Y-71978628D01*
X165142857Y-71978628D02*
X164761905Y-71978628D01*
X166238095Y-71454819D02*
X165761905Y-71454819D01*
X165761905Y-71454819D02*
X165714286Y-71931009D01*
X165714286Y-71931009D02*
X165761905Y-71883390D01*
X165761905Y-71883390D02*
X165857143Y-71835771D01*
X165857143Y-71835771D02*
X166095238Y-71835771D01*
X166095238Y-71835771D02*
X166190476Y-71883390D01*
X166190476Y-71883390D02*
X166238095Y-71931009D01*
X166238095Y-71931009D02*
X166285714Y-72026247D01*
X166285714Y-72026247D02*
X166285714Y-72264342D01*
X166285714Y-72264342D02*
X166238095Y-72359580D01*
X166238095Y-72359580D02*
X166190476Y-72407200D01*
X166190476Y-72407200D02*
X166095238Y-72454819D01*
X166095238Y-72454819D02*
X165857143Y-72454819D01*
X165857143Y-72454819D02*
X165761905Y-72407200D01*
X165761905Y-72407200D02*
X165714286Y-72359580D01*
X165333333Y-75954819D02*
X165000000Y-75478628D01*
X164761905Y-75954819D02*
X164761905Y-74954819D01*
X164761905Y-74954819D02*
X165142857Y-74954819D01*
X165142857Y-74954819D02*
X165238095Y-75002438D01*
X165238095Y-75002438D02*
X165285714Y-75050057D01*
X165285714Y-75050057D02*
X165333333Y-75145295D01*
X165333333Y-75145295D02*
X165333333Y-75288152D01*
X165333333Y-75288152D02*
X165285714Y-75383390D01*
X165285714Y-75383390D02*
X165238095Y-75431009D01*
X165238095Y-75431009D02*
X165142857Y-75478628D01*
X165142857Y-75478628D02*
X164761905Y-75478628D01*
X165714286Y-75050057D02*
X165761905Y-75002438D01*
X165761905Y-75002438D02*
X165857143Y-74954819D01*
X165857143Y-74954819D02*
X166095238Y-74954819D01*
X166095238Y-74954819D02*
X166190476Y-75002438D01*
X166190476Y-75002438D02*
X166238095Y-75050057D01*
X166238095Y-75050057D02*
X166285714Y-75145295D01*
X166285714Y-75145295D02*
X166285714Y-75240533D01*
X166285714Y-75240533D02*
X166238095Y-75383390D01*
X166238095Y-75383390D02*
X165666667Y-75954819D01*
X165666667Y-75954819D02*
X166285714Y-75954819D01*
X165333333Y-79454819D02*
X165000000Y-78978628D01*
X164761905Y-79454819D02*
X164761905Y-78454819D01*
X164761905Y-78454819D02*
X165142857Y-78454819D01*
X165142857Y-78454819D02*
X165238095Y-78502438D01*
X165238095Y-78502438D02*
X165285714Y-78550057D01*
X165285714Y-78550057D02*
X165333333Y-78645295D01*
X165333333Y-78645295D02*
X165333333Y-78788152D01*
X165333333Y-78788152D02*
X165285714Y-78883390D01*
X165285714Y-78883390D02*
X165238095Y-78931009D01*
X165238095Y-78931009D02*
X165142857Y-78978628D01*
X165142857Y-78978628D02*
X164761905Y-78978628D01*
X166285714Y-79454819D02*
X165714286Y-79454819D01*
X166000000Y-79454819D02*
X166000000Y-78454819D01*
X166000000Y-78454819D02*
X165904762Y-78597676D01*
X165904762Y-78597676D02*
X165809524Y-78692914D01*
X165809524Y-78692914D02*
X165714286Y-78740533D01*
X125454819Y-47642857D02*
X124978628Y-47976190D01*
X125454819Y-48214285D02*
X124454819Y-48214285D01*
X124454819Y-48214285D02*
X124454819Y-47833333D01*
X124454819Y-47833333D02*
X124502438Y-47738095D01*
X124502438Y-47738095D02*
X124550057Y-47690476D01*
X124550057Y-47690476D02*
X124645295Y-47642857D01*
X124645295Y-47642857D02*
X124788152Y-47642857D01*
X124788152Y-47642857D02*
X124883390Y-47690476D01*
X124883390Y-47690476D02*
X124931009Y-47738095D01*
X124931009Y-47738095D02*
X124978628Y-47833333D01*
X124978628Y-47833333D02*
X124978628Y-48214285D01*
X125454819Y-46690476D02*
X125454819Y-47261904D01*
X125454819Y-46976190D02*
X124454819Y-46976190D01*
X124454819Y-46976190D02*
X124597676Y-47071428D01*
X124597676Y-47071428D02*
X124692914Y-47166666D01*
X124692914Y-47166666D02*
X124740533Y-47261904D01*
X124788152Y-45833333D02*
X125454819Y-45833333D01*
X124407200Y-46071428D02*
X125121485Y-46309523D01*
X125121485Y-46309523D02*
X125121485Y-45690476D01*
X129777142Y-81954819D02*
X129443809Y-81478628D01*
X129205714Y-81954819D02*
X129205714Y-80954819D01*
X129205714Y-80954819D02*
X129586666Y-80954819D01*
X129586666Y-80954819D02*
X129681904Y-81002438D01*
X129681904Y-81002438D02*
X129729523Y-81050057D01*
X129729523Y-81050057D02*
X129777142Y-81145295D01*
X129777142Y-81145295D02*
X129777142Y-81288152D01*
X129777142Y-81288152D02*
X129729523Y-81383390D01*
X129729523Y-81383390D02*
X129681904Y-81431009D01*
X129681904Y-81431009D02*
X129586666Y-81478628D01*
X129586666Y-81478628D02*
X129205714Y-81478628D01*
X130729523Y-81954819D02*
X130158095Y-81954819D01*
X130443809Y-81954819D02*
X130443809Y-80954819D01*
X130443809Y-80954819D02*
X130348571Y-81097676D01*
X130348571Y-81097676D02*
X130253333Y-81192914D01*
X130253333Y-81192914D02*
X130158095Y-81240533D01*
X131062857Y-80954819D02*
X131681904Y-80954819D01*
X131681904Y-80954819D02*
X131348571Y-81335771D01*
X131348571Y-81335771D02*
X131491428Y-81335771D01*
X131491428Y-81335771D02*
X131586666Y-81383390D01*
X131586666Y-81383390D02*
X131634285Y-81431009D01*
X131634285Y-81431009D02*
X131681904Y-81526247D01*
X131681904Y-81526247D02*
X131681904Y-81764342D01*
X131681904Y-81764342D02*
X131634285Y-81859580D01*
X131634285Y-81859580D02*
X131586666Y-81907200D01*
X131586666Y-81907200D02*
X131491428Y-81954819D01*
X131491428Y-81954819D02*
X131205714Y-81954819D01*
X131205714Y-81954819D02*
X131110476Y-81907200D01*
X131110476Y-81907200D02*
X131062857Y-81859580D01*
D11*
X129166667Y-76909800D02*
X129309524Y-76957419D01*
X129309524Y-76957419D02*
X129547619Y-76957419D01*
X129547619Y-76957419D02*
X129642857Y-76909800D01*
X129642857Y-76909800D02*
X129690476Y-76862180D01*
X129690476Y-76862180D02*
X129738095Y-76766942D01*
X129738095Y-76766942D02*
X129738095Y-76671704D01*
X129738095Y-76671704D02*
X129690476Y-76576466D01*
X129690476Y-76576466D02*
X129642857Y-76528847D01*
X129642857Y-76528847D02*
X129547619Y-76481228D01*
X129547619Y-76481228D02*
X129357143Y-76433609D01*
X129357143Y-76433609D02*
X129261905Y-76385990D01*
X129261905Y-76385990D02*
X129214286Y-76338371D01*
X129214286Y-76338371D02*
X129166667Y-76243133D01*
X129166667Y-76243133D02*
X129166667Y-76147895D01*
X129166667Y-76147895D02*
X129214286Y-76052657D01*
X129214286Y-76052657D02*
X129261905Y-76005038D01*
X129261905Y-76005038D02*
X129357143Y-75957419D01*
X129357143Y-75957419D02*
X129595238Y-75957419D01*
X129595238Y-75957419D02*
X129738095Y-76005038D01*
X130071429Y-75957419D02*
X130309524Y-76957419D01*
X130309524Y-76957419D02*
X130500000Y-76243133D01*
X130500000Y-76243133D02*
X130690476Y-76957419D01*
X130690476Y-76957419D02*
X130928572Y-75957419D01*
X131261905Y-76052657D02*
X131309524Y-76005038D01*
X131309524Y-76005038D02*
X131404762Y-75957419D01*
X131404762Y-75957419D02*
X131642857Y-75957419D01*
X131642857Y-75957419D02*
X131738095Y-76005038D01*
X131738095Y-76005038D02*
X131785714Y-76052657D01*
X131785714Y-76052657D02*
X131833333Y-76147895D01*
X131833333Y-76147895D02*
X131833333Y-76243133D01*
X131833333Y-76243133D02*
X131785714Y-76385990D01*
X131785714Y-76385990D02*
X131214286Y-76957419D01*
X131214286Y-76957419D02*
X131833333Y-76957419D01*
X129166667Y-67409800D02*
X129309524Y-67457419D01*
X129309524Y-67457419D02*
X129547619Y-67457419D01*
X129547619Y-67457419D02*
X129642857Y-67409800D01*
X129642857Y-67409800D02*
X129690476Y-67362180D01*
X129690476Y-67362180D02*
X129738095Y-67266942D01*
X129738095Y-67266942D02*
X129738095Y-67171704D01*
X129738095Y-67171704D02*
X129690476Y-67076466D01*
X129690476Y-67076466D02*
X129642857Y-67028847D01*
X129642857Y-67028847D02*
X129547619Y-66981228D01*
X129547619Y-66981228D02*
X129357143Y-66933609D01*
X129357143Y-66933609D02*
X129261905Y-66885990D01*
X129261905Y-66885990D02*
X129214286Y-66838371D01*
X129214286Y-66838371D02*
X129166667Y-66743133D01*
X129166667Y-66743133D02*
X129166667Y-66647895D01*
X129166667Y-66647895D02*
X129214286Y-66552657D01*
X129214286Y-66552657D02*
X129261905Y-66505038D01*
X129261905Y-66505038D02*
X129357143Y-66457419D01*
X129357143Y-66457419D02*
X129595238Y-66457419D01*
X129595238Y-66457419D02*
X129738095Y-66505038D01*
X130071429Y-66457419D02*
X130309524Y-67457419D01*
X130309524Y-67457419D02*
X130500000Y-66743133D01*
X130500000Y-66743133D02*
X130690476Y-67457419D01*
X130690476Y-67457419D02*
X130928572Y-66457419D01*
X131214286Y-66457419D02*
X131833333Y-66457419D01*
X131833333Y-66457419D02*
X131500000Y-66838371D01*
X131500000Y-66838371D02*
X131642857Y-66838371D01*
X131642857Y-66838371D02*
X131738095Y-66885990D01*
X131738095Y-66885990D02*
X131785714Y-66933609D01*
X131785714Y-66933609D02*
X131833333Y-67028847D01*
X131833333Y-67028847D02*
X131833333Y-67266942D01*
X131833333Y-67266942D02*
X131785714Y-67362180D01*
X131785714Y-67362180D02*
X131738095Y-67409800D01*
X131738095Y-67409800D02*
X131642857Y-67457419D01*
X131642857Y-67457419D02*
X131357143Y-67457419D01*
X131357143Y-67457419D02*
X131261905Y-67409800D01*
X131261905Y-67409800D02*
X131214286Y-67362180D01*
D10*
X164454819Y-99383094D02*
X163454819Y-99383094D01*
X163454819Y-99383094D02*
X163454819Y-99144999D01*
X163454819Y-99144999D02*
X163502438Y-99002142D01*
X163502438Y-99002142D02*
X163597676Y-98906904D01*
X163597676Y-98906904D02*
X163692914Y-98859285D01*
X163692914Y-98859285D02*
X163883390Y-98811666D01*
X163883390Y-98811666D02*
X164026247Y-98811666D01*
X164026247Y-98811666D02*
X164216723Y-98859285D01*
X164216723Y-98859285D02*
X164311961Y-98906904D01*
X164311961Y-98906904D02*
X164407200Y-99002142D01*
X164407200Y-99002142D02*
X164454819Y-99144999D01*
X164454819Y-99144999D02*
X164454819Y-99383094D01*
X164454819Y-97859285D02*
X164454819Y-98430713D01*
X164454819Y-98144999D02*
X163454819Y-98144999D01*
X163454819Y-98144999D02*
X163597676Y-98240237D01*
X163597676Y-98240237D02*
X163692914Y-98335475D01*
X163692914Y-98335475D02*
X163740533Y-98430713D01*
X162704819Y-96721904D02*
X161704819Y-96721904D01*
X162704819Y-96150476D02*
X162133390Y-96579047D01*
X161704819Y-96150476D02*
X162276247Y-96721904D01*
X124738095Y-99454819D02*
X124738095Y-98454819D01*
X124738095Y-98931009D02*
X125309523Y-98931009D01*
X125309523Y-99454819D02*
X125309523Y-98454819D01*
X126214285Y-98788152D02*
X126214285Y-99454819D01*
X125976190Y-98407200D02*
X125738095Y-99121485D01*
X125738095Y-99121485D02*
X126357142Y-99121485D01*
X129954819Y-47246666D02*
X129478628Y-47579999D01*
X129954819Y-47818094D02*
X128954819Y-47818094D01*
X128954819Y-47818094D02*
X128954819Y-47437142D01*
X128954819Y-47437142D02*
X129002438Y-47341904D01*
X129002438Y-47341904D02*
X129050057Y-47294285D01*
X129050057Y-47294285D02*
X129145295Y-47246666D01*
X129145295Y-47246666D02*
X129288152Y-47246666D01*
X129288152Y-47246666D02*
X129383390Y-47294285D01*
X129383390Y-47294285D02*
X129431009Y-47341904D01*
X129431009Y-47341904D02*
X129478628Y-47437142D01*
X129478628Y-47437142D02*
X129478628Y-47818094D01*
X129288152Y-46389523D02*
X129954819Y-46389523D01*
X128907200Y-46627618D02*
X129621485Y-46865713D01*
X129621485Y-46865713D02*
X129621485Y-46246666D01*
X164609580Y-45916666D02*
X164657200Y-45964285D01*
X164657200Y-45964285D02*
X164704819Y-46107142D01*
X164704819Y-46107142D02*
X164704819Y-46202380D01*
X164704819Y-46202380D02*
X164657200Y-46345237D01*
X164657200Y-46345237D02*
X164561961Y-46440475D01*
X164561961Y-46440475D02*
X164466723Y-46488094D01*
X164466723Y-46488094D02*
X164276247Y-46535713D01*
X164276247Y-46535713D02*
X164133390Y-46535713D01*
X164133390Y-46535713D02*
X163942914Y-46488094D01*
X163942914Y-46488094D02*
X163847676Y-46440475D01*
X163847676Y-46440475D02*
X163752438Y-46345237D01*
X163752438Y-46345237D02*
X163704819Y-46202380D01*
X163704819Y-46202380D02*
X163704819Y-46107142D01*
X163704819Y-46107142D02*
X163752438Y-45964285D01*
X163752438Y-45964285D02*
X163800057Y-45916666D01*
X163704819Y-45059523D02*
X163704819Y-45249999D01*
X163704819Y-45249999D02*
X163752438Y-45345237D01*
X163752438Y-45345237D02*
X163800057Y-45392856D01*
X163800057Y-45392856D02*
X163942914Y-45488094D01*
X163942914Y-45488094D02*
X164133390Y-45535713D01*
X164133390Y-45535713D02*
X164514342Y-45535713D01*
X164514342Y-45535713D02*
X164609580Y-45488094D01*
X164609580Y-45488094D02*
X164657200Y-45440475D01*
X164657200Y-45440475D02*
X164704819Y-45345237D01*
X164704819Y-45345237D02*
X164704819Y-45154761D01*
X164704819Y-45154761D02*
X164657200Y-45059523D01*
X164657200Y-45059523D02*
X164609580Y-45011904D01*
X164609580Y-45011904D02*
X164514342Y-44964285D01*
X164514342Y-44964285D02*
X164276247Y-44964285D01*
X164276247Y-44964285D02*
X164181009Y-45011904D01*
X164181009Y-45011904D02*
X164133390Y-45059523D01*
X164133390Y-45059523D02*
X164085771Y-45154761D01*
X164085771Y-45154761D02*
X164085771Y-45345237D01*
X164085771Y-45345237D02*
X164133390Y-45440475D01*
X164133390Y-45440475D02*
X164181009Y-45488094D01*
X164181009Y-45488094D02*
X164276247Y-45535713D01*
X134454819Y-47166666D02*
X133978628Y-47499999D01*
X134454819Y-47738094D02*
X133454819Y-47738094D01*
X133454819Y-47738094D02*
X133454819Y-47357142D01*
X133454819Y-47357142D02*
X133502438Y-47261904D01*
X133502438Y-47261904D02*
X133550057Y-47214285D01*
X133550057Y-47214285D02*
X133645295Y-47166666D01*
X133645295Y-47166666D02*
X133788152Y-47166666D01*
X133788152Y-47166666D02*
X133883390Y-47214285D01*
X133883390Y-47214285D02*
X133931009Y-47261904D01*
X133931009Y-47261904D02*
X133978628Y-47357142D01*
X133978628Y-47357142D02*
X133978628Y-47738094D01*
X133454819Y-46833332D02*
X133454819Y-46214285D01*
X133454819Y-46214285D02*
X133835771Y-46547618D01*
X133835771Y-46547618D02*
X133835771Y-46404761D01*
X133835771Y-46404761D02*
X133883390Y-46309523D01*
X133883390Y-46309523D02*
X133931009Y-46261904D01*
X133931009Y-46261904D02*
X134026247Y-46214285D01*
X134026247Y-46214285D02*
X134264342Y-46214285D01*
X134264342Y-46214285D02*
X134359580Y-46261904D01*
X134359580Y-46261904D02*
X134407200Y-46309523D01*
X134407200Y-46309523D02*
X134454819Y-46404761D01*
X134454819Y-46404761D02*
X134454819Y-46690475D01*
X134454819Y-46690475D02*
X134407200Y-46785713D01*
X134407200Y-46785713D02*
X134359580Y-46833332D01*
X160359580Y-97126666D02*
X160407200Y-97174285D01*
X160407200Y-97174285D02*
X160454819Y-97317142D01*
X160454819Y-97317142D02*
X160454819Y-97412380D01*
X160454819Y-97412380D02*
X160407200Y-97555237D01*
X160407200Y-97555237D02*
X160311961Y-97650475D01*
X160311961Y-97650475D02*
X160216723Y-97698094D01*
X160216723Y-97698094D02*
X160026247Y-97745713D01*
X160026247Y-97745713D02*
X159883390Y-97745713D01*
X159883390Y-97745713D02*
X159692914Y-97698094D01*
X159692914Y-97698094D02*
X159597676Y-97650475D01*
X159597676Y-97650475D02*
X159502438Y-97555237D01*
X159502438Y-97555237D02*
X159454819Y-97412380D01*
X159454819Y-97412380D02*
X159454819Y-97317142D01*
X159454819Y-97317142D02*
X159502438Y-97174285D01*
X159502438Y-97174285D02*
X159550057Y-97126666D01*
X160454819Y-96174285D02*
X160454819Y-96745713D01*
X160454819Y-96459999D02*
X159454819Y-96459999D01*
X159454819Y-96459999D02*
X159597676Y-96555237D01*
X159597676Y-96555237D02*
X159692914Y-96650475D01*
X159692914Y-96650475D02*
X159740533Y-96745713D01*
X132333333Y-97359580D02*
X132285714Y-97407200D01*
X132285714Y-97407200D02*
X132142857Y-97454819D01*
X132142857Y-97454819D02*
X132047619Y-97454819D01*
X132047619Y-97454819D02*
X131904762Y-97407200D01*
X131904762Y-97407200D02*
X131809524Y-97311961D01*
X131809524Y-97311961D02*
X131761905Y-97216723D01*
X131761905Y-97216723D02*
X131714286Y-97026247D01*
X131714286Y-97026247D02*
X131714286Y-96883390D01*
X131714286Y-96883390D02*
X131761905Y-96692914D01*
X131761905Y-96692914D02*
X131809524Y-96597676D01*
X131809524Y-96597676D02*
X131904762Y-96502438D01*
X131904762Y-96502438D02*
X132047619Y-96454819D01*
X132047619Y-96454819D02*
X132142857Y-96454819D01*
X132142857Y-96454819D02*
X132285714Y-96502438D01*
X132285714Y-96502438D02*
X132333333Y-96550057D01*
X133238095Y-96454819D02*
X132761905Y-96454819D01*
X132761905Y-96454819D02*
X132714286Y-96931009D01*
X132714286Y-96931009D02*
X132761905Y-96883390D01*
X132761905Y-96883390D02*
X132857143Y-96835771D01*
X132857143Y-96835771D02*
X133095238Y-96835771D01*
X133095238Y-96835771D02*
X133190476Y-96883390D01*
X133190476Y-96883390D02*
X133238095Y-96931009D01*
X133238095Y-96931009D02*
X133285714Y-97026247D01*
X133285714Y-97026247D02*
X133285714Y-97264342D01*
X133285714Y-97264342D02*
X133238095Y-97359580D01*
X133238095Y-97359580D02*
X133190476Y-97407200D01*
X133190476Y-97407200D02*
X133095238Y-97454819D01*
X133095238Y-97454819D02*
X132857143Y-97454819D01*
X132857143Y-97454819D02*
X132761905Y-97407200D01*
X132761905Y-97407200D02*
X132714286Y-97359580D01*
X140504819Y-99383094D02*
X139504819Y-99383094D01*
X139504819Y-99383094D02*
X139504819Y-99144999D01*
X139504819Y-99144999D02*
X139552438Y-99002142D01*
X139552438Y-99002142D02*
X139647676Y-98906904D01*
X139647676Y-98906904D02*
X139742914Y-98859285D01*
X139742914Y-98859285D02*
X139933390Y-98811666D01*
X139933390Y-98811666D02*
X140076247Y-98811666D01*
X140076247Y-98811666D02*
X140266723Y-98859285D01*
X140266723Y-98859285D02*
X140361961Y-98906904D01*
X140361961Y-98906904D02*
X140457200Y-99002142D01*
X140457200Y-99002142D02*
X140504819Y-99144999D01*
X140504819Y-99144999D02*
X140504819Y-99383094D01*
X139838152Y-97954523D02*
X140504819Y-97954523D01*
X139457200Y-98192618D02*
X140171485Y-98430713D01*
X140171485Y-98430713D02*
X140171485Y-97811666D01*
X138754819Y-96721904D02*
X137754819Y-96721904D01*
X138754819Y-96150476D02*
X138183390Y-96579047D01*
X137754819Y-96150476D02*
X138326247Y-96721904D01*
X170738095Y-98154819D02*
X170738095Y-97154819D01*
X170738095Y-97631009D02*
X171309523Y-97631009D01*
X171309523Y-98154819D02*
X171309523Y-97154819D01*
X171690476Y-97154819D02*
X172309523Y-97154819D01*
X172309523Y-97154819D02*
X171976190Y-97535771D01*
X171976190Y-97535771D02*
X172119047Y-97535771D01*
X172119047Y-97535771D02*
X172214285Y-97583390D01*
X172214285Y-97583390D02*
X172261904Y-97631009D01*
X172261904Y-97631009D02*
X172309523Y-97726247D01*
X172309523Y-97726247D02*
X172309523Y-97964342D01*
X172309523Y-97964342D02*
X172261904Y-98059580D01*
X172261904Y-98059580D02*
X172214285Y-98107200D01*
X172214285Y-98107200D02*
X172119047Y-98154819D01*
X172119047Y-98154819D02*
X171833333Y-98154819D01*
X171833333Y-98154819D02*
X171738095Y-98107200D01*
X171738095Y-98107200D02*
X171690476Y-98059580D01*
X159550057Y-84595238D02*
X159502438Y-84690476D01*
X159502438Y-84690476D02*
X159407200Y-84785714D01*
X159407200Y-84785714D02*
X159264342Y-84928571D01*
X159264342Y-84928571D02*
X159216723Y-85023809D01*
X159216723Y-85023809D02*
X159216723Y-85119047D01*
X159454819Y-85071428D02*
X159407200Y-85166666D01*
X159407200Y-85166666D02*
X159311961Y-85261904D01*
X159311961Y-85261904D02*
X159121485Y-85309523D01*
X159121485Y-85309523D02*
X158788152Y-85309523D01*
X158788152Y-85309523D02*
X158597676Y-85261904D01*
X158597676Y-85261904D02*
X158502438Y-85166666D01*
X158502438Y-85166666D02*
X158454819Y-85071428D01*
X158454819Y-85071428D02*
X158454819Y-84880952D01*
X158454819Y-84880952D02*
X158502438Y-84785714D01*
X158502438Y-84785714D02*
X158597676Y-84690476D01*
X158597676Y-84690476D02*
X158788152Y-84642857D01*
X158788152Y-84642857D02*
X159121485Y-84642857D01*
X159121485Y-84642857D02*
X159311961Y-84690476D01*
X159311961Y-84690476D02*
X159407200Y-84785714D01*
X159407200Y-84785714D02*
X159454819Y-84880952D01*
X159454819Y-84880952D02*
X159454819Y-85071428D01*
X159454819Y-83690476D02*
X159454819Y-84261904D01*
X159454819Y-83976190D02*
X158454819Y-83976190D01*
X158454819Y-83976190D02*
X158597676Y-84071428D01*
X158597676Y-84071428D02*
X158692914Y-84166666D01*
X158692914Y-84166666D02*
X158740533Y-84261904D01*
X135550057Y-84595238D02*
X135502438Y-84690476D01*
X135502438Y-84690476D02*
X135407200Y-84785714D01*
X135407200Y-84785714D02*
X135264342Y-84928571D01*
X135264342Y-84928571D02*
X135216723Y-85023809D01*
X135216723Y-85023809D02*
X135216723Y-85119047D01*
X135454819Y-85071428D02*
X135407200Y-85166666D01*
X135407200Y-85166666D02*
X135311961Y-85261904D01*
X135311961Y-85261904D02*
X135121485Y-85309523D01*
X135121485Y-85309523D02*
X134788152Y-85309523D01*
X134788152Y-85309523D02*
X134597676Y-85261904D01*
X134597676Y-85261904D02*
X134502438Y-85166666D01*
X134502438Y-85166666D02*
X134454819Y-85071428D01*
X134454819Y-85071428D02*
X134454819Y-84880952D01*
X134454819Y-84880952D02*
X134502438Y-84785714D01*
X134502438Y-84785714D02*
X134597676Y-84690476D01*
X134597676Y-84690476D02*
X134788152Y-84642857D01*
X134788152Y-84642857D02*
X135121485Y-84642857D01*
X135121485Y-84642857D02*
X135311961Y-84690476D01*
X135311961Y-84690476D02*
X135407200Y-84785714D01*
X135407200Y-84785714D02*
X135454819Y-84880952D01*
X135454819Y-84880952D02*
X135454819Y-85071428D01*
X134788152Y-83785714D02*
X135454819Y-83785714D01*
X134407200Y-84023809D02*
X135121485Y-84261904D01*
X135121485Y-84261904D02*
X135121485Y-83642857D01*
X156504819Y-99383094D02*
X155504819Y-99383094D01*
X155504819Y-99383094D02*
X155504819Y-99144999D01*
X155504819Y-99144999D02*
X155552438Y-99002142D01*
X155552438Y-99002142D02*
X155647676Y-98906904D01*
X155647676Y-98906904D02*
X155742914Y-98859285D01*
X155742914Y-98859285D02*
X155933390Y-98811666D01*
X155933390Y-98811666D02*
X156076247Y-98811666D01*
X156076247Y-98811666D02*
X156266723Y-98859285D01*
X156266723Y-98859285D02*
X156361961Y-98906904D01*
X156361961Y-98906904D02*
X156457200Y-99002142D01*
X156457200Y-99002142D02*
X156504819Y-99144999D01*
X156504819Y-99144999D02*
X156504819Y-99383094D01*
X155600057Y-98430713D02*
X155552438Y-98383094D01*
X155552438Y-98383094D02*
X155504819Y-98287856D01*
X155504819Y-98287856D02*
X155504819Y-98049761D01*
X155504819Y-98049761D02*
X155552438Y-97954523D01*
X155552438Y-97954523D02*
X155600057Y-97906904D01*
X155600057Y-97906904D02*
X155695295Y-97859285D01*
X155695295Y-97859285D02*
X155790533Y-97859285D01*
X155790533Y-97859285D02*
X155933390Y-97906904D01*
X155933390Y-97906904D02*
X156504819Y-98478332D01*
X156504819Y-98478332D02*
X156504819Y-97859285D01*
X154754819Y-96721904D02*
X153754819Y-96721904D01*
X154754819Y-96150476D02*
X154183390Y-96579047D01*
X153754819Y-96150476D02*
X154326247Y-96721904D01*
X128799819Y-56333333D02*
X129514104Y-56333333D01*
X129514104Y-56333333D02*
X129656961Y-56380952D01*
X129656961Y-56380952D02*
X129752200Y-56476190D01*
X129752200Y-56476190D02*
X129799819Y-56619047D01*
X129799819Y-56619047D02*
X129799819Y-56714285D01*
X128895057Y-55904761D02*
X128847438Y-55857142D01*
X128847438Y-55857142D02*
X128799819Y-55761904D01*
X128799819Y-55761904D02*
X128799819Y-55523809D01*
X128799819Y-55523809D02*
X128847438Y-55428571D01*
X128847438Y-55428571D02*
X128895057Y-55380952D01*
X128895057Y-55380952D02*
X128990295Y-55333333D01*
X128990295Y-55333333D02*
X129085533Y-55333333D01*
X129085533Y-55333333D02*
X129228390Y-55380952D01*
X129228390Y-55380952D02*
X129799819Y-55952380D01*
X129799819Y-55952380D02*
X129799819Y-55333333D01*
X143550057Y-84555238D02*
X143502438Y-84650476D01*
X143502438Y-84650476D02*
X143407200Y-84745714D01*
X143407200Y-84745714D02*
X143264342Y-84888571D01*
X143264342Y-84888571D02*
X143216723Y-84983809D01*
X143216723Y-84983809D02*
X143216723Y-85079047D01*
X143454819Y-85031428D02*
X143407200Y-85126666D01*
X143407200Y-85126666D02*
X143311961Y-85221904D01*
X143311961Y-85221904D02*
X143121485Y-85269523D01*
X143121485Y-85269523D02*
X142788152Y-85269523D01*
X142788152Y-85269523D02*
X142597676Y-85221904D01*
X142597676Y-85221904D02*
X142502438Y-85126666D01*
X142502438Y-85126666D02*
X142454819Y-85031428D01*
X142454819Y-85031428D02*
X142454819Y-84840952D01*
X142454819Y-84840952D02*
X142502438Y-84745714D01*
X142502438Y-84745714D02*
X142597676Y-84650476D01*
X142597676Y-84650476D02*
X142788152Y-84602857D01*
X142788152Y-84602857D02*
X143121485Y-84602857D01*
X143121485Y-84602857D02*
X143311961Y-84650476D01*
X143311961Y-84650476D02*
X143407200Y-84745714D01*
X143407200Y-84745714D02*
X143454819Y-84840952D01*
X143454819Y-84840952D02*
X143454819Y-85031428D01*
X142454819Y-84269523D02*
X142454819Y-83650476D01*
X142454819Y-83650476D02*
X142835771Y-83983809D01*
X142835771Y-83983809D02*
X142835771Y-83840952D01*
X142835771Y-83840952D02*
X142883390Y-83745714D01*
X142883390Y-83745714D02*
X142931009Y-83698095D01*
X142931009Y-83698095D02*
X143026247Y-83650476D01*
X143026247Y-83650476D02*
X143264342Y-83650476D01*
X143264342Y-83650476D02*
X143359580Y-83698095D01*
X143359580Y-83698095D02*
X143407200Y-83745714D01*
X143407200Y-83745714D02*
X143454819Y-83840952D01*
X143454819Y-83840952D02*
X143454819Y-84126666D01*
X143454819Y-84126666D02*
X143407200Y-84221904D01*
X143407200Y-84221904D02*
X143359580Y-84269523D01*
X144359580Y-97126666D02*
X144407200Y-97174285D01*
X144407200Y-97174285D02*
X144454819Y-97317142D01*
X144454819Y-97317142D02*
X144454819Y-97412380D01*
X144454819Y-97412380D02*
X144407200Y-97555237D01*
X144407200Y-97555237D02*
X144311961Y-97650475D01*
X144311961Y-97650475D02*
X144216723Y-97698094D01*
X144216723Y-97698094D02*
X144026247Y-97745713D01*
X144026247Y-97745713D02*
X143883390Y-97745713D01*
X143883390Y-97745713D02*
X143692914Y-97698094D01*
X143692914Y-97698094D02*
X143597676Y-97650475D01*
X143597676Y-97650475D02*
X143502438Y-97555237D01*
X143502438Y-97555237D02*
X143454819Y-97412380D01*
X143454819Y-97412380D02*
X143454819Y-97317142D01*
X143454819Y-97317142D02*
X143502438Y-97174285D01*
X143502438Y-97174285D02*
X143550057Y-97126666D01*
X143454819Y-96793332D02*
X143454819Y-96174285D01*
X143454819Y-96174285D02*
X143835771Y-96507618D01*
X143835771Y-96507618D02*
X143835771Y-96364761D01*
X143835771Y-96364761D02*
X143883390Y-96269523D01*
X143883390Y-96269523D02*
X143931009Y-96221904D01*
X143931009Y-96221904D02*
X144026247Y-96174285D01*
X144026247Y-96174285D02*
X144264342Y-96174285D01*
X144264342Y-96174285D02*
X144359580Y-96221904D01*
X144359580Y-96221904D02*
X144407200Y-96269523D01*
X144407200Y-96269523D02*
X144454819Y-96364761D01*
X144454819Y-96364761D02*
X144454819Y-96650475D01*
X144454819Y-96650475D02*
X144407200Y-96745713D01*
X144407200Y-96745713D02*
X144359580Y-96793332D01*
X141994819Y-102833333D02*
X142709104Y-102833333D01*
X142709104Y-102833333D02*
X142851961Y-102880952D01*
X142851961Y-102880952D02*
X142947200Y-102976190D01*
X142947200Y-102976190D02*
X142994819Y-103119047D01*
X142994819Y-103119047D02*
X142994819Y-103214285D01*
X142994819Y-101833333D02*
X142994819Y-102404761D01*
X142994819Y-102119047D02*
X141994819Y-102119047D01*
X141994819Y-102119047D02*
X142137676Y-102214285D01*
X142137676Y-102214285D02*
X142232914Y-102309523D01*
X142232914Y-102309523D02*
X142280533Y-102404761D01*
X142190476Y-53954819D02*
X142190476Y-52954819D01*
X142190476Y-52954819D02*
X142523809Y-53669104D01*
X142523809Y-53669104D02*
X142857142Y-52954819D01*
X142857142Y-52954819D02*
X142857142Y-53954819D01*
X143857142Y-53954819D02*
X143285714Y-53954819D01*
X143571428Y-53954819D02*
X143571428Y-52954819D01*
X143571428Y-52954819D02*
X143476190Y-53097676D01*
X143476190Y-53097676D02*
X143380952Y-53192914D01*
X143380952Y-53192914D02*
X143285714Y-53240533D01*
D11*
X138231705Y-47471966D02*
X138231705Y-46471966D01*
X138231705Y-46471966D02*
X138469800Y-46471966D01*
X138469800Y-46471966D02*
X138612657Y-46519585D01*
X138612657Y-46519585D02*
X138707895Y-46614823D01*
X138707895Y-46614823D02*
X138755514Y-46710061D01*
X138755514Y-46710061D02*
X138803133Y-46900537D01*
X138803133Y-46900537D02*
X138803133Y-47043394D01*
X138803133Y-47043394D02*
X138755514Y-47233870D01*
X138755514Y-47233870D02*
X138707895Y-47329108D01*
X138707895Y-47329108D02*
X138612657Y-47424347D01*
X138612657Y-47424347D02*
X138469800Y-47471966D01*
X138469800Y-47471966D02*
X138231705Y-47471966D01*
X139707895Y-46471966D02*
X139231705Y-46471966D01*
X139231705Y-46471966D02*
X139184086Y-46948156D01*
X139184086Y-46948156D02*
X139231705Y-46900537D01*
X139231705Y-46900537D02*
X139326943Y-46852918D01*
X139326943Y-46852918D02*
X139565038Y-46852918D01*
X139565038Y-46852918D02*
X139660276Y-46900537D01*
X139660276Y-46900537D02*
X139707895Y-46948156D01*
X139707895Y-46948156D02*
X139755514Y-47043394D01*
X139755514Y-47043394D02*
X139755514Y-47281489D01*
X139755514Y-47281489D02*
X139707895Y-47376727D01*
X139707895Y-47376727D02*
X139660276Y-47424347D01*
X139660276Y-47424347D02*
X139565038Y-47471966D01*
X139565038Y-47471966D02*
X139326943Y-47471966D01*
X139326943Y-47471966D02*
X139231705Y-47424347D01*
X139231705Y-47424347D02*
X139184086Y-47376727D01*
X160231705Y-47471966D02*
X160231705Y-46471966D01*
X160231705Y-46471966D02*
X160469800Y-46471966D01*
X160469800Y-46471966D02*
X160612657Y-46519585D01*
X160612657Y-46519585D02*
X160707895Y-46614823D01*
X160707895Y-46614823D02*
X160755514Y-46710061D01*
X160755514Y-46710061D02*
X160803133Y-46900537D01*
X160803133Y-46900537D02*
X160803133Y-47043394D01*
X160803133Y-47043394D02*
X160755514Y-47233870D01*
X160755514Y-47233870D02*
X160707895Y-47329108D01*
X160707895Y-47329108D02*
X160612657Y-47424347D01*
X160612657Y-47424347D02*
X160469800Y-47471966D01*
X160469800Y-47471966D02*
X160231705Y-47471966D01*
X161374562Y-46900537D02*
X161279324Y-46852918D01*
X161279324Y-46852918D02*
X161231705Y-46805299D01*
X161231705Y-46805299D02*
X161184086Y-46710061D01*
X161184086Y-46710061D02*
X161184086Y-46662442D01*
X161184086Y-46662442D02*
X161231705Y-46567204D01*
X161231705Y-46567204D02*
X161279324Y-46519585D01*
X161279324Y-46519585D02*
X161374562Y-46471966D01*
X161374562Y-46471966D02*
X161565038Y-46471966D01*
X161565038Y-46471966D02*
X161660276Y-46519585D01*
X161660276Y-46519585D02*
X161707895Y-46567204D01*
X161707895Y-46567204D02*
X161755514Y-46662442D01*
X161755514Y-46662442D02*
X161755514Y-46710061D01*
X161755514Y-46710061D02*
X161707895Y-46805299D01*
X161707895Y-46805299D02*
X161660276Y-46852918D01*
X161660276Y-46852918D02*
X161565038Y-46900537D01*
X161565038Y-46900537D02*
X161374562Y-46900537D01*
X161374562Y-46900537D02*
X161279324Y-46948156D01*
X161279324Y-46948156D02*
X161231705Y-46995775D01*
X161231705Y-46995775D02*
X161184086Y-47091013D01*
X161184086Y-47091013D02*
X161184086Y-47281489D01*
X161184086Y-47281489D02*
X161231705Y-47376727D01*
X161231705Y-47376727D02*
X161279324Y-47424347D01*
X161279324Y-47424347D02*
X161374562Y-47471966D01*
X161374562Y-47471966D02*
X161565038Y-47471966D01*
X161565038Y-47471966D02*
X161660276Y-47424347D01*
X161660276Y-47424347D02*
X161707895Y-47376727D01*
X161707895Y-47376727D02*
X161755514Y-47281489D01*
X161755514Y-47281489D02*
X161755514Y-47091013D01*
X161755514Y-47091013D02*
X161707895Y-46995775D01*
X161707895Y-46995775D02*
X161660276Y-46948156D01*
X161660276Y-46948156D02*
X161565038Y-46900537D01*
X160707895Y-33971966D02*
X160231705Y-33971966D01*
X160231705Y-33971966D02*
X160184086Y-34448156D01*
X160184086Y-34448156D02*
X160231705Y-34400537D01*
X160231705Y-34400537D02*
X160326943Y-34352918D01*
X160326943Y-34352918D02*
X160565038Y-34352918D01*
X160565038Y-34352918D02*
X160660276Y-34400537D01*
X160660276Y-34400537D02*
X160707895Y-34448156D01*
X160707895Y-34448156D02*
X160755514Y-34543394D01*
X160755514Y-34543394D02*
X160755514Y-34781489D01*
X160755514Y-34781489D02*
X160707895Y-34876727D01*
X160707895Y-34876727D02*
X160660276Y-34924347D01*
X160660276Y-34924347D02*
X160565038Y-34971966D01*
X160565038Y-34971966D02*
X160326943Y-34971966D01*
X160326943Y-34971966D02*
X160231705Y-34924347D01*
X160231705Y-34924347D02*
X160184086Y-34876727D01*
X161041229Y-33971966D02*
X161374562Y-34971966D01*
X161374562Y-34971966D02*
X161707895Y-33971966D01*
X138231705Y-34971966D02*
X138231705Y-33971966D01*
X138231705Y-33971966D02*
X138469800Y-33971966D01*
X138469800Y-33971966D02*
X138612657Y-34019585D01*
X138612657Y-34019585D02*
X138707895Y-34114823D01*
X138707895Y-34114823D02*
X138755514Y-34210061D01*
X138755514Y-34210061D02*
X138803133Y-34400537D01*
X138803133Y-34400537D02*
X138803133Y-34543394D01*
X138803133Y-34543394D02*
X138755514Y-34733870D01*
X138755514Y-34733870D02*
X138707895Y-34829108D01*
X138707895Y-34829108D02*
X138612657Y-34924347D01*
X138612657Y-34924347D02*
X138469800Y-34971966D01*
X138469800Y-34971966D02*
X138231705Y-34971966D01*
X139422181Y-33971966D02*
X139517419Y-33971966D01*
X139517419Y-33971966D02*
X139612657Y-34019585D01*
X139612657Y-34019585D02*
X139660276Y-34067204D01*
X139660276Y-34067204D02*
X139707895Y-34162442D01*
X139707895Y-34162442D02*
X139755514Y-34352918D01*
X139755514Y-34352918D02*
X139755514Y-34591013D01*
X139755514Y-34591013D02*
X139707895Y-34781489D01*
X139707895Y-34781489D02*
X139660276Y-34876727D01*
X139660276Y-34876727D02*
X139612657Y-34924347D01*
X139612657Y-34924347D02*
X139517419Y-34971966D01*
X139517419Y-34971966D02*
X139422181Y-34971966D01*
X139422181Y-34971966D02*
X139326943Y-34924347D01*
X139326943Y-34924347D02*
X139279324Y-34876727D01*
X139279324Y-34876727D02*
X139231705Y-34781489D01*
X139231705Y-34781489D02*
X139184086Y-34591013D01*
X139184086Y-34591013D02*
X139184086Y-34352918D01*
X139184086Y-34352918D02*
X139231705Y-34162442D01*
X139231705Y-34162442D02*
X139279324Y-34067204D01*
X139279324Y-34067204D02*
X139326943Y-34019585D01*
X139326943Y-34019585D02*
X139422181Y-33971966D01*
X138231705Y-37471966D02*
X138231705Y-36471966D01*
X138231705Y-36471966D02*
X138469800Y-36471966D01*
X138469800Y-36471966D02*
X138612657Y-36519585D01*
X138612657Y-36519585D02*
X138707895Y-36614823D01*
X138707895Y-36614823D02*
X138755514Y-36710061D01*
X138755514Y-36710061D02*
X138803133Y-36900537D01*
X138803133Y-36900537D02*
X138803133Y-37043394D01*
X138803133Y-37043394D02*
X138755514Y-37233870D01*
X138755514Y-37233870D02*
X138707895Y-37329108D01*
X138707895Y-37329108D02*
X138612657Y-37424347D01*
X138612657Y-37424347D02*
X138469800Y-37471966D01*
X138469800Y-37471966D02*
X138231705Y-37471966D01*
X139755514Y-37471966D02*
X139184086Y-37471966D01*
X139469800Y-37471966D02*
X139469800Y-36471966D01*
X139469800Y-36471966D02*
X139374562Y-36614823D01*
X139374562Y-36614823D02*
X139279324Y-36710061D01*
X139279324Y-36710061D02*
X139184086Y-36757680D01*
X160231705Y-44971966D02*
X160231705Y-43971966D01*
X160231705Y-43971966D02*
X160469800Y-43971966D01*
X160469800Y-43971966D02*
X160612657Y-44019585D01*
X160612657Y-44019585D02*
X160707895Y-44114823D01*
X160707895Y-44114823D02*
X160755514Y-44210061D01*
X160755514Y-44210061D02*
X160803133Y-44400537D01*
X160803133Y-44400537D02*
X160803133Y-44543394D01*
X160803133Y-44543394D02*
X160755514Y-44733870D01*
X160755514Y-44733870D02*
X160707895Y-44829108D01*
X160707895Y-44829108D02*
X160612657Y-44924347D01*
X160612657Y-44924347D02*
X160469800Y-44971966D01*
X160469800Y-44971966D02*
X160231705Y-44971966D01*
X161279324Y-44971966D02*
X161469800Y-44971966D01*
X161469800Y-44971966D02*
X161565038Y-44924347D01*
X161565038Y-44924347D02*
X161612657Y-44876727D01*
X161612657Y-44876727D02*
X161707895Y-44733870D01*
X161707895Y-44733870D02*
X161755514Y-44543394D01*
X161755514Y-44543394D02*
X161755514Y-44162442D01*
X161755514Y-44162442D02*
X161707895Y-44067204D01*
X161707895Y-44067204D02*
X161660276Y-44019585D01*
X161660276Y-44019585D02*
X161565038Y-43971966D01*
X161565038Y-43971966D02*
X161374562Y-43971966D01*
X161374562Y-43971966D02*
X161279324Y-44019585D01*
X161279324Y-44019585D02*
X161231705Y-44067204D01*
X161231705Y-44067204D02*
X161184086Y-44162442D01*
X161184086Y-44162442D02*
X161184086Y-44400537D01*
X161184086Y-44400537D02*
X161231705Y-44495775D01*
X161231705Y-44495775D02*
X161279324Y-44543394D01*
X161279324Y-44543394D02*
X161374562Y-44591013D01*
X161374562Y-44591013D02*
X161565038Y-44591013D01*
X161565038Y-44591013D02*
X161660276Y-44543394D01*
X161660276Y-44543394D02*
X161707895Y-44495775D01*
X161707895Y-44495775D02*
X161755514Y-44400537D01*
X138231705Y-44971966D02*
X138231705Y-43971966D01*
X138231705Y-43971966D02*
X138469800Y-43971966D01*
X138469800Y-43971966D02*
X138612657Y-44019585D01*
X138612657Y-44019585D02*
X138707895Y-44114823D01*
X138707895Y-44114823D02*
X138755514Y-44210061D01*
X138755514Y-44210061D02*
X138803133Y-44400537D01*
X138803133Y-44400537D02*
X138803133Y-44543394D01*
X138803133Y-44543394D02*
X138755514Y-44733870D01*
X138755514Y-44733870D02*
X138707895Y-44829108D01*
X138707895Y-44829108D02*
X138612657Y-44924347D01*
X138612657Y-44924347D02*
X138469800Y-44971966D01*
X138469800Y-44971966D02*
X138231705Y-44971966D01*
X139660276Y-44305299D02*
X139660276Y-44971966D01*
X139422181Y-43924347D02*
X139184086Y-44638632D01*
X139184086Y-44638632D02*
X139803133Y-44638632D01*
X138231705Y-39971966D02*
X138231705Y-38971966D01*
X138231705Y-38971966D02*
X138469800Y-38971966D01*
X138469800Y-38971966D02*
X138612657Y-39019585D01*
X138612657Y-39019585D02*
X138707895Y-39114823D01*
X138707895Y-39114823D02*
X138755514Y-39210061D01*
X138755514Y-39210061D02*
X138803133Y-39400537D01*
X138803133Y-39400537D02*
X138803133Y-39543394D01*
X138803133Y-39543394D02*
X138755514Y-39733870D01*
X138755514Y-39733870D02*
X138707895Y-39829108D01*
X138707895Y-39829108D02*
X138612657Y-39924347D01*
X138612657Y-39924347D02*
X138469800Y-39971966D01*
X138469800Y-39971966D02*
X138231705Y-39971966D01*
X139184086Y-39067204D02*
X139231705Y-39019585D01*
X139231705Y-39019585D02*
X139326943Y-38971966D01*
X139326943Y-38971966D02*
X139565038Y-38971966D01*
X139565038Y-38971966D02*
X139660276Y-39019585D01*
X139660276Y-39019585D02*
X139707895Y-39067204D01*
X139707895Y-39067204D02*
X139755514Y-39162442D01*
X139755514Y-39162442D02*
X139755514Y-39257680D01*
X139755514Y-39257680D02*
X139707895Y-39400537D01*
X139707895Y-39400537D02*
X139136467Y-39971966D01*
X139136467Y-39971966D02*
X139755514Y-39971966D01*
X138231705Y-42471966D02*
X138231705Y-41471966D01*
X138231705Y-41471966D02*
X138469800Y-41471966D01*
X138469800Y-41471966D02*
X138612657Y-41519585D01*
X138612657Y-41519585D02*
X138707895Y-41614823D01*
X138707895Y-41614823D02*
X138755514Y-41710061D01*
X138755514Y-41710061D02*
X138803133Y-41900537D01*
X138803133Y-41900537D02*
X138803133Y-42043394D01*
X138803133Y-42043394D02*
X138755514Y-42233870D01*
X138755514Y-42233870D02*
X138707895Y-42329108D01*
X138707895Y-42329108D02*
X138612657Y-42424347D01*
X138612657Y-42424347D02*
X138469800Y-42471966D01*
X138469800Y-42471966D02*
X138231705Y-42471966D01*
X139136467Y-41471966D02*
X139755514Y-41471966D01*
X139755514Y-41471966D02*
X139422181Y-41852918D01*
X139422181Y-41852918D02*
X139565038Y-41852918D01*
X139565038Y-41852918D02*
X139660276Y-41900537D01*
X139660276Y-41900537D02*
X139707895Y-41948156D01*
X139707895Y-41948156D02*
X139755514Y-42043394D01*
X139755514Y-42043394D02*
X139755514Y-42281489D01*
X139755514Y-42281489D02*
X139707895Y-42376727D01*
X139707895Y-42376727D02*
X139660276Y-42424347D01*
X139660276Y-42424347D02*
X139565038Y-42471966D01*
X139565038Y-42471966D02*
X139279324Y-42471966D01*
X139279324Y-42471966D02*
X139184086Y-42424347D01*
X139184086Y-42424347D02*
X139136467Y-42376727D01*
X160231705Y-42471966D02*
X160231705Y-41471966D01*
X160231705Y-41471966D02*
X160469800Y-41471966D01*
X160469800Y-41471966D02*
X160612657Y-41519585D01*
X160612657Y-41519585D02*
X160707895Y-41614823D01*
X160707895Y-41614823D02*
X160755514Y-41710061D01*
X160755514Y-41710061D02*
X160803133Y-41900537D01*
X160803133Y-41900537D02*
X160803133Y-42043394D01*
X160803133Y-42043394D02*
X160755514Y-42233870D01*
X160755514Y-42233870D02*
X160707895Y-42329108D01*
X160707895Y-42329108D02*
X160612657Y-42424347D01*
X160612657Y-42424347D02*
X160469800Y-42471966D01*
X160469800Y-42471966D02*
X160231705Y-42471966D01*
X161755514Y-42471966D02*
X161184086Y-42471966D01*
X161469800Y-42471966D02*
X161469800Y-41471966D01*
X161469800Y-41471966D02*
X161374562Y-41614823D01*
X161374562Y-41614823D02*
X161279324Y-41710061D01*
X161279324Y-41710061D02*
X161184086Y-41757680D01*
X162374562Y-41471966D02*
X162469800Y-41471966D01*
X162469800Y-41471966D02*
X162565038Y-41519585D01*
X162565038Y-41519585D02*
X162612657Y-41567204D01*
X162612657Y-41567204D02*
X162660276Y-41662442D01*
X162660276Y-41662442D02*
X162707895Y-41852918D01*
X162707895Y-41852918D02*
X162707895Y-42091013D01*
X162707895Y-42091013D02*
X162660276Y-42281489D01*
X162660276Y-42281489D02*
X162612657Y-42376727D01*
X162612657Y-42376727D02*
X162565038Y-42424347D01*
X162565038Y-42424347D02*
X162469800Y-42471966D01*
X162469800Y-42471966D02*
X162374562Y-42471966D01*
X162374562Y-42471966D02*
X162279324Y-42424347D01*
X162279324Y-42424347D02*
X162231705Y-42376727D01*
X162231705Y-42376727D02*
X162184086Y-42281489D01*
X162184086Y-42281489D02*
X162136467Y-42091013D01*
X162136467Y-42091013D02*
X162136467Y-41852918D01*
X162136467Y-41852918D02*
X162184086Y-41662442D01*
X162184086Y-41662442D02*
X162231705Y-41567204D01*
X162231705Y-41567204D02*
X162279324Y-41519585D01*
X162279324Y-41519585D02*
X162374562Y-41471966D01*
X147116637Y-41691274D02*
X147259494Y-41738893D01*
X147259494Y-41738893D02*
X147307113Y-41786512D01*
X147307113Y-41786512D02*
X147354732Y-41881750D01*
X147354732Y-41881750D02*
X147354732Y-42024607D01*
X147354732Y-42024607D02*
X147307113Y-42119845D01*
X147307113Y-42119845D02*
X147259494Y-42167465D01*
X147259494Y-42167465D02*
X147164256Y-42215084D01*
X147164256Y-42215084D02*
X146783304Y-42215084D01*
X146783304Y-42215084D02*
X146783304Y-41215084D01*
X146783304Y-41215084D02*
X147116637Y-41215084D01*
X147116637Y-41215084D02*
X147211875Y-41262703D01*
X147211875Y-41262703D02*
X147259494Y-41310322D01*
X147259494Y-41310322D02*
X147307113Y-41405560D01*
X147307113Y-41405560D02*
X147307113Y-41500798D01*
X147307113Y-41500798D02*
X147259494Y-41596036D01*
X147259494Y-41596036D02*
X147211875Y-41643655D01*
X147211875Y-41643655D02*
X147116637Y-41691274D01*
X147116637Y-41691274D02*
X146783304Y-41691274D01*
X147735685Y-41929369D02*
X148211875Y-41929369D01*
X147640447Y-42215084D02*
X147973780Y-41215084D01*
X147973780Y-41215084D02*
X148307113Y-42215084D01*
X148497590Y-41215084D02*
X149069018Y-41215084D01*
X148783304Y-42215084D02*
X148783304Y-41215084D01*
X149402352Y-41834131D02*
X150164257Y-41834131D01*
X149783304Y-42215084D02*
X149783304Y-41453179D01*
X160231705Y-49971966D02*
X160231705Y-48971966D01*
X160231705Y-48971966D02*
X160469800Y-48971966D01*
X160469800Y-48971966D02*
X160612657Y-49019585D01*
X160612657Y-49019585D02*
X160707895Y-49114823D01*
X160707895Y-49114823D02*
X160755514Y-49210061D01*
X160755514Y-49210061D02*
X160803133Y-49400537D01*
X160803133Y-49400537D02*
X160803133Y-49543394D01*
X160803133Y-49543394D02*
X160755514Y-49733870D01*
X160755514Y-49733870D02*
X160707895Y-49829108D01*
X160707895Y-49829108D02*
X160612657Y-49924347D01*
X160612657Y-49924347D02*
X160469800Y-49971966D01*
X160469800Y-49971966D02*
X160231705Y-49971966D01*
X161136467Y-48971966D02*
X161803133Y-48971966D01*
X161803133Y-48971966D02*
X161374562Y-49971966D01*
X160755514Y-36519585D02*
X160660276Y-36471966D01*
X160660276Y-36471966D02*
X160517419Y-36471966D01*
X160517419Y-36471966D02*
X160374562Y-36519585D01*
X160374562Y-36519585D02*
X160279324Y-36614823D01*
X160279324Y-36614823D02*
X160231705Y-36710061D01*
X160231705Y-36710061D02*
X160184086Y-36900537D01*
X160184086Y-36900537D02*
X160184086Y-37043394D01*
X160184086Y-37043394D02*
X160231705Y-37233870D01*
X160231705Y-37233870D02*
X160279324Y-37329108D01*
X160279324Y-37329108D02*
X160374562Y-37424347D01*
X160374562Y-37424347D02*
X160517419Y-37471966D01*
X160517419Y-37471966D02*
X160612657Y-37471966D01*
X160612657Y-37471966D02*
X160755514Y-37424347D01*
X160755514Y-37424347D02*
X160803133Y-37376727D01*
X160803133Y-37376727D02*
X160803133Y-37043394D01*
X160803133Y-37043394D02*
X160612657Y-37043394D01*
X161231705Y-37471966D02*
X161231705Y-36471966D01*
X161231705Y-36471966D02*
X161803133Y-37471966D01*
X161803133Y-37471966D02*
X161803133Y-36471966D01*
X162279324Y-37471966D02*
X162279324Y-36471966D01*
X162279324Y-36471966D02*
X162517419Y-36471966D01*
X162517419Y-36471966D02*
X162660276Y-36519585D01*
X162660276Y-36519585D02*
X162755514Y-36614823D01*
X162755514Y-36614823D02*
X162803133Y-36710061D01*
X162803133Y-36710061D02*
X162850752Y-36900537D01*
X162850752Y-36900537D02*
X162850752Y-37043394D01*
X162850752Y-37043394D02*
X162803133Y-37233870D01*
X162803133Y-37233870D02*
X162755514Y-37329108D01*
X162755514Y-37329108D02*
X162660276Y-37424347D01*
X162660276Y-37424347D02*
X162517419Y-37471966D01*
X162517419Y-37471966D02*
X162279324Y-37471966D01*
X138231705Y-49971966D02*
X138231705Y-48971966D01*
X138231705Y-48971966D02*
X138469800Y-48971966D01*
X138469800Y-48971966D02*
X138612657Y-49019585D01*
X138612657Y-49019585D02*
X138707895Y-49114823D01*
X138707895Y-49114823D02*
X138755514Y-49210061D01*
X138755514Y-49210061D02*
X138803133Y-49400537D01*
X138803133Y-49400537D02*
X138803133Y-49543394D01*
X138803133Y-49543394D02*
X138755514Y-49733870D01*
X138755514Y-49733870D02*
X138707895Y-49829108D01*
X138707895Y-49829108D02*
X138612657Y-49924347D01*
X138612657Y-49924347D02*
X138469800Y-49971966D01*
X138469800Y-49971966D02*
X138231705Y-49971966D01*
X139660276Y-48971966D02*
X139469800Y-48971966D01*
X139469800Y-48971966D02*
X139374562Y-49019585D01*
X139374562Y-49019585D02*
X139326943Y-49067204D01*
X139326943Y-49067204D02*
X139231705Y-49210061D01*
X139231705Y-49210061D02*
X139184086Y-49400537D01*
X139184086Y-49400537D02*
X139184086Y-49781489D01*
X139184086Y-49781489D02*
X139231705Y-49876727D01*
X139231705Y-49876727D02*
X139279324Y-49924347D01*
X139279324Y-49924347D02*
X139374562Y-49971966D01*
X139374562Y-49971966D02*
X139565038Y-49971966D01*
X139565038Y-49971966D02*
X139660276Y-49924347D01*
X139660276Y-49924347D02*
X139707895Y-49876727D01*
X139707895Y-49876727D02*
X139755514Y-49781489D01*
X139755514Y-49781489D02*
X139755514Y-49543394D01*
X139755514Y-49543394D02*
X139707895Y-49448156D01*
X139707895Y-49448156D02*
X139660276Y-49400537D01*
X139660276Y-49400537D02*
X139565038Y-49352918D01*
X139565038Y-49352918D02*
X139374562Y-49352918D01*
X139374562Y-49352918D02*
X139279324Y-49400537D01*
X139279324Y-49400537D02*
X139231705Y-49448156D01*
X139231705Y-49448156D02*
X139184086Y-49543394D01*
X147133010Y-39775619D02*
X147275867Y-39823238D01*
X147275867Y-39823238D02*
X147323486Y-39870857D01*
X147323486Y-39870857D02*
X147371105Y-39966095D01*
X147371105Y-39966095D02*
X147371105Y-40108952D01*
X147371105Y-40108952D02*
X147323486Y-40204190D01*
X147323486Y-40204190D02*
X147275867Y-40251810D01*
X147275867Y-40251810D02*
X147180629Y-40299429D01*
X147180629Y-40299429D02*
X146799677Y-40299429D01*
X146799677Y-40299429D02*
X146799677Y-39299429D01*
X146799677Y-39299429D02*
X147133010Y-39299429D01*
X147133010Y-39299429D02*
X147228248Y-39347048D01*
X147228248Y-39347048D02*
X147275867Y-39394667D01*
X147275867Y-39394667D02*
X147323486Y-39489905D01*
X147323486Y-39489905D02*
X147323486Y-39585143D01*
X147323486Y-39585143D02*
X147275867Y-39680381D01*
X147275867Y-39680381D02*
X147228248Y-39728000D01*
X147228248Y-39728000D02*
X147133010Y-39775619D01*
X147133010Y-39775619D02*
X146799677Y-39775619D01*
X147752058Y-40013714D02*
X148228248Y-40013714D01*
X147656820Y-40299429D02*
X147990153Y-39299429D01*
X147990153Y-39299429D02*
X148323486Y-40299429D01*
X148513963Y-39299429D02*
X149085391Y-39299429D01*
X148799677Y-40299429D02*
X148799677Y-39299429D01*
X149418725Y-39918476D02*
X150180630Y-39918476D01*
X160136467Y-38971966D02*
X160755514Y-38971966D01*
X160755514Y-38971966D02*
X160422181Y-39352918D01*
X160422181Y-39352918D02*
X160565038Y-39352918D01*
X160565038Y-39352918D02*
X160660276Y-39400537D01*
X160660276Y-39400537D02*
X160707895Y-39448156D01*
X160707895Y-39448156D02*
X160755514Y-39543394D01*
X160755514Y-39543394D02*
X160755514Y-39781489D01*
X160755514Y-39781489D02*
X160707895Y-39876727D01*
X160707895Y-39876727D02*
X160660276Y-39924347D01*
X160660276Y-39924347D02*
X160565038Y-39971966D01*
X160565038Y-39971966D02*
X160279324Y-39971966D01*
X160279324Y-39971966D02*
X160184086Y-39924347D01*
X160184086Y-39924347D02*
X160136467Y-39876727D01*
X161041229Y-38971966D02*
X161374562Y-39971966D01*
X161374562Y-39971966D02*
X161707895Y-38971966D01*
X161945991Y-38971966D02*
X162565038Y-38971966D01*
X162565038Y-38971966D02*
X162231705Y-39352918D01*
X162231705Y-39352918D02*
X162374562Y-39352918D01*
X162374562Y-39352918D02*
X162469800Y-39400537D01*
X162469800Y-39400537D02*
X162517419Y-39448156D01*
X162517419Y-39448156D02*
X162565038Y-39543394D01*
X162565038Y-39543394D02*
X162565038Y-39781489D01*
X162565038Y-39781489D02*
X162517419Y-39876727D01*
X162517419Y-39876727D02*
X162469800Y-39924347D01*
X162469800Y-39924347D02*
X162374562Y-39971966D01*
X162374562Y-39971966D02*
X162088848Y-39971966D01*
X162088848Y-39971966D02*
X161993610Y-39924347D01*
X161993610Y-39924347D02*
X161945991Y-39876727D01*
X162166666Y-52957419D02*
X162166666Y-53671704D01*
X162166666Y-53671704D02*
X162119047Y-53814561D01*
X162119047Y-53814561D02*
X162023809Y-53909800D01*
X162023809Y-53909800D02*
X161880952Y-53957419D01*
X161880952Y-53957419D02*
X161785714Y-53957419D01*
X163071428Y-53290752D02*
X163071428Y-53957419D01*
X162833333Y-52909800D02*
X162595238Y-53624085D01*
X162595238Y-53624085D02*
X163214285Y-53624085D01*
X147641979Y-56596895D02*
X147908646Y-57396895D01*
X147908646Y-57396895D02*
X148175312Y-56596895D01*
X148899122Y-57320704D02*
X148861026Y-57358800D01*
X148861026Y-57358800D02*
X148746741Y-57396895D01*
X148746741Y-57396895D02*
X148670550Y-57396895D01*
X148670550Y-57396895D02*
X148556264Y-57358800D01*
X148556264Y-57358800D02*
X148480074Y-57282609D01*
X148480074Y-57282609D02*
X148441979Y-57206419D01*
X148441979Y-57206419D02*
X148403883Y-57054038D01*
X148403883Y-57054038D02*
X148403883Y-56939752D01*
X148403883Y-56939752D02*
X148441979Y-56787371D01*
X148441979Y-56787371D02*
X148480074Y-56711180D01*
X148480074Y-56711180D02*
X148556264Y-56634990D01*
X148556264Y-56634990D02*
X148670550Y-56596895D01*
X148670550Y-56596895D02*
X148746741Y-56596895D01*
X148746741Y-56596895D02*
X148861026Y-56634990D01*
X148861026Y-56634990D02*
X148899122Y-56673085D01*
X149699122Y-57320704D02*
X149661026Y-57358800D01*
X149661026Y-57358800D02*
X149546741Y-57396895D01*
X149546741Y-57396895D02*
X149470550Y-57396895D01*
X149470550Y-57396895D02*
X149356264Y-57358800D01*
X149356264Y-57358800D02*
X149280074Y-57282609D01*
X149280074Y-57282609D02*
X149241979Y-57206419D01*
X149241979Y-57206419D02*
X149203883Y-57054038D01*
X149203883Y-57054038D02*
X149203883Y-56939752D01*
X149203883Y-56939752D02*
X149241979Y-56787371D01*
X149241979Y-56787371D02*
X149280074Y-56711180D01*
X149280074Y-56711180D02*
X149356264Y-56634990D01*
X149356264Y-56634990D02*
X149470550Y-56596895D01*
X149470550Y-56596895D02*
X149546741Y-56596895D01*
X149546741Y-56596895D02*
X149661026Y-56634990D01*
X149661026Y-56634990D02*
X149699122Y-56673085D01*
X145675312Y-56634990D02*
X145599122Y-56596895D01*
X145599122Y-56596895D02*
X145484836Y-56596895D01*
X145484836Y-56596895D02*
X145370550Y-56634990D01*
X145370550Y-56634990D02*
X145294360Y-56711180D01*
X145294360Y-56711180D02*
X145256265Y-56787371D01*
X145256265Y-56787371D02*
X145218169Y-56939752D01*
X145218169Y-56939752D02*
X145218169Y-57054038D01*
X145218169Y-57054038D02*
X145256265Y-57206419D01*
X145256265Y-57206419D02*
X145294360Y-57282609D01*
X145294360Y-57282609D02*
X145370550Y-57358800D01*
X145370550Y-57358800D02*
X145484836Y-57396895D01*
X145484836Y-57396895D02*
X145561027Y-57396895D01*
X145561027Y-57396895D02*
X145675312Y-57358800D01*
X145675312Y-57358800D02*
X145713408Y-57320704D01*
X145713408Y-57320704D02*
X145713408Y-57054038D01*
X145713408Y-57054038D02*
X145561027Y-57054038D01*
X146056265Y-57396895D02*
X146056265Y-56596895D01*
X146056265Y-56596895D02*
X146513408Y-57396895D01*
X146513408Y-57396895D02*
X146513408Y-56596895D01*
X146894360Y-57396895D02*
X146894360Y-56596895D01*
X146894360Y-56596895D02*
X147084836Y-56596895D01*
X147084836Y-56596895D02*
X147199122Y-56634990D01*
X147199122Y-56634990D02*
X147275312Y-56711180D01*
X147275312Y-56711180D02*
X147313407Y-56787371D01*
X147313407Y-56787371D02*
X147351503Y-56939752D01*
X147351503Y-56939752D02*
X147351503Y-57054038D01*
X147351503Y-57054038D02*
X147313407Y-57206419D01*
X147313407Y-57206419D02*
X147275312Y-57282609D01*
X147275312Y-57282609D02*
X147199122Y-57358800D01*
X147199122Y-57358800D02*
X147084836Y-57396895D01*
X147084836Y-57396895D02*
X146894360Y-57396895D01*
X152718169Y-57358800D02*
X152832455Y-57396895D01*
X152832455Y-57396895D02*
X153022931Y-57396895D01*
X153022931Y-57396895D02*
X153099122Y-57358800D01*
X153099122Y-57358800D02*
X153137217Y-57320704D01*
X153137217Y-57320704D02*
X153175312Y-57244514D01*
X153175312Y-57244514D02*
X153175312Y-57168323D01*
X153175312Y-57168323D02*
X153137217Y-57092133D01*
X153137217Y-57092133D02*
X153099122Y-57054038D01*
X153099122Y-57054038D02*
X153022931Y-57015942D01*
X153022931Y-57015942D02*
X152870550Y-56977847D01*
X152870550Y-56977847D02*
X152794360Y-56939752D01*
X152794360Y-56939752D02*
X152756265Y-56901657D01*
X152756265Y-56901657D02*
X152718169Y-56825466D01*
X152718169Y-56825466D02*
X152718169Y-56749276D01*
X152718169Y-56749276D02*
X152756265Y-56673085D01*
X152756265Y-56673085D02*
X152794360Y-56634990D01*
X152794360Y-56634990D02*
X152870550Y-56596895D01*
X152870550Y-56596895D02*
X153061027Y-56596895D01*
X153061027Y-56596895D02*
X153175312Y-56634990D01*
X153518170Y-57396895D02*
X153518170Y-56596895D01*
X153518170Y-56596895D02*
X153708646Y-56596895D01*
X153708646Y-56596895D02*
X153822932Y-56634990D01*
X153822932Y-56634990D02*
X153899122Y-56711180D01*
X153899122Y-56711180D02*
X153937217Y-56787371D01*
X153937217Y-56787371D02*
X153975313Y-56939752D01*
X153975313Y-56939752D02*
X153975313Y-57054038D01*
X153975313Y-57054038D02*
X153937217Y-57206419D01*
X153937217Y-57206419D02*
X153899122Y-57282609D01*
X153899122Y-57282609D02*
X153822932Y-57358800D01*
X153822932Y-57358800D02*
X153708646Y-57396895D01*
X153708646Y-57396895D02*
X153518170Y-57396895D01*
X154280074Y-57168323D02*
X154661027Y-57168323D01*
X154203884Y-57396895D02*
X154470551Y-56596895D01*
X154470551Y-56596895D02*
X154737217Y-57396895D01*
X150218169Y-57358800D02*
X150332455Y-57396895D01*
X150332455Y-57396895D02*
X150522931Y-57396895D01*
X150522931Y-57396895D02*
X150599122Y-57358800D01*
X150599122Y-57358800D02*
X150637217Y-57320704D01*
X150637217Y-57320704D02*
X150675312Y-57244514D01*
X150675312Y-57244514D02*
X150675312Y-57168323D01*
X150675312Y-57168323D02*
X150637217Y-57092133D01*
X150637217Y-57092133D02*
X150599122Y-57054038D01*
X150599122Y-57054038D02*
X150522931Y-57015942D01*
X150522931Y-57015942D02*
X150370550Y-56977847D01*
X150370550Y-56977847D02*
X150294360Y-56939752D01*
X150294360Y-56939752D02*
X150256265Y-56901657D01*
X150256265Y-56901657D02*
X150218169Y-56825466D01*
X150218169Y-56825466D02*
X150218169Y-56749276D01*
X150218169Y-56749276D02*
X150256265Y-56673085D01*
X150256265Y-56673085D02*
X150294360Y-56634990D01*
X150294360Y-56634990D02*
X150370550Y-56596895D01*
X150370550Y-56596895D02*
X150561027Y-56596895D01*
X150561027Y-56596895D02*
X150675312Y-56634990D01*
X151475313Y-57320704D02*
X151437217Y-57358800D01*
X151437217Y-57358800D02*
X151322932Y-57396895D01*
X151322932Y-57396895D02*
X151246741Y-57396895D01*
X151246741Y-57396895D02*
X151132455Y-57358800D01*
X151132455Y-57358800D02*
X151056265Y-57282609D01*
X151056265Y-57282609D02*
X151018170Y-57206419D01*
X151018170Y-57206419D02*
X150980074Y-57054038D01*
X150980074Y-57054038D02*
X150980074Y-56939752D01*
X150980074Y-56939752D02*
X151018170Y-56787371D01*
X151018170Y-56787371D02*
X151056265Y-56711180D01*
X151056265Y-56711180D02*
X151132455Y-56634990D01*
X151132455Y-56634990D02*
X151246741Y-56596895D01*
X151246741Y-56596895D02*
X151322932Y-56596895D01*
X151322932Y-56596895D02*
X151437217Y-56634990D01*
X151437217Y-56634990D02*
X151475313Y-56673085D01*
X152199122Y-57396895D02*
X151818170Y-57396895D01*
X151818170Y-57396895D02*
X151818170Y-56596895D01*
D10*
X148454819Y-99383094D02*
X147454819Y-99383094D01*
X147454819Y-99383094D02*
X147454819Y-99144999D01*
X147454819Y-99144999D02*
X147502438Y-99002142D01*
X147502438Y-99002142D02*
X147597676Y-98906904D01*
X147597676Y-98906904D02*
X147692914Y-98859285D01*
X147692914Y-98859285D02*
X147883390Y-98811666D01*
X147883390Y-98811666D02*
X148026247Y-98811666D01*
X148026247Y-98811666D02*
X148216723Y-98859285D01*
X148216723Y-98859285D02*
X148311961Y-98906904D01*
X148311961Y-98906904D02*
X148407200Y-99002142D01*
X148407200Y-99002142D02*
X148454819Y-99144999D01*
X148454819Y-99144999D02*
X148454819Y-99383094D01*
X147454819Y-98478332D02*
X147454819Y-97859285D01*
X147454819Y-97859285D02*
X147835771Y-98192618D01*
X147835771Y-98192618D02*
X147835771Y-98049761D01*
X147835771Y-98049761D02*
X147883390Y-97954523D01*
X147883390Y-97954523D02*
X147931009Y-97906904D01*
X147931009Y-97906904D02*
X148026247Y-97859285D01*
X148026247Y-97859285D02*
X148264342Y-97859285D01*
X148264342Y-97859285D02*
X148359580Y-97906904D01*
X148359580Y-97906904D02*
X148407200Y-97954523D01*
X148407200Y-97954523D02*
X148454819Y-98049761D01*
X148454819Y-98049761D02*
X148454819Y-98335475D01*
X148454819Y-98335475D02*
X148407200Y-98430713D01*
X148407200Y-98430713D02*
X148359580Y-98478332D01*
X146704819Y-96721904D02*
X145704819Y-96721904D01*
X146704819Y-96150476D02*
X146133390Y-96579047D01*
X145704819Y-96150476D02*
X146276247Y-96721904D01*
X170738095Y-33154819D02*
X170738095Y-32154819D01*
X170738095Y-32631009D02*
X171309523Y-32631009D01*
X171309523Y-33154819D02*
X171309523Y-32154819D01*
X172309523Y-33154819D02*
X171738095Y-33154819D01*
X172023809Y-33154819D02*
X172023809Y-32154819D01*
X172023809Y-32154819D02*
X171928571Y-32297676D01*
X171928571Y-32297676D02*
X171833333Y-32392914D01*
X171833333Y-32392914D02*
X171738095Y-32440533D01*
D11*
X171166667Y-53409800D02*
X171309524Y-53457419D01*
X171309524Y-53457419D02*
X171547619Y-53457419D01*
X171547619Y-53457419D02*
X171642857Y-53409800D01*
X171642857Y-53409800D02*
X171690476Y-53362180D01*
X171690476Y-53362180D02*
X171738095Y-53266942D01*
X171738095Y-53266942D02*
X171738095Y-53171704D01*
X171738095Y-53171704D02*
X171690476Y-53076466D01*
X171690476Y-53076466D02*
X171642857Y-53028847D01*
X171642857Y-53028847D02*
X171547619Y-52981228D01*
X171547619Y-52981228D02*
X171357143Y-52933609D01*
X171357143Y-52933609D02*
X171261905Y-52885990D01*
X171261905Y-52885990D02*
X171214286Y-52838371D01*
X171214286Y-52838371D02*
X171166667Y-52743133D01*
X171166667Y-52743133D02*
X171166667Y-52647895D01*
X171166667Y-52647895D02*
X171214286Y-52552657D01*
X171214286Y-52552657D02*
X171261905Y-52505038D01*
X171261905Y-52505038D02*
X171357143Y-52457419D01*
X171357143Y-52457419D02*
X171595238Y-52457419D01*
X171595238Y-52457419D02*
X171738095Y-52505038D01*
X172071429Y-52457419D02*
X172309524Y-53457419D01*
X172309524Y-53457419D02*
X172500000Y-52743133D01*
X172500000Y-52743133D02*
X172690476Y-53457419D01*
X172690476Y-53457419D02*
X172928572Y-52457419D01*
X173833333Y-53457419D02*
X173261905Y-53457419D01*
X173547619Y-53457419D02*
X173547619Y-52457419D01*
X173547619Y-52457419D02*
X173452381Y-52600276D01*
X173452381Y-52600276D02*
X173357143Y-52695514D01*
X173357143Y-52695514D02*
X173261905Y-52743133D01*
D10*
X152359580Y-97126666D02*
X152407200Y-97174285D01*
X152407200Y-97174285D02*
X152454819Y-97317142D01*
X152454819Y-97317142D02*
X152454819Y-97412380D01*
X152454819Y-97412380D02*
X152407200Y-97555237D01*
X152407200Y-97555237D02*
X152311961Y-97650475D01*
X152311961Y-97650475D02*
X152216723Y-97698094D01*
X152216723Y-97698094D02*
X152026247Y-97745713D01*
X152026247Y-97745713D02*
X151883390Y-97745713D01*
X151883390Y-97745713D02*
X151692914Y-97698094D01*
X151692914Y-97698094D02*
X151597676Y-97650475D01*
X151597676Y-97650475D02*
X151502438Y-97555237D01*
X151502438Y-97555237D02*
X151454819Y-97412380D01*
X151454819Y-97412380D02*
X151454819Y-97317142D01*
X151454819Y-97317142D02*
X151502438Y-97174285D01*
X151502438Y-97174285D02*
X151550057Y-97126666D01*
X151550057Y-96745713D02*
X151502438Y-96698094D01*
X151502438Y-96698094D02*
X151454819Y-96602856D01*
X151454819Y-96602856D02*
X151454819Y-96364761D01*
X151454819Y-96364761D02*
X151502438Y-96269523D01*
X151502438Y-96269523D02*
X151550057Y-96221904D01*
X151550057Y-96221904D02*
X151645295Y-96174285D01*
X151645295Y-96174285D02*
X151740533Y-96174285D01*
X151740533Y-96174285D02*
X151883390Y-96221904D01*
X151883390Y-96221904D02*
X152454819Y-96793332D01*
X152454819Y-96793332D02*
X152454819Y-96174285D01*
X165666666Y-50844819D02*
X165666666Y-51559104D01*
X165666666Y-51559104D02*
X165619047Y-51701961D01*
X165619047Y-51701961D02*
X165523809Y-51797200D01*
X165523809Y-51797200D02*
X165380952Y-51844819D01*
X165380952Y-51844819D02*
X165285714Y-51844819D01*
X166619047Y-50844819D02*
X166142857Y-50844819D01*
X166142857Y-50844819D02*
X166095238Y-51321009D01*
X166095238Y-51321009D02*
X166142857Y-51273390D01*
X166142857Y-51273390D02*
X166238095Y-51225771D01*
X166238095Y-51225771D02*
X166476190Y-51225771D01*
X166476190Y-51225771D02*
X166571428Y-51273390D01*
X166571428Y-51273390D02*
X166619047Y-51321009D01*
X166619047Y-51321009D02*
X166666666Y-51416247D01*
X166666666Y-51416247D02*
X166666666Y-51654342D01*
X166666666Y-51654342D02*
X166619047Y-51749580D01*
X166619047Y-51749580D02*
X166571428Y-51797200D01*
X166571428Y-51797200D02*
X166476190Y-51844819D01*
X166476190Y-51844819D02*
X166238095Y-51844819D01*
X166238095Y-51844819D02*
X166142857Y-51797200D01*
X166142857Y-51797200D02*
X166095238Y-51749580D01*
X127738095Y-33154819D02*
X127738095Y-32154819D01*
X127738095Y-32631009D02*
X128309523Y-32631009D01*
X128309523Y-33154819D02*
X128309523Y-32154819D01*
X128738095Y-32250057D02*
X128785714Y-32202438D01*
X128785714Y-32202438D02*
X128880952Y-32154819D01*
X128880952Y-32154819D02*
X129119047Y-32154819D01*
X129119047Y-32154819D02*
X129214285Y-32202438D01*
X129214285Y-32202438D02*
X129261904Y-32250057D01*
X129261904Y-32250057D02*
X129309523Y-32345295D01*
X129309523Y-32345295D02*
X129309523Y-32440533D01*
X129309523Y-32440533D02*
X129261904Y-32583390D01*
X129261904Y-32583390D02*
X128690476Y-33154819D01*
X128690476Y-33154819D02*
X129309523Y-33154819D01*
X136359580Y-97126666D02*
X136407200Y-97174285D01*
X136407200Y-97174285D02*
X136454819Y-97317142D01*
X136454819Y-97317142D02*
X136454819Y-97412380D01*
X136454819Y-97412380D02*
X136407200Y-97555237D01*
X136407200Y-97555237D02*
X136311961Y-97650475D01*
X136311961Y-97650475D02*
X136216723Y-97698094D01*
X136216723Y-97698094D02*
X136026247Y-97745713D01*
X136026247Y-97745713D02*
X135883390Y-97745713D01*
X135883390Y-97745713D02*
X135692914Y-97698094D01*
X135692914Y-97698094D02*
X135597676Y-97650475D01*
X135597676Y-97650475D02*
X135502438Y-97555237D01*
X135502438Y-97555237D02*
X135454819Y-97412380D01*
X135454819Y-97412380D02*
X135454819Y-97317142D01*
X135454819Y-97317142D02*
X135502438Y-97174285D01*
X135502438Y-97174285D02*
X135550057Y-97126666D01*
X135788152Y-96269523D02*
X136454819Y-96269523D01*
X135407200Y-96507618D02*
X136121485Y-96745713D01*
X136121485Y-96745713D02*
X136121485Y-96126666D01*
X151550057Y-84825238D02*
X151502438Y-84920476D01*
X151502438Y-84920476D02*
X151407200Y-85015714D01*
X151407200Y-85015714D02*
X151264342Y-85158571D01*
X151264342Y-85158571D02*
X151216723Y-85253809D01*
X151216723Y-85253809D02*
X151216723Y-85349047D01*
X151454819Y-85301428D02*
X151407200Y-85396666D01*
X151407200Y-85396666D02*
X151311961Y-85491904D01*
X151311961Y-85491904D02*
X151121485Y-85539523D01*
X151121485Y-85539523D02*
X150788152Y-85539523D01*
X150788152Y-85539523D02*
X150597676Y-85491904D01*
X150597676Y-85491904D02*
X150502438Y-85396666D01*
X150502438Y-85396666D02*
X150454819Y-85301428D01*
X150454819Y-85301428D02*
X150454819Y-85110952D01*
X150454819Y-85110952D02*
X150502438Y-85015714D01*
X150502438Y-85015714D02*
X150597676Y-84920476D01*
X150597676Y-84920476D02*
X150788152Y-84872857D01*
X150788152Y-84872857D02*
X151121485Y-84872857D01*
X151121485Y-84872857D02*
X151311961Y-84920476D01*
X151311961Y-84920476D02*
X151407200Y-85015714D01*
X151407200Y-85015714D02*
X151454819Y-85110952D01*
X151454819Y-85110952D02*
X151454819Y-85301428D01*
X150550057Y-84491904D02*
X150502438Y-84444285D01*
X150502438Y-84444285D02*
X150454819Y-84349047D01*
X150454819Y-84349047D02*
X150454819Y-84110952D01*
X150454819Y-84110952D02*
X150502438Y-84015714D01*
X150502438Y-84015714D02*
X150550057Y-83968095D01*
X150550057Y-83968095D02*
X150645295Y-83920476D01*
X150645295Y-83920476D02*
X150740533Y-83920476D01*
X150740533Y-83920476D02*
X150883390Y-83968095D01*
X150883390Y-83968095D02*
X151454819Y-84539523D01*
X151454819Y-84539523D02*
X151454819Y-83920476D01*
X165666666Y-58344819D02*
X165666666Y-59059104D01*
X165666666Y-59059104D02*
X165619047Y-59201961D01*
X165619047Y-59201961D02*
X165523809Y-59297200D01*
X165523809Y-59297200D02*
X165380952Y-59344819D01*
X165380952Y-59344819D02*
X165285714Y-59344819D01*
X166047619Y-58344819D02*
X166666666Y-58344819D01*
X166666666Y-58344819D02*
X166333333Y-58725771D01*
X166333333Y-58725771D02*
X166476190Y-58725771D01*
X166476190Y-58725771D02*
X166571428Y-58773390D01*
X166571428Y-58773390D02*
X166619047Y-58821009D01*
X166619047Y-58821009D02*
X166666666Y-58916247D01*
X166666666Y-58916247D02*
X166666666Y-59154342D01*
X166666666Y-59154342D02*
X166619047Y-59249580D01*
X166619047Y-59249580D02*
X166571428Y-59297200D01*
X166571428Y-59297200D02*
X166476190Y-59344819D01*
X166476190Y-59344819D02*
X166190476Y-59344819D01*
X166190476Y-59344819D02*
X166095238Y-59297200D01*
X166095238Y-59297200D02*
X166047619Y-59249580D01*
D12*
%TO.C,R6*%
X165880000Y-67000000D02*
X166650000Y-67000000D01*
X173960000Y-67000000D02*
X173190000Y-67000000D01*
X166650000Y-65630000D02*
X173190000Y-65630000D01*
X173190000Y-68370000D01*
X166650000Y-68370000D01*
X166650000Y-65630000D01*
%TO.C,R5*%
X165880000Y-70500000D02*
X166650000Y-70500000D01*
X173960000Y-70500000D02*
X173190000Y-70500000D01*
X166650000Y-69130000D02*
X173190000Y-69130000D01*
X173190000Y-71870000D01*
X166650000Y-71870000D01*
X166650000Y-69130000D01*
%TO.C,R2*%
X165880000Y-74000000D02*
X166650000Y-74000000D01*
X173960000Y-74000000D02*
X173190000Y-74000000D01*
X166650000Y-72630000D02*
X173190000Y-72630000D01*
X173190000Y-75370000D01*
X166650000Y-75370000D01*
X166650000Y-72630000D01*
%TO.C,R1*%
X165880000Y-77500000D02*
X166650000Y-77500000D01*
X173960000Y-77500000D02*
X173190000Y-77500000D01*
X166650000Y-76130000D02*
X173190000Y-76130000D01*
X173190000Y-78870000D01*
X166650000Y-78870000D01*
X166650000Y-76130000D01*
%TO.C,R14*%
X125630000Y-50350000D02*
X128370000Y-50350000D01*
X128370000Y-43810000D01*
X125630000Y-43810000D01*
X125630000Y-50350000D01*
X127000000Y-51120000D02*
X127000000Y-50350000D01*
X127000000Y-43040000D02*
X127000000Y-43810000D01*
%TO.C,R13*%
X127150000Y-77630000D02*
X133690000Y-77630000D01*
X133690000Y-80370000D01*
X127150000Y-80370000D01*
X127150000Y-77630000D01*
X134460000Y-79000000D02*
X133690000Y-79000000D01*
X126380000Y-79000000D02*
X127150000Y-79000000D01*
D11*
%TO.C,SW2*%
X133000000Y-74500000D02*
G75*
G02*
X132000000Y-74500000I-500000J0D01*
G01*
X132000000Y-74500000D02*
G75*
G02*
X133000000Y-74500000I500000J0D01*
G01*
X133000000Y-70500000D02*
G75*
G02*
X132000000Y-70500000I-500000J0D01*
G01*
X132000000Y-70500000D02*
G75*
G02*
X133000000Y-70500000I500000J0D01*
G01*
X132000000Y-72500000D02*
G75*
G02*
X129000000Y-72500000I-1500000J0D01*
G01*
X129000000Y-72500000D02*
G75*
G02*
X132000000Y-72500000I1500000J0D01*
G01*
X129000000Y-74500000D02*
G75*
G02*
X128000000Y-74500000I-500000J0D01*
G01*
X128000000Y-74500000D02*
G75*
G02*
X129000000Y-74500000I500000J0D01*
G01*
X129000000Y-70500000D02*
G75*
G02*
X128000000Y-70500000I-500000J0D01*
G01*
X128000000Y-70500000D02*
G75*
G02*
X129000000Y-70500000I500000J0D01*
G01*
X133500000Y-75500000D02*
X127500000Y-75500000D01*
X127500000Y-69500000D01*
X133500000Y-69500000D01*
X133500000Y-75500000D01*
%TO.C,SW3*%
X133000000Y-65000000D02*
G75*
G02*
X132000000Y-65000000I-500000J0D01*
G01*
X132000000Y-65000000D02*
G75*
G02*
X133000000Y-65000000I500000J0D01*
G01*
X133000000Y-61000000D02*
G75*
G02*
X132000000Y-61000000I-500000J0D01*
G01*
X132000000Y-61000000D02*
G75*
G02*
X133000000Y-61000000I500000J0D01*
G01*
X132000000Y-63000000D02*
G75*
G02*
X129000000Y-63000000I-1500000J0D01*
G01*
X129000000Y-63000000D02*
G75*
G02*
X132000000Y-63000000I1500000J0D01*
G01*
X129000000Y-65000000D02*
G75*
G02*
X128000000Y-65000000I-500000J0D01*
G01*
X128000000Y-65000000D02*
G75*
G02*
X129000000Y-65000000I500000J0D01*
G01*
X129000000Y-61000000D02*
G75*
G02*
X128000000Y-61000000I-500000J0D01*
G01*
X128000000Y-61000000D02*
G75*
G02*
X129000000Y-61000000I500000J0D01*
G01*
X133500000Y-66000000D02*
X127500000Y-66000000D01*
X127500000Y-60000000D01*
X133500000Y-60000000D01*
X133500000Y-66000000D01*
D12*
%TO.C,D1*%
X163080000Y-93594000D02*
X164920000Y-93594000D01*
X163080000Y-93714000D02*
X164920000Y-93714000D01*
X163080000Y-93834000D02*
X164920000Y-93834000D01*
X164000000Y-89830000D02*
X164000000Y-91010000D01*
X164000000Y-95470000D02*
X164000000Y-94290000D01*
X163080000Y-94290000D02*
X164920000Y-94290000D01*
X164920000Y-91010000D01*
X163080000Y-91010000D01*
X163080000Y-94290000D01*
%TO.C,R4*%
X131500000Y-43040000D02*
X131500000Y-43810000D01*
X131500000Y-51120000D02*
X131500000Y-50350000D01*
X132870000Y-43810000D02*
X130130000Y-43810000D01*
X130130000Y-50350000D01*
X132870000Y-50350000D01*
X132870000Y-43810000D01*
%TO.C,C6*%
X165420000Y-45710000D02*
X173580000Y-45710000D01*
X165420000Y-45750000D02*
X173580000Y-45750000D01*
X165421000Y-45670000D02*
X173579000Y-45670000D01*
X165422000Y-45630000D02*
X173578000Y-45630000D01*
X165423000Y-45590000D02*
X173577000Y-45590000D01*
X165425000Y-45550000D02*
X173575000Y-45550000D01*
X165427000Y-45510000D02*
X173573000Y-45510000D01*
X165430000Y-45470000D02*
X173570000Y-45470000D01*
X165432000Y-45430000D02*
X173568000Y-45430000D01*
X165436000Y-45390000D02*
X173564000Y-45390000D01*
X165439000Y-45350000D02*
X173561000Y-45350000D01*
X165444000Y-45310000D02*
X173556000Y-45310000D01*
X165448000Y-45270000D02*
X173552000Y-45270000D01*
X165453000Y-45230000D02*
X173547000Y-45230000D01*
X165458000Y-45190000D02*
X173542000Y-45190000D01*
X165464000Y-45150000D02*
X173536000Y-45150000D01*
X165470000Y-45110000D02*
X173530000Y-45110000D01*
X165477000Y-45070000D02*
X173523000Y-45070000D01*
X165483000Y-45030000D02*
X168460000Y-45030000D01*
X165491000Y-44990000D02*
X168460000Y-44990000D01*
X165498000Y-44950000D02*
X168460000Y-44950000D01*
X165507000Y-44910000D02*
X168460000Y-44910000D01*
X165515000Y-44870000D02*
X168460000Y-44870000D01*
X165524000Y-44830000D02*
X168460000Y-44830000D01*
X165533000Y-44790000D02*
X168460000Y-44790000D01*
X165543000Y-44750000D02*
X168460000Y-44750000D01*
X165553000Y-44710000D02*
X168460000Y-44710000D01*
X165564000Y-44670000D02*
X168460000Y-44670000D01*
X165575000Y-44630000D02*
X168460000Y-44630000D01*
X165587000Y-44590000D02*
X168460000Y-44590000D01*
X165599000Y-44550000D02*
X168460000Y-44550000D01*
X165611000Y-44510000D02*
X168460000Y-44510000D01*
X165624000Y-44470000D02*
X168460000Y-44470000D01*
X165637000Y-44430000D02*
X168460000Y-44430000D01*
X165651000Y-44390000D02*
X168460000Y-44390000D01*
X165665000Y-44350000D02*
X168460000Y-44350000D01*
X165680000Y-44310000D02*
X168460000Y-44310000D01*
X165695000Y-44270000D02*
X168460000Y-44270000D01*
X165711000Y-44230000D02*
X168460000Y-44230000D01*
X165727000Y-44190000D02*
X168460000Y-44190000D01*
X165743000Y-44150000D02*
X168460000Y-44150000D01*
X165760000Y-44110000D02*
X168460000Y-44110000D01*
X165778000Y-44070000D02*
X168460000Y-44070000D01*
X165796000Y-44030000D02*
X168460000Y-44030000D01*
X165815000Y-43990000D02*
X168460000Y-43990000D01*
X165834000Y-43950000D02*
X168460000Y-43950000D01*
X165854000Y-43910000D02*
X168460000Y-43910000D01*
X165874000Y-43870000D02*
X168460000Y-43870000D01*
X165895000Y-43830000D02*
X168460000Y-43830000D01*
X165916000Y-43790000D02*
X168460000Y-43790000D01*
X165938000Y-43750000D02*
X168460000Y-43750000D01*
X165961000Y-43710000D02*
X168460000Y-43710000D01*
X165984000Y-43670000D02*
X168460000Y-43670000D01*
X166007000Y-43630000D02*
X168460000Y-43630000D01*
X166032000Y-43590000D02*
X168460000Y-43590000D01*
X166057000Y-43550000D02*
X168460000Y-43550000D01*
X166082000Y-43510000D02*
X168460000Y-43510000D01*
X166108000Y-43470000D02*
X168460000Y-43470000D01*
X166135000Y-43430000D02*
X168460000Y-43430000D01*
X166163000Y-43390000D02*
X168460000Y-43390000D01*
X166191000Y-43350000D02*
X168460000Y-43350000D01*
X166220000Y-43310000D02*
X168460000Y-43310000D01*
X166250000Y-43270000D02*
X168460000Y-43270000D01*
X166281000Y-43230000D02*
X168460000Y-43230000D01*
X166312000Y-43190000D02*
X168460000Y-43190000D01*
X166344000Y-43150000D02*
X168460000Y-43150000D01*
X166377000Y-43110000D02*
X168460000Y-43110000D01*
X166411000Y-43070000D02*
X168460000Y-43070000D01*
X166445000Y-43030000D02*
X168460000Y-43030000D01*
X166481000Y-42990000D02*
X168460000Y-42990000D01*
X166518000Y-42950000D02*
X172482000Y-42950000D01*
X166555000Y-42910000D02*
X172445000Y-42910000D01*
X166594000Y-42870000D02*
X172406000Y-42870000D01*
X166633000Y-42830000D02*
X172367000Y-42830000D01*
X166674000Y-42790000D02*
X172326000Y-42790000D01*
X166716000Y-42750000D02*
X172284000Y-42750000D01*
X166759000Y-42710000D02*
X172241000Y-42710000D01*
X166785000Y-49759698D02*
X167585000Y-49759698D01*
X166804000Y-42670000D02*
X172196000Y-42670000D01*
X166849000Y-42630000D02*
X172151000Y-42630000D01*
X166896000Y-42590000D02*
X172104000Y-42590000D01*
X166945000Y-42550000D02*
X172055000Y-42550000D01*
X166995000Y-42510000D02*
X172005000Y-42510000D01*
X167047000Y-42470000D02*
X171953000Y-42470000D01*
X167100000Y-42430000D02*
X171900000Y-42430000D01*
X167156000Y-42390000D02*
X171844000Y-42390000D01*
X167185000Y-50159698D02*
X167185000Y-49359698D01*
X167213000Y-42350000D02*
X171787000Y-42350000D01*
X167273000Y-42310000D02*
X171727000Y-42310000D01*
X167335000Y-42270000D02*
X171665000Y-42270000D01*
X167399000Y-42230000D02*
X171601000Y-42230000D01*
X167466000Y-42190000D02*
X171534000Y-42190000D01*
X167536000Y-42150000D02*
X171464000Y-42150000D01*
X167610000Y-42110000D02*
X171390000Y-42110000D01*
X167687000Y-42070000D02*
X171313000Y-42070000D01*
X167769000Y-42030000D02*
X171231000Y-42030000D01*
X167856000Y-41990000D02*
X171144000Y-41990000D01*
X167948000Y-41950000D02*
X171052000Y-41950000D01*
X168047000Y-41910000D02*
X170953000Y-41910000D01*
X168154000Y-41870000D02*
X170846000Y-41870000D01*
X168272000Y-41830000D02*
X170728000Y-41830000D01*
X168403000Y-41790000D02*
X170597000Y-41790000D01*
X168553000Y-41750000D02*
X170447000Y-41750000D01*
X168732000Y-41710000D02*
X170268000Y-41710000D01*
X168967000Y-41670000D02*
X170033000Y-41670000D01*
X170540000Y-42990000D02*
X172519000Y-42990000D01*
X170540000Y-43030000D02*
X172555000Y-43030000D01*
X170540000Y-43070000D02*
X172589000Y-43070000D01*
X170540000Y-43110000D02*
X172623000Y-43110000D01*
X170540000Y-43150000D02*
X172656000Y-43150000D01*
X170540000Y-43190000D02*
X172688000Y-43190000D01*
X170540000Y-43230000D02*
X172719000Y-43230000D01*
X170540000Y-43270000D02*
X172750000Y-43270000D01*
X170540000Y-43310000D02*
X172780000Y-43310000D01*
X170540000Y-43350000D02*
X172809000Y-43350000D01*
X170540000Y-43390000D02*
X172837000Y-43390000D01*
X170540000Y-43430000D02*
X172865000Y-43430000D01*
X170540000Y-43470000D02*
X172892000Y-43470000D01*
X170540000Y-43510000D02*
X172918000Y-43510000D01*
X170540000Y-43550000D02*
X172943000Y-43550000D01*
X170540000Y-43590000D02*
X172968000Y-43590000D01*
X170540000Y-43630000D02*
X172993000Y-43630000D01*
X170540000Y-43670000D02*
X173016000Y-43670000D01*
X170540000Y-43710000D02*
X173039000Y-43710000D01*
X170540000Y-43750000D02*
X173062000Y-43750000D01*
X170540000Y-43790000D02*
X173084000Y-43790000D01*
X170540000Y-43830000D02*
X173105000Y-43830000D01*
X170540000Y-43870000D02*
X173126000Y-43870000D01*
X170540000Y-43910000D02*
X173146000Y-43910000D01*
X170540000Y-43950000D02*
X173166000Y-43950000D01*
X170540000Y-43990000D02*
X173185000Y-43990000D01*
X170540000Y-44030000D02*
X173204000Y-44030000D01*
X170540000Y-44070000D02*
X173222000Y-44070000D01*
X170540000Y-44110000D02*
X173240000Y-44110000D01*
X170540000Y-44150000D02*
X173257000Y-44150000D01*
X170540000Y-44190000D02*
X173273000Y-44190000D01*
X170540000Y-44230000D02*
X173289000Y-44230000D01*
X170540000Y-44270000D02*
X173305000Y-44270000D01*
X170540000Y-44310000D02*
X173320000Y-44310000D01*
X170540000Y-44350000D02*
X173335000Y-44350000D01*
X170540000Y-44390000D02*
X173349000Y-44390000D01*
X170540000Y-44430000D02*
X173363000Y-44430000D01*
X170540000Y-44470000D02*
X173376000Y-44470000D01*
X170540000Y-44510000D02*
X173389000Y-44510000D01*
X170540000Y-44550000D02*
X173401000Y-44550000D01*
X170540000Y-44590000D02*
X173413000Y-44590000D01*
X170540000Y-44630000D02*
X173425000Y-44630000D01*
X170540000Y-44670000D02*
X173436000Y-44670000D01*
X170540000Y-44710000D02*
X173447000Y-44710000D01*
X170540000Y-44750000D02*
X173457000Y-44750000D01*
X170540000Y-44790000D02*
X173467000Y-44790000D01*
X170540000Y-44830000D02*
X173476000Y-44830000D01*
X170540000Y-44870000D02*
X173485000Y-44870000D01*
X170540000Y-44910000D02*
X173493000Y-44910000D01*
X170540000Y-44950000D02*
X173502000Y-44950000D01*
X170540000Y-44990000D02*
X173509000Y-44990000D01*
X170540000Y-45030000D02*
X173517000Y-45030000D01*
X173620000Y-45750000D02*
G75*
G02*
X165380000Y-45750000I-4120000J0D01*
G01*
X165380000Y-45750000D02*
G75*
G02*
X173620000Y-45750000I4120000J0D01*
G01*
%TO.C,R3*%
X136000000Y-43040000D02*
X136000000Y-43810000D01*
X136000000Y-51120000D02*
X136000000Y-50350000D01*
X137370000Y-43810000D02*
X134630000Y-43810000D01*
X134630000Y-50350000D01*
X137370000Y-50350000D01*
X137370000Y-43810000D01*
%TO.C,C1*%
X158930000Y-94730000D02*
X158930000Y-90190000D01*
X158986000Y-94730000D02*
X158930000Y-94730000D01*
X161014000Y-90190000D02*
X161070000Y-90190000D01*
X161070000Y-90190000D02*
X161070000Y-94730000D01*
%TO.C,C5*%
X133659698Y-95315000D02*
X132859698Y-95315000D01*
X133259698Y-95715000D02*
X133259698Y-94915000D01*
X129250000Y-97080000D02*
X129250000Y-88920000D01*
X129210000Y-97080000D02*
X129210000Y-88920000D01*
X129170000Y-97079000D02*
X129170000Y-88921000D01*
X129130000Y-97078000D02*
X129130000Y-88922000D01*
X129090000Y-97077000D02*
X129090000Y-88923000D01*
X129050000Y-97075000D02*
X129050000Y-88925000D01*
X129010000Y-97073000D02*
X129010000Y-88927000D01*
X128970000Y-97070000D02*
X128970000Y-88930000D01*
X128930000Y-97068000D02*
X128930000Y-88932000D01*
X128890000Y-97064000D02*
X128890000Y-88936000D01*
X128850000Y-97061000D02*
X128850000Y-88939000D01*
X128810000Y-97056000D02*
X128810000Y-88944000D01*
X128770000Y-97052000D02*
X128770000Y-88948000D01*
X128730000Y-97047000D02*
X128730000Y-88953000D01*
X128690000Y-97042000D02*
X128690000Y-88958000D01*
X128650000Y-97036000D02*
X128650000Y-88964000D01*
X128610000Y-97030000D02*
X128610000Y-88970000D01*
X128570000Y-97023000D02*
X128570000Y-88977000D01*
X128530000Y-97017000D02*
X128530000Y-94040000D01*
X128530000Y-91960000D02*
X128530000Y-88983000D01*
X128490000Y-97009000D02*
X128490000Y-94040000D01*
X128490000Y-91960000D02*
X128490000Y-88991000D01*
X128450000Y-97002000D02*
X128450000Y-94040000D01*
X128450000Y-91960000D02*
X128450000Y-88998000D01*
X128410000Y-96993000D02*
X128410000Y-94040000D01*
X128410000Y-91960000D02*
X128410000Y-89007000D01*
X128370000Y-96985000D02*
X128370000Y-94040000D01*
X128370000Y-91960000D02*
X128370000Y-89015000D01*
X128330000Y-96976000D02*
X128330000Y-94040000D01*
X128330000Y-91960000D02*
X128330000Y-89024000D01*
X128290000Y-96967000D02*
X128290000Y-94040000D01*
X128290000Y-91960000D02*
X128290000Y-89033000D01*
X128250000Y-96957000D02*
X128250000Y-94040000D01*
X128250000Y-91960000D02*
X128250000Y-89043000D01*
X128210000Y-96947000D02*
X128210000Y-94040000D01*
X128210000Y-91960000D02*
X128210000Y-89053000D01*
X128170000Y-96936000D02*
X128170000Y-94040000D01*
X128170000Y-91960000D02*
X128170000Y-89064000D01*
X128130000Y-96925000D02*
X128130000Y-94040000D01*
X128130000Y-91960000D02*
X128130000Y-89075000D01*
X128090000Y-96913000D02*
X128090000Y-94040000D01*
X128090000Y-91960000D02*
X128090000Y-89087000D01*
X128050000Y-96901000D02*
X128050000Y-94040000D01*
X128050000Y-91960000D02*
X128050000Y-89099000D01*
X128010000Y-96889000D02*
X128010000Y-94040000D01*
X128010000Y-91960000D02*
X128010000Y-89111000D01*
X127970000Y-96876000D02*
X127970000Y-94040000D01*
X127970000Y-91960000D02*
X127970000Y-89124000D01*
X127930000Y-96863000D02*
X127930000Y-94040000D01*
X127930000Y-91960000D02*
X127930000Y-89137000D01*
X127890000Y-96849000D02*
X127890000Y-94040000D01*
X127890000Y-91960000D02*
X127890000Y-89151000D01*
X127850000Y-96835000D02*
X127850000Y-94040000D01*
X127850000Y-91960000D02*
X127850000Y-89165000D01*
X127810000Y-96820000D02*
X127810000Y-94040000D01*
X127810000Y-91960000D02*
X127810000Y-89180000D01*
X127770000Y-96805000D02*
X127770000Y-94040000D01*
X127770000Y-91960000D02*
X127770000Y-89195000D01*
X127730000Y-96789000D02*
X127730000Y-94040000D01*
X127730000Y-91960000D02*
X127730000Y-89211000D01*
X127690000Y-96773000D02*
X127690000Y-94040000D01*
X127690000Y-91960000D02*
X127690000Y-89227000D01*
X127650000Y-96757000D02*
X127650000Y-94040000D01*
X127650000Y-91960000D02*
X127650000Y-89243000D01*
X127610000Y-96740000D02*
X127610000Y-94040000D01*
X127610000Y-91960000D02*
X127610000Y-89260000D01*
X127570000Y-96722000D02*
X127570000Y-94040000D01*
X127570000Y-91960000D02*
X127570000Y-89278000D01*
X127530000Y-96704000D02*
X127530000Y-94040000D01*
X127530000Y-91960000D02*
X127530000Y-89296000D01*
X127490000Y-96685000D02*
X127490000Y-94040000D01*
X127490000Y-91960000D02*
X127490000Y-89315000D01*
X127450000Y-96666000D02*
X127450000Y-94040000D01*
X127450000Y-91960000D02*
X127450000Y-89334000D01*
X127410000Y-96646000D02*
X127410000Y-94040000D01*
X127410000Y-91960000D02*
X127410000Y-89354000D01*
X127370000Y-96626000D02*
X127370000Y-94040000D01*
X127370000Y-91960000D02*
X127370000Y-89374000D01*
X127330000Y-96605000D02*
X127330000Y-94040000D01*
X127330000Y-91960000D02*
X127330000Y-89395000D01*
X127290000Y-96584000D02*
X127290000Y-94040000D01*
X127290000Y-91960000D02*
X127290000Y-89416000D01*
X127250000Y-96562000D02*
X127250000Y-94040000D01*
X127250000Y-91960000D02*
X127250000Y-89438000D01*
X127210000Y-96539000D02*
X127210000Y-94040000D01*
X127210000Y-91960000D02*
X127210000Y-89461000D01*
X127170000Y-96516000D02*
X127170000Y-94040000D01*
X127170000Y-91960000D02*
X127170000Y-89484000D01*
X127130000Y-96493000D02*
X127130000Y-94040000D01*
X127130000Y-91960000D02*
X127130000Y-89507000D01*
X127090000Y-96468000D02*
X127090000Y-94040000D01*
X127090000Y-91960000D02*
X127090000Y-89532000D01*
X127050000Y-96443000D02*
X127050000Y-94040000D01*
X127050000Y-91960000D02*
X127050000Y-89557000D01*
X127010000Y-96418000D02*
X127010000Y-94040000D01*
X127010000Y-91960000D02*
X127010000Y-89582000D01*
X126970000Y-96392000D02*
X126970000Y-94040000D01*
X126970000Y-91960000D02*
X126970000Y-89608000D01*
X126930000Y-96365000D02*
X126930000Y-94040000D01*
X126930000Y-91960000D02*
X126930000Y-89635000D01*
X126890000Y-96337000D02*
X126890000Y-94040000D01*
X126890000Y-91960000D02*
X126890000Y-89663000D01*
X126850000Y-96309000D02*
X126850000Y-94040000D01*
X126850000Y-91960000D02*
X126850000Y-89691000D01*
X126810000Y-96280000D02*
X126810000Y-94040000D01*
X126810000Y-91960000D02*
X126810000Y-89720000D01*
X126770000Y-96250000D02*
X126770000Y-94040000D01*
X126770000Y-91960000D02*
X126770000Y-89750000D01*
X126730000Y-96219000D02*
X126730000Y-94040000D01*
X126730000Y-91960000D02*
X126730000Y-89781000D01*
X126690000Y-96188000D02*
X126690000Y-94040000D01*
X126690000Y-91960000D02*
X126690000Y-89812000D01*
X126650000Y-96156000D02*
X126650000Y-94040000D01*
X126650000Y-91960000D02*
X126650000Y-89844000D01*
X126610000Y-96123000D02*
X126610000Y-94040000D01*
X126610000Y-91960000D02*
X126610000Y-89877000D01*
X126570000Y-96089000D02*
X126570000Y-94040000D01*
X126570000Y-91960000D02*
X126570000Y-89911000D01*
X126530000Y-96055000D02*
X126530000Y-94040000D01*
X126530000Y-91960000D02*
X126530000Y-89945000D01*
X126490000Y-96019000D02*
X126490000Y-94040000D01*
X126490000Y-91960000D02*
X126490000Y-89981000D01*
X126450000Y-95982000D02*
X126450000Y-90018000D01*
X126410000Y-95945000D02*
X126410000Y-90055000D01*
X126370000Y-95906000D02*
X126370000Y-90094000D01*
X126330000Y-95867000D02*
X126330000Y-90133000D01*
X126290000Y-95826000D02*
X126290000Y-90174000D01*
X126250000Y-95784000D02*
X126250000Y-90216000D01*
X126210000Y-95741000D02*
X126210000Y-90259000D01*
X126170000Y-95696000D02*
X126170000Y-90304000D01*
X126130000Y-95651000D02*
X126130000Y-90349000D01*
X126090000Y-95604000D02*
X126090000Y-90396000D01*
X126050000Y-95555000D02*
X126050000Y-90445000D01*
X126010000Y-95505000D02*
X126010000Y-90495000D01*
X125970000Y-95453000D02*
X125970000Y-90547000D01*
X125930000Y-95400000D02*
X125930000Y-90600000D01*
X125890000Y-95344000D02*
X125890000Y-90656000D01*
X125850000Y-95287000D02*
X125850000Y-90713000D01*
X125810000Y-95227000D02*
X125810000Y-90773000D01*
X125770000Y-95165000D02*
X125770000Y-90835000D01*
X125730000Y-95101000D02*
X125730000Y-90899000D01*
X125690000Y-95034000D02*
X125690000Y-90966000D01*
X125650000Y-94964000D02*
X125650000Y-91036000D01*
X125610000Y-94890000D02*
X125610000Y-91110000D01*
X125570000Y-94813000D02*
X125570000Y-91187000D01*
X125530000Y-94731000D02*
X125530000Y-91269000D01*
X125490000Y-94644000D02*
X125490000Y-91356000D01*
X125450000Y-94552000D02*
X125450000Y-91448000D01*
X125410000Y-94453000D02*
X125410000Y-91547000D01*
X125370000Y-94346000D02*
X125370000Y-91654000D01*
X125330000Y-94228000D02*
X125330000Y-91772000D01*
X125290000Y-94097000D02*
X125290000Y-91903000D01*
X125250000Y-93947000D02*
X125250000Y-92053000D01*
X125210000Y-93768000D02*
X125210000Y-92232000D01*
X125170000Y-93533000D02*
X125170000Y-92467000D01*
X133370000Y-93000000D02*
G75*
G02*
X125130000Y-93000000I-4120000J0D01*
G01*
X125130000Y-93000000D02*
G75*
G02*
X133370000Y-93000000I4120000J0D01*
G01*
%TO.C,D4*%
X139130000Y-93594000D02*
X140970000Y-93594000D01*
X139130000Y-93714000D02*
X140970000Y-93714000D01*
X139130000Y-93834000D02*
X140970000Y-93834000D01*
X140050000Y-89830000D02*
X140050000Y-91010000D01*
X140050000Y-95470000D02*
X140050000Y-94290000D01*
X139130000Y-94290000D02*
X140970000Y-94290000D01*
X140970000Y-91010000D01*
X139130000Y-91010000D01*
X139130000Y-94290000D01*
%TO.C,Q1*%
X164150000Y-86290000D02*
X164150000Y-82440000D01*
X164150000Y-86290000D02*
G75*
G02*
X164140122Y-82401389I-1700000J1940000D01*
G01*
%TO.C,Q4*%
X140150000Y-86290000D02*
X140150000Y-82440000D01*
X140150000Y-86290000D02*
G75*
G02*
X140140122Y-82401389I-1700000J1940000D01*
G01*
%TO.C,D2*%
X155130000Y-93594000D02*
X156970000Y-93594000D01*
X155130000Y-93714000D02*
X156970000Y-93714000D01*
X155130000Y-93834000D02*
X156970000Y-93834000D01*
X156050000Y-89830000D02*
X156050000Y-91010000D01*
X156050000Y-95470000D02*
X156050000Y-94290000D01*
X155130000Y-94290000D02*
X156970000Y-94290000D01*
X156970000Y-91010000D01*
X155130000Y-91010000D01*
X155130000Y-94290000D01*
%TO.C,J2*%
X130345000Y-57380000D02*
X130345000Y-56000000D01*
X131725000Y-57380000D02*
X130345000Y-57380000D01*
X132995000Y-54620000D02*
X135645000Y-54620000D01*
X132995000Y-57380000D02*
X132995000Y-54620000D01*
X132995000Y-57380000D02*
X135645000Y-57380000D01*
X135645000Y-57380000D02*
X135645000Y-54620000D01*
%TO.C,Q3*%
X148150000Y-86290000D02*
X148150000Y-82440000D01*
X148150000Y-86290000D02*
G75*
G02*
X148140122Y-82401389I-1700000J1940000D01*
G01*
%TO.C,C3*%
X142930000Y-94730000D02*
X142930000Y-90190000D01*
X142986000Y-94730000D02*
X142930000Y-94730000D01*
X145014000Y-90190000D02*
X145070000Y-90190000D01*
X145070000Y-90190000D02*
X145070000Y-94730000D01*
%TO.C,J1*%
X143540000Y-103880000D02*
X143540000Y-102500000D01*
X144920000Y-103880000D02*
X143540000Y-103880000D01*
X146190000Y-101120000D02*
X156460000Y-101120000D01*
X146190000Y-103880000D02*
X146190000Y-101120000D01*
X146190000Y-103880000D02*
X156460000Y-103880000D01*
X156460000Y-103880000D02*
X156460000Y-101120000D01*
%TO.C,M1*%
X143227821Y-52599547D02*
X156627821Y-52599547D01*
X145927821Y-30399547D02*
X153927821Y-30399547D01*
X145927821Y-31599547D02*
X143327821Y-31599547D01*
X145927821Y-31599547D02*
X145927821Y-30399547D01*
X153927821Y-30399547D02*
X153927821Y-31599547D01*
X156527821Y-31599547D02*
X153927821Y-31599547D01*
X141114929Y-33094867D02*
G75*
G02*
X143327353Y-31599548I2135279J-774913D01*
G01*
X143227821Y-52599547D02*
G75*
G02*
X141127821Y-51099547I74105J2323747D01*
G01*
X156527821Y-31599548D02*
G75*
G02*
X158731851Y-33098085I64720J-2274909D01*
G01*
X158727821Y-51099547D02*
G75*
G02*
X156627821Y-52599550I-2174110J823750D01*
G01*
%TO.C,J4*%
D11*
X137000000Y-58000000D02*
X163000000Y-58000000D01*
X163000000Y-77000000D01*
X137000000Y-77000000D01*
X137000000Y-58000000D01*
X142500000Y-77000000D02*
X157500000Y-77000000D01*
X157500000Y-80500000D01*
X142500000Y-80500000D01*
X142500000Y-77000000D01*
D12*
%TO.C,D3*%
X147080000Y-93594000D02*
X148920000Y-93594000D01*
X147080000Y-93714000D02*
X148920000Y-93714000D01*
X147080000Y-93834000D02*
X148920000Y-93834000D01*
X148000000Y-89830000D02*
X148000000Y-91010000D01*
X148000000Y-95470000D02*
X148000000Y-94290000D01*
X147080000Y-94290000D02*
X148920000Y-94290000D01*
X148920000Y-91010000D01*
X147080000Y-91010000D01*
X147080000Y-94290000D01*
D11*
%TO.C,SW1*%
X169050000Y-56010000D02*
X171500000Y-56010000D01*
X169050000Y-64220000D02*
X169050000Y-56010000D01*
X169050000Y-64220000D02*
X171500000Y-64220000D01*
X175950000Y-56000000D02*
X173500000Y-56000000D01*
X175950000Y-64220000D02*
X173500000Y-64220000D01*
X175950000Y-64220000D02*
X175950000Y-56000000D01*
D12*
%TO.C,C2*%
X150930000Y-94730000D02*
X150930000Y-90190000D01*
X150986000Y-94730000D02*
X150930000Y-94730000D01*
X153014000Y-90190000D02*
X153070000Y-90190000D01*
X153070000Y-90190000D02*
X153070000Y-94730000D01*
%TO.C,J5*%
X164890000Y-52390000D02*
X166000000Y-52390000D01*
X164890000Y-53500000D02*
X164890000Y-52390000D01*
X164890000Y-54500000D02*
X164890000Y-56610000D01*
X164890000Y-54500000D02*
X167110000Y-54500000D01*
X164890000Y-56610000D02*
X167110000Y-56610000D01*
X167110000Y-54500000D02*
X167110000Y-56610000D01*
%TO.C,C4*%
X134930000Y-94730000D02*
X134930000Y-90190000D01*
X134986000Y-94730000D02*
X134930000Y-94730000D01*
X137014000Y-90190000D02*
X137070000Y-90190000D01*
X137070000Y-90190000D02*
X137070000Y-94730000D01*
%TO.C,Q2*%
X156150000Y-86290000D02*
X156150000Y-82440000D01*
X156150000Y-86290000D02*
G75*
G02*
X156140122Y-82401389I-1700000J1940000D01*
G01*
%TO.C,J3*%
X164890000Y-59890000D02*
X166000000Y-59890000D01*
X164890000Y-61000000D02*
X164890000Y-59890000D01*
X164890000Y-62000000D02*
X164890000Y-64110000D01*
X164890000Y-62000000D02*
X167110000Y-62000000D01*
X164890000Y-64110000D02*
X167110000Y-64110000D01*
X167110000Y-62000000D02*
X167110000Y-64110000D01*
%TD*%
M02*
