%TF.GenerationSoftware,KiCad,Pcbnew,9.0.8-9.0.8~ubuntu24.04.1*%
%TF.CreationDate,2026-05-06T20:02:43+02:00*%
%TF.ProjectId,viva,76697661-2e6b-4696-9361-645f70636258,rev?*%
%TF.SameCoordinates,Original*%
%TF.FileFunction,Copper,L1,Top*%
%TF.FilePolarity,Positive*%
%FSLAX46Y46*%
G04 Gerber Fmt 4.6, Leading zero omitted, Abs format (unit mm)*
G04 Created by KiCad (PCBNEW 9.0.8-9.0.8~ubuntu24.04.1) date 2026-05-06 20:02:43*
%MOMM*%
%LPD*%
G01*
G04 APERTURE LIST*
G04 Aperture macros list*
%AMRoundRect*
0 Rectangle with rounded corners*
0 $1 Rounding radius*
0 $2 $3 $4 $5 $6 $7 $8 $9 X,Y pos of 4 corners*
0 Add a 4 corners polygon primitive as box body*
4,1,4,$2,$3,$4,$5,$6,$7,$8,$9,$2,$3,0*
0 Add four circle primitives for the rounded corners*
1,1,$1+$1,$2,$3*
1,1,$1+$1,$4,$5*
1,1,$1+$1,$6,$7*
1,1,$1+$1,$8,$9*
0 Add four rect primitives between the rounded corners*
20,1,$1+$1,$2,$3,$4,$5,0*
20,1,$1+$1,$4,$5,$6,$7,0*
20,1,$1+$1,$6,$7,$8,$9,0*
20,1,$1+$1,$8,$9,$2,$3,0*%
G04 Aperture macros list end*
%ADD10C,0.200000*%
%TA.AperFunction,NonConductor*%
%ADD11C,0.200000*%
%TD*%
%TA.AperFunction,ComponentPad*%
%ADD12C,1.600000*%
%TD*%
%TA.AperFunction,ComponentPad*%
%ADD13C,1.400000*%
%TD*%
%TA.AperFunction,ComponentPad*%
%ADD14RoundRect,0.250001X0.499999X-0.499999X0.499999X0.499999X-0.499999X0.499999X-0.499999X-0.499999X0*%
%TD*%
%TA.AperFunction,ComponentPad*%
%ADD15C,1.500000*%
%TD*%
%TA.AperFunction,ComponentPad*%
%ADD16C,5.700000*%
%TD*%
%TA.AperFunction,ComponentPad*%
%ADD17RoundRect,0.250000X0.550000X-0.550000X0.550000X0.550000X-0.550000X0.550000X-0.550000X-0.550000X0*%
%TD*%
%TA.AperFunction,ComponentPad*%
%ADD18RoundRect,0.250000X0.550000X0.550000X-0.550000X0.550000X-0.550000X-0.550000X0.550000X-0.550000X0*%
%TD*%
%TA.AperFunction,ComponentPad*%
%ADD19R,1.500000X1.050000*%
%TD*%
%TA.AperFunction,ComponentPad*%
%ADD20O,1.500000X1.050000*%
%TD*%
%TA.AperFunction,ComponentPad*%
%ADD21R,1.700000X1.700000*%
%TD*%
%TA.AperFunction,ComponentPad*%
%ADD22C,1.700000*%
%TD*%
%TA.AperFunction,ComponentPad*%
%ADD23C,2.000000*%
%TD*%
%TA.AperFunction,SMDPad,CuDef*%
%ADD24RoundRect,0.250000X-0.900000X-0.400000X0.900000X-0.400000X0.900000X0.400000X-0.900000X0.400000X0*%
%TD*%
%TA.AperFunction,ComponentPad*%
%ADD25C,2.400000*%
%TD*%
%TA.AperFunction,ComponentPad*%
%ADD26C,1.900000*%
%TD*%
%TA.AperFunction,ComponentPad*%
%ADD27R,1.350000X1.350000*%
%TD*%
%TA.AperFunction,ComponentPad*%
%ADD28C,1.350000*%
%TD*%
%TA.AperFunction,ViaPad*%
%ADD29C,0.600000*%
%TD*%
%TA.AperFunction,Conductor*%
%ADD30C,0.200000*%
%TD*%
G04 APERTURE END LIST*
D10*
D11*
X159707768Y-101803740D02*
X159974435Y-102603740D01*
X159974435Y-102603740D02*
X160241101Y-101803740D01*
X160507768Y-102603740D02*
X160507768Y-102070406D01*
X160507768Y-101803740D02*
X160469672Y-101841835D01*
X160469672Y-101841835D02*
X160507768Y-101879930D01*
X160507768Y-101879930D02*
X160545863Y-101841835D01*
X160545863Y-101841835D02*
X160507768Y-101803740D01*
X160507768Y-101803740D02*
X160507768Y-101879930D01*
X160812529Y-102070406D02*
X161003005Y-102603740D01*
X161003005Y-102603740D02*
X161193482Y-102070406D01*
X161841101Y-102603740D02*
X161841101Y-102184692D01*
X161841101Y-102184692D02*
X161803006Y-102108502D01*
X161803006Y-102108502D02*
X161726815Y-102070406D01*
X161726815Y-102070406D02*
X161574434Y-102070406D01*
X161574434Y-102070406D02*
X161498244Y-102108502D01*
X161841101Y-102565645D02*
X161764910Y-102603740D01*
X161764910Y-102603740D02*
X161574434Y-102603740D01*
X161574434Y-102603740D02*
X161498244Y-102565645D01*
X161498244Y-102565645D02*
X161460148Y-102489454D01*
X161460148Y-102489454D02*
X161460148Y-102413264D01*
X161460148Y-102413264D02*
X161498244Y-102337073D01*
X161498244Y-102337073D02*
X161574434Y-102298978D01*
X161574434Y-102298978D02*
X161764910Y-102298978D01*
X161764910Y-102298978D02*
X161841101Y-102260883D01*
X162755387Y-102070406D02*
X162945863Y-102603740D01*
X162945863Y-102603740D02*
X163136340Y-102070406D01*
X163860149Y-102603740D02*
X163403006Y-102603740D01*
X163631578Y-102603740D02*
X163631578Y-101803740D01*
X163631578Y-101803740D02*
X163555387Y-101918025D01*
X163555387Y-101918025D02*
X163479197Y-101994216D01*
X163479197Y-101994216D02*
X163403006Y-102032311D01*
X159974435Y-103091695D02*
X160050625Y-103091695D01*
X160050625Y-103091695D02*
X160126816Y-103129790D01*
X160126816Y-103129790D02*
X160164911Y-103167885D01*
X160164911Y-103167885D02*
X160203006Y-103244076D01*
X160203006Y-103244076D02*
X160241101Y-103396457D01*
X160241101Y-103396457D02*
X160241101Y-103586933D01*
X160241101Y-103586933D02*
X160203006Y-103739314D01*
X160203006Y-103739314D02*
X160164911Y-103815504D01*
X160164911Y-103815504D02*
X160126816Y-103853600D01*
X160126816Y-103853600D02*
X160050625Y-103891695D01*
X160050625Y-103891695D02*
X159974435Y-103891695D01*
X159974435Y-103891695D02*
X159898244Y-103853600D01*
X159898244Y-103853600D02*
X159860149Y-103815504D01*
X159860149Y-103815504D02*
X159822054Y-103739314D01*
X159822054Y-103739314D02*
X159783958Y-103586933D01*
X159783958Y-103586933D02*
X159783958Y-103396457D01*
X159783958Y-103396457D02*
X159822054Y-103244076D01*
X159822054Y-103244076D02*
X159860149Y-103167885D01*
X159860149Y-103167885D02*
X159898244Y-103129790D01*
X159898244Y-103129790D02*
X159974435Y-103091695D01*
X160926816Y-103091695D02*
X160774435Y-103091695D01*
X160774435Y-103091695D02*
X160698244Y-103129790D01*
X160698244Y-103129790D02*
X160660149Y-103167885D01*
X160660149Y-103167885D02*
X160583959Y-103282171D01*
X160583959Y-103282171D02*
X160545863Y-103434552D01*
X160545863Y-103434552D02*
X160545863Y-103739314D01*
X160545863Y-103739314D02*
X160583959Y-103815504D01*
X160583959Y-103815504D02*
X160622054Y-103853600D01*
X160622054Y-103853600D02*
X160698244Y-103891695D01*
X160698244Y-103891695D02*
X160850625Y-103891695D01*
X160850625Y-103891695D02*
X160926816Y-103853600D01*
X160926816Y-103853600D02*
X160964911Y-103815504D01*
X160964911Y-103815504D02*
X161003006Y-103739314D01*
X161003006Y-103739314D02*
X161003006Y-103548838D01*
X161003006Y-103548838D02*
X160964911Y-103472647D01*
X160964911Y-103472647D02*
X160926816Y-103434552D01*
X160926816Y-103434552D02*
X160850625Y-103396457D01*
X160850625Y-103396457D02*
X160698244Y-103396457D01*
X160698244Y-103396457D02*
X160622054Y-103434552D01*
X160622054Y-103434552D02*
X160583959Y-103472647D01*
X160583959Y-103472647D02*
X160545863Y-103548838D01*
X161345864Y-103815504D02*
X161383959Y-103853600D01*
X161383959Y-103853600D02*
X161345864Y-103891695D01*
X161345864Y-103891695D02*
X161307768Y-103853600D01*
X161307768Y-103853600D02*
X161345864Y-103815504D01*
X161345864Y-103815504D02*
X161345864Y-103891695D01*
X161879197Y-103091695D02*
X161955387Y-103091695D01*
X161955387Y-103091695D02*
X162031578Y-103129790D01*
X162031578Y-103129790D02*
X162069673Y-103167885D01*
X162069673Y-103167885D02*
X162107768Y-103244076D01*
X162107768Y-103244076D02*
X162145863Y-103396457D01*
X162145863Y-103396457D02*
X162145863Y-103586933D01*
X162145863Y-103586933D02*
X162107768Y-103739314D01*
X162107768Y-103739314D02*
X162069673Y-103815504D01*
X162069673Y-103815504D02*
X162031578Y-103853600D01*
X162031578Y-103853600D02*
X161955387Y-103891695D01*
X161955387Y-103891695D02*
X161879197Y-103891695D01*
X161879197Y-103891695D02*
X161803006Y-103853600D01*
X161803006Y-103853600D02*
X161764911Y-103815504D01*
X161764911Y-103815504D02*
X161726816Y-103739314D01*
X161726816Y-103739314D02*
X161688720Y-103586933D01*
X161688720Y-103586933D02*
X161688720Y-103396457D01*
X161688720Y-103396457D02*
X161726816Y-103244076D01*
X161726816Y-103244076D02*
X161764911Y-103167885D01*
X161764911Y-103167885D02*
X161803006Y-103129790D01*
X161803006Y-103129790D02*
X161879197Y-103091695D01*
X162869673Y-103091695D02*
X162488721Y-103091695D01*
X162488721Y-103091695D02*
X162450625Y-103472647D01*
X162450625Y-103472647D02*
X162488721Y-103434552D01*
X162488721Y-103434552D02*
X162564911Y-103396457D01*
X162564911Y-103396457D02*
X162755387Y-103396457D01*
X162755387Y-103396457D02*
X162831578Y-103434552D01*
X162831578Y-103434552D02*
X162869673Y-103472647D01*
X162869673Y-103472647D02*
X162907768Y-103548838D01*
X162907768Y-103548838D02*
X162907768Y-103739314D01*
X162907768Y-103739314D02*
X162869673Y-103815504D01*
X162869673Y-103815504D02*
X162831578Y-103853600D01*
X162831578Y-103853600D02*
X162755387Y-103891695D01*
X162755387Y-103891695D02*
X162564911Y-103891695D01*
X162564911Y-103891695D02*
X162488721Y-103853600D01*
X162488721Y-103853600D02*
X162450625Y-103815504D01*
X163250626Y-103815504D02*
X163288721Y-103853600D01*
X163288721Y-103853600D02*
X163250626Y-103891695D01*
X163250626Y-103891695D02*
X163212530Y-103853600D01*
X163212530Y-103853600D02*
X163250626Y-103815504D01*
X163250626Y-103815504D02*
X163250626Y-103891695D01*
X163593482Y-103167885D02*
X163631578Y-103129790D01*
X163631578Y-103129790D02*
X163707768Y-103091695D01*
X163707768Y-103091695D02*
X163898244Y-103091695D01*
X163898244Y-103091695D02*
X163974435Y-103129790D01*
X163974435Y-103129790D02*
X164012530Y-103167885D01*
X164012530Y-103167885D02*
X164050625Y-103244076D01*
X164050625Y-103244076D02*
X164050625Y-103320266D01*
X164050625Y-103320266D02*
X164012530Y-103434552D01*
X164012530Y-103434552D02*
X163555387Y-103891695D01*
X163555387Y-103891695D02*
X164050625Y-103891695D01*
X164545864Y-103091695D02*
X164622054Y-103091695D01*
X164622054Y-103091695D02*
X164698245Y-103129790D01*
X164698245Y-103129790D02*
X164736340Y-103167885D01*
X164736340Y-103167885D02*
X164774435Y-103244076D01*
X164774435Y-103244076D02*
X164812530Y-103396457D01*
X164812530Y-103396457D02*
X164812530Y-103586933D01*
X164812530Y-103586933D02*
X164774435Y-103739314D01*
X164774435Y-103739314D02*
X164736340Y-103815504D01*
X164736340Y-103815504D02*
X164698245Y-103853600D01*
X164698245Y-103853600D02*
X164622054Y-103891695D01*
X164622054Y-103891695D02*
X164545864Y-103891695D01*
X164545864Y-103891695D02*
X164469673Y-103853600D01*
X164469673Y-103853600D02*
X164431578Y-103815504D01*
X164431578Y-103815504D02*
X164393483Y-103739314D01*
X164393483Y-103739314D02*
X164355387Y-103586933D01*
X164355387Y-103586933D02*
X164355387Y-103396457D01*
X164355387Y-103396457D02*
X164393483Y-103244076D01*
X164393483Y-103244076D02*
X164431578Y-103167885D01*
X164431578Y-103167885D02*
X164469673Y-103129790D01*
X164469673Y-103129790D02*
X164545864Y-103091695D01*
X165117292Y-103167885D02*
X165155388Y-103129790D01*
X165155388Y-103129790D02*
X165231578Y-103091695D01*
X165231578Y-103091695D02*
X165422054Y-103091695D01*
X165422054Y-103091695D02*
X165498245Y-103129790D01*
X165498245Y-103129790D02*
X165536340Y-103167885D01*
X165536340Y-103167885D02*
X165574435Y-103244076D01*
X165574435Y-103244076D02*
X165574435Y-103320266D01*
X165574435Y-103320266D02*
X165536340Y-103434552D01*
X165536340Y-103434552D02*
X165079197Y-103891695D01*
X165079197Y-103891695D02*
X165574435Y-103891695D01*
X166260150Y-103091695D02*
X166107769Y-103091695D01*
X166107769Y-103091695D02*
X166031578Y-103129790D01*
X166031578Y-103129790D02*
X165993483Y-103167885D01*
X165993483Y-103167885D02*
X165917293Y-103282171D01*
X165917293Y-103282171D02*
X165879197Y-103434552D01*
X165879197Y-103434552D02*
X165879197Y-103739314D01*
X165879197Y-103739314D02*
X165917293Y-103815504D01*
X165917293Y-103815504D02*
X165955388Y-103853600D01*
X165955388Y-103853600D02*
X166031578Y-103891695D01*
X166031578Y-103891695D02*
X166183959Y-103891695D01*
X166183959Y-103891695D02*
X166260150Y-103853600D01*
X166260150Y-103853600D02*
X166298245Y-103815504D01*
X166298245Y-103815504D02*
X166336340Y-103739314D01*
X166336340Y-103739314D02*
X166336340Y-103548838D01*
X166336340Y-103548838D02*
X166298245Y-103472647D01*
X166298245Y-103472647D02*
X166260150Y-103434552D01*
X166260150Y-103434552D02*
X166183959Y-103396457D01*
X166183959Y-103396457D02*
X166031578Y-103396457D01*
X166031578Y-103396457D02*
X165955388Y-103434552D01*
X165955388Y-103434552D02*
X165917293Y-103472647D01*
X165917293Y-103472647D02*
X165879197Y-103548838D01*
D12*
%TO.P,R6,1*%
%TO.N,Net-(M1-D7)*%
X164840000Y-67000000D03*
%TO.P,R6,2*%
%TO.N,Net-(Q1-G)*%
X175000000Y-67000000D03*
%TD*%
%TO.P,R5,1*%
%TO.N,Net-(M1-D8)*%
X164840000Y-70500000D03*
%TO.P,R5,2*%
%TO.N,Net-(Q2-G)*%
X175000000Y-70500000D03*
%TD*%
%TO.P,R2,1*%
%TO.N,Net-(M1-D9)*%
X164840000Y-74000000D03*
%TO.P,R2,2*%
%TO.N,Net-(Q3-G)*%
X175000000Y-74000000D03*
%TD*%
%TO.P,R1,1*%
%TO.N,Net-(M1-D10)*%
X164840000Y-77500000D03*
%TO.P,R1,2*%
%TO.N,Net-(Q4-G)*%
X175000000Y-77500000D03*
%TD*%
%TO.P,R14,2*%
%TO.N,Net-(M1-D3)*%
X127000000Y-42000000D03*
%TO.P,R14,1*%
%TO.N,/VCC*%
X127000000Y-52160000D03*
%TD*%
%TO.P,R13,2*%
%TO.N,Net-(M1-D2)*%
X135500000Y-79000000D03*
%TO.P,R13,1*%
%TO.N,/VCC*%
X125340000Y-79000000D03*
%TD*%
D13*
%TO.P,SW2,4,B*%
%TO.N,unconnected-(SW2B-B-Pad4)*%
X126690000Y-69960000D03*
%TO.P,SW2,3,A*%
%TO.N,unconnected-(SW2B-A-Pad3)*%
X126690000Y-75040000D03*
%TO.P,SW2,2,B*%
%TO.N,Net-(M1-D2)*%
X134310000Y-69960000D03*
%TO.P,SW2,1,A*%
%TO.N,0*%
X134310000Y-75040000D03*
%TD*%
%TO.P,SW3,4,B*%
%TO.N,unconnected-(SW3B-B-Pad4)*%
X126690000Y-60460000D03*
%TO.P,SW3,3,A*%
%TO.N,unconnected-(SW3B-A-Pad3)*%
X126690000Y-65540000D03*
%TO.P,SW3,2,B*%
%TO.N,Net-(M1-D3)*%
X134310000Y-60460000D03*
%TO.P,SW3,1,A*%
%TO.N,0*%
X134310000Y-65540000D03*
%TD*%
D14*
%TO.P,D1,1,K*%
%TO.N,/VCC*%
X164000000Y-96460000D03*
D15*
%TO.P,D1,2,A*%
%TO.N,Net-(D1-A)*%
X164000000Y-88840000D03*
%TD*%
D16*
%TO.P,H4,1,1*%
%TO.N,0*%
X128500000Y-101500000D03*
%TD*%
D12*
%TO.P,R4,1*%
%TO.N,Net-(M1-D0)*%
X131500000Y-42000000D03*
%TO.P,R4,2*%
%TO.N,Net-(J2-Pin_1)*%
X131500000Y-52160000D03*
%TD*%
D17*
%TO.P,C6,1*%
%TO.N,/VCC*%
X169500000Y-47500000D03*
D12*
%TO.P,C6,2*%
%TO.N,0*%
X169500000Y-44000000D03*
%TD*%
%TO.P,R3,1*%
%TO.N,Net-(M1-D0)*%
X136000000Y-42000000D03*
%TO.P,R3,2*%
%TO.N,/VCC*%
X136000000Y-52160000D03*
%TD*%
%TO.P,C1,1*%
%TO.N,/VCC*%
X160000000Y-94960000D03*
%TO.P,C1,2*%
%TO.N,Net-(D1-A)*%
X160000000Y-89960000D03*
%TD*%
D18*
%TO.P,C5,1*%
%TO.N,/VCC*%
X131000000Y-93000000D03*
D12*
%TO.P,C5,2*%
%TO.N,0*%
X127500000Y-93000000D03*
%TD*%
D14*
%TO.P,D4,1,K*%
%TO.N,/VCC*%
X140050000Y-96460000D03*
D15*
%TO.P,D4,2,A*%
%TO.N,Net-(D4-A)*%
X140050000Y-88840000D03*
%TD*%
D16*
%TO.P,H3,1,1*%
%TO.N,0*%
X171500000Y-101500000D03*
%TD*%
D19*
%TO.P,Q1,1,D*%
%TO.N,Net-(D1-A)*%
X162450000Y-85540000D03*
D20*
%TO.P,Q1,2,G*%
%TO.N,Net-(Q1-G)*%
X162450000Y-84270000D03*
%TO.P,Q1,3,S*%
%TO.N,0*%
X162450000Y-83000000D03*
%TD*%
D19*
%TO.P,Q4,1,D*%
%TO.N,Net-(D4-A)*%
X138450000Y-85540000D03*
D20*
%TO.P,Q4,2,G*%
%TO.N,Net-(Q4-G)*%
X138450000Y-84270000D03*
%TO.P,Q4,3,S*%
%TO.N,0*%
X138450000Y-83000000D03*
%TD*%
D14*
%TO.P,D2,1,K*%
%TO.N,/VCC*%
X156050000Y-96460000D03*
D15*
%TO.P,D2,2,A*%
%TO.N,Net-(D2-A)*%
X156050000Y-88840000D03*
%TD*%
D21*
%TO.P,J2,1,Pin_1*%
%TO.N,Net-(J2-Pin_1)*%
X131725000Y-56000000D03*
D22*
%TO.P,J2,2,Pin_2*%
%TO.N,0*%
X134265000Y-56000000D03*
%TD*%
D19*
%TO.P,Q3,1,D*%
%TO.N,Net-(D3-A)*%
X146450000Y-85540000D03*
D20*
%TO.P,Q3,2,G*%
%TO.N,Net-(Q3-G)*%
X146450000Y-84270000D03*
%TO.P,Q3,3,S*%
%TO.N,0*%
X146450000Y-83000000D03*
%TD*%
D12*
%TO.P,C3,1*%
%TO.N,/VCC*%
X144000000Y-94960000D03*
%TO.P,C3,2*%
%TO.N,Net-(D3-A)*%
X144000000Y-89960000D03*
%TD*%
D21*
%TO.P,J1,1,Pin_1*%
%TO.N,/VCC*%
X144920000Y-102500000D03*
D22*
%TO.P,J1,2,Pin_2*%
%TO.N,Net-(D4-A)*%
X147460000Y-102500000D03*
%TO.P,J1,3,Pin_3*%
%TO.N,Net-(D3-A)*%
X150000000Y-102500000D03*
%TO.P,J1,4,Pin_4*%
%TO.N,Net-(D2-A)*%
X152540000Y-102500000D03*
%TO.P,J1,5,Pin_5*%
%TO.N,Net-(D1-A)*%
X155080000Y-102500000D03*
%TD*%
D23*
%TO.P,M1,1,D0*%
%TO.N,Net-(M1-D0)*%
X142260000Y-34500000D03*
%TO.P,M1,2,D1*%
%TO.N,unconnected-(M1-D1-Pad2)*%
X142260000Y-37040000D03*
%TO.P,M1,3,D2*%
%TO.N,Net-(M1-D2)*%
X142260000Y-39580000D03*
%TO.P,M1,4,D3*%
%TO.N,Net-(M1-D3)*%
X142260000Y-42120000D03*
%TO.P,M1,5,D4*%
%TO.N,Net-(J4-Pin_4)*%
X142260000Y-44660000D03*
%TO.P,M1,6,D5*%
%TO.N,Net-(J4-Pin_3)*%
X142260000Y-47200000D03*
%TO.P,M1,7,D6*%
%TO.N,unconnected-(M1-D6-Pad7)*%
X142260000Y-49740000D03*
%TO.P,M1,8,D7*%
%TO.N,Net-(M1-D7)*%
X157500000Y-49740000D03*
%TO.P,M1,9,D8*%
%TO.N,Net-(M1-D8)*%
X157500000Y-47200000D03*
%TO.P,M1,10,D9*%
%TO.N,Net-(M1-D9)*%
X157500000Y-44660000D03*
%TO.P,M1,11,D10*%
%TO.N,Net-(M1-D10)*%
X157500000Y-42120000D03*
%TO.P,M1,12,3v3*%
%TO.N,Net-(J4-Pin_2)*%
X157500000Y-39580000D03*
%TO.P,M1,13,GND*%
%TO.N,0*%
X157500000Y-37040000D03*
%TO.P,M1,14,5V*%
%TO.N,unconnected-(M1-5V-Pad14)*%
X157500000Y-34500000D03*
D24*
%TO.P,M1,15,BAT-*%
%TO.N,unconnected-(M1-BAT--Pad15)*%
X145427821Y-39799547D03*
%TO.P,M1,16,BAT+*%
%TO.N,unconnected-(M1-BAT+-Pad16)*%
X145427821Y-41699547D03*
%TD*%
D13*
%TO.P,J4,1,Pin_1*%
%TO.N,0*%
X146190000Y-55650000D03*
%TO.P,J4,2,Pin_2*%
%TO.N,Net-(J4-Pin_2)*%
X148730000Y-55650000D03*
%TO.P,J4,3,Pin_3*%
%TO.N,Net-(J4-Pin_3)*%
X151270000Y-55650000D03*
%TO.P,J4,4,Pin_4*%
%TO.N,Net-(J4-Pin_4)*%
X153810000Y-55650000D03*
D25*
%TO.P,J4,5*%
%TO.N,N/C*%
X139000000Y-56500000D03*
%TO.P,J4,6*%
X161000000Y-56500000D03*
%TO.P,J4,7*%
X139000000Y-78500000D03*
%TO.P,J4,8*%
X161000000Y-78500000D03*
%TD*%
D14*
%TO.P,D3,1,K*%
%TO.N,/VCC*%
X148000000Y-96460000D03*
D15*
%TO.P,D3,2,A*%
%TO.N,Net-(D3-A)*%
X148000000Y-88840000D03*
%TD*%
D16*
%TO.P,H1,1,1*%
%TO.N,0*%
X171500000Y-36500000D03*
%TD*%
D13*
%TO.P,SW1,1,A*%
%TO.N,unconnected-(SW1A-A-Pad1)*%
X173770000Y-58110000D03*
%TO.P,SW1,2,B*%
%TO.N,Net-(J3-Pin_2)*%
X173770000Y-60110000D03*
%TO.P,SW1,3,C*%
%TO.N,/VCC*%
X173770000Y-62110000D03*
%TO.P,SW1,4,A*%
%TO.N,unconnected-(SW1B-A-Pad4)*%
X171230000Y-58110000D03*
%TO.P,SW1,5,B*%
%TO.N,unconnected-(SW1B-B-Pad5)*%
X171230000Y-60110000D03*
%TO.P,SW1,6,C*%
%TO.N,unconnected-(SW1B-C-Pad6)*%
X171230000Y-62110000D03*
D26*
%TO.P,SW1,7*%
%TO.N,N/C*%
X172500000Y-56000000D03*
%TO.P,SW1,8*%
X172500000Y-64220000D03*
%TD*%
D12*
%TO.P,C2,1*%
%TO.N,/VCC*%
X152000000Y-94960000D03*
%TO.P,C2,2*%
%TO.N,Net-(D2-A)*%
X152000000Y-89960000D03*
%TD*%
D27*
%TO.P,J5,1,Pin_1*%
%TO.N,0*%
X166000000Y-53500000D03*
D28*
%TO.P,J5,2,Pin_2*%
%TO.N,/VCC*%
X166000000Y-55500000D03*
%TD*%
D16*
%TO.P,H2,1,1*%
%TO.N,0*%
X128500000Y-36500000D03*
%TD*%
D12*
%TO.P,C4,1*%
%TO.N,/VCC*%
X136000000Y-94960000D03*
%TO.P,C4,2*%
%TO.N,Net-(D4-A)*%
X136000000Y-89960000D03*
%TD*%
D19*
%TO.P,Q2,1,D*%
%TO.N,Net-(D2-A)*%
X154450000Y-85540000D03*
D20*
%TO.P,Q2,2,G*%
%TO.N,Net-(Q2-G)*%
X154450000Y-84270000D03*
%TO.P,Q2,3,S*%
%TO.N,0*%
X154450000Y-83000000D03*
%TD*%
D27*
%TO.P,J3,1,Pin_1*%
%TO.N,0*%
X166000000Y-61000000D03*
D28*
%TO.P,J3,2,Pin_2*%
%TO.N,Net-(J3-Pin_2)*%
X166000000Y-63000000D03*
%TD*%
D29*
%TO.N,Net-(Q4-G)*%
X171200000Y-77500000D03*
%TO.N,Net-(Q3-G)*%
X171800000Y-74000000D03*
%TO.N,Net-(Q2-G)*%
X172400000Y-70500000D03*
%TO.N,Net-(Q1-G)*%
X173000000Y-67000000D03*
%TO.N,Net-(J4-Pin_2)*%
X149000000Y-49500000D03*
%TO.N,Net-(D1-A)*%
X158000000Y-96000000D03*
X158000000Y-94000000D03*
%TO.N,Net-(D2-A)*%
X154000000Y-94000000D03*
X154000000Y-95560000D03*
%TO.N,Net-(D3-A)*%
X146000000Y-95560000D03*
X146000000Y-94000000D03*
%TO.N,Net-(D4-A)*%
X142500000Y-97500000D03*
X142000000Y-95500000D03*
%TD*%
D30*
%TO.N,Net-(M1-D2)*%
X134310000Y-69960000D02*
X137000000Y-67270000D01*
X137000000Y-67270000D02*
X137000000Y-55000000D01*
X137000000Y-55000000D02*
X138500000Y-53500000D01*
X138500000Y-53500000D02*
X138500000Y-42000000D01*
X138500000Y-42000000D02*
X140920000Y-39580000D01*
X140920000Y-39580000D02*
X142260000Y-39580000D01*
%TO.N,/VCC*%
X171534214Y-54000000D02*
X169500000Y-51965786D01*
X169500000Y-51965786D02*
X169500000Y-47500000D01*
%TO.N,Net-(Q4-G)*%
X171200000Y-77500000D02*
X171000000Y-77700000D01*
X171000000Y-77700000D02*
X171000000Y-79802942D01*
X142245000Y-80700000D02*
X138675000Y-84270000D01*
X171000000Y-79802942D02*
X170102942Y-80700000D01*
X138675000Y-84270000D02*
X138450000Y-84270000D01*
X170102942Y-80700000D02*
X142245000Y-80700000D01*
%TO.N,Net-(Q3-G)*%
X171800000Y-74000000D02*
X171800000Y-79568628D01*
X171800000Y-79568628D02*
X170268628Y-81100000D01*
X170268628Y-81100000D02*
X149845000Y-81100000D01*
X149845000Y-81100000D02*
X146675000Y-84270000D01*
X146675000Y-84270000D02*
X146450000Y-84270000D01*
%TO.N,Net-(Q2-G)*%
X172400000Y-70500000D02*
X172400000Y-79534314D01*
X172400000Y-79534314D02*
X170434314Y-81500000D01*
X170434314Y-81500000D02*
X158500000Y-81500000D01*
X158500000Y-81500000D02*
X155730000Y-84270000D01*
X155730000Y-84270000D02*
X154450000Y-84270000D01*
%TO.N,Net-(Q1-G)*%
X173000000Y-67000000D02*
X173000000Y-79500000D01*
X173000000Y-79500000D02*
X168230000Y-84270000D01*
X168230000Y-84270000D02*
X162450000Y-84270000D01*
%TO.N,/VCC*%
X136000000Y-52160000D02*
X133840000Y-50000000D01*
X133840000Y-50000000D02*
X129160000Y-50000000D01*
X129160000Y-50000000D02*
X127000000Y-52160000D01*
%TO.N,Net-(M1-D3)*%
X142260000Y-42120000D02*
X143977821Y-40402179D01*
X143977821Y-40402179D02*
X143977821Y-33477821D01*
X143977821Y-33477821D02*
X143000000Y-32500000D01*
X143000000Y-32500000D02*
X138000000Y-32500000D01*
X138000000Y-32500000D02*
X128500000Y-42000000D01*
%TO.N,Net-(M1-D10)*%
X157500000Y-42120000D02*
X155500000Y-44120000D01*
X155500000Y-65225686D02*
X155500000Y-68160000D01*
X155500000Y-44120000D02*
X155500000Y-46094315D01*
X155500000Y-46094315D02*
X155200000Y-46394315D01*
X155200000Y-46394315D02*
X155200000Y-64925686D01*
X155200000Y-64925686D02*
X155500000Y-65225686D01*
X155500000Y-68160000D02*
X164840000Y-77500000D01*
%TO.N,Net-(M1-D3)*%
X134310000Y-60460000D02*
X136000000Y-58770000D01*
X136000000Y-58770000D02*
X136000000Y-54434314D01*
X136000000Y-54434314D02*
X137500000Y-52934314D01*
X137500000Y-52934314D02*
X137500000Y-51000000D01*
X137500000Y-51000000D02*
X128500000Y-42000000D01*
X128500000Y-42000000D02*
X127000000Y-42000000D01*
%TO.N,Net-(M1-D2)*%
X135500000Y-79000000D02*
X135500000Y-71150000D01*
X135500000Y-71150000D02*
X134310000Y-69960000D01*
%TO.N,Net-(M1-D7)*%
X157500000Y-49740000D02*
X156400000Y-50840000D01*
X156400000Y-50840000D02*
X156400000Y-58560000D01*
X156400000Y-58560000D02*
X164840000Y-67000000D01*
%TO.N,Net-(M1-D9)*%
X157500000Y-44660000D02*
X155600000Y-46560000D01*
X155600000Y-46560000D02*
X155600000Y-64760000D01*
X155600000Y-64760000D02*
X164840000Y-74000000D01*
%TO.N,Net-(M1-D8)*%
X157500000Y-47200000D02*
X156000000Y-48700000D01*
X156000000Y-48700000D02*
X156000000Y-61660000D01*
X156000000Y-61660000D02*
X164840000Y-70500000D01*
%TO.N,/VCC*%
X131000000Y-93000000D02*
X134040000Y-93000000D01*
X134040000Y-93000000D02*
X136000000Y-94960000D01*
X125340000Y-79000000D02*
X125340000Y-79840000D01*
X125340000Y-79840000D02*
X131000000Y-85500000D01*
X131000000Y-85500000D02*
X131000000Y-93000000D01*
X127000000Y-52160000D02*
X125000000Y-54160000D01*
X125000000Y-54160000D02*
X125000000Y-78660000D01*
X125000000Y-78660000D02*
X125340000Y-79000000D01*
%TO.N,Net-(J4-Pin_2)*%
X149000000Y-49500000D02*
X149000000Y-48080000D01*
X149000000Y-48080000D02*
X157500000Y-39580000D01*
%TO.N,Net-(J2-Pin_1)*%
X131500000Y-52160000D02*
X131500000Y-55775000D01*
X131500000Y-55775000D02*
X131725000Y-56000000D01*
%TO.N,Net-(M1-D0)*%
X136000000Y-42000000D02*
X131500000Y-42000000D01*
X142260000Y-34500000D02*
X136000000Y-40760000D01*
X136000000Y-40760000D02*
X136000000Y-42000000D01*
%TO.N,Net-(J3-Pin_2)*%
X173770000Y-60110000D02*
X175500000Y-58380000D01*
X175500000Y-58380000D02*
X175500000Y-56750000D01*
X175500000Y-56750000D02*
X173250000Y-54500000D01*
X173250000Y-54500000D02*
X171866116Y-54500000D01*
X171866116Y-54500000D02*
X168000000Y-58366116D01*
X168000000Y-58366116D02*
X168000000Y-61500000D01*
X168000000Y-61500000D02*
X166500000Y-63000000D01*
X166500000Y-63000000D02*
X166000000Y-63000000D01*
%TO.N,/VCC*%
X173770000Y-62110000D02*
X175900000Y-59980000D01*
X175900000Y-59980000D02*
X175900000Y-56400000D01*
X175900000Y-56400000D02*
X173500000Y-54000000D01*
X173500000Y-54000000D02*
X171534214Y-54000000D01*
%TO.N,Net-(D1-A)*%
X162880000Y-89960000D02*
X164000000Y-88840000D01*
X158000000Y-94000000D02*
X158000000Y-93500000D01*
X155080000Y-102500000D02*
X158000000Y-99580000D01*
X164000000Y-88840000D02*
X164000000Y-87090000D01*
X164000000Y-87090000D02*
X162450000Y-85540000D01*
X160000000Y-89960000D02*
X162880000Y-89960000D01*
X158000000Y-99580000D02*
X158000000Y-96000000D01*
X158000000Y-93500000D02*
X160000000Y-91500000D01*
X160000000Y-91500000D02*
X160000000Y-89960000D01*
%TO.N,Net-(D2-A)*%
X156050000Y-88840000D02*
X156050000Y-88550000D01*
X154450000Y-86950000D02*
X154450000Y-85540000D01*
X156050000Y-88550000D02*
X154450000Y-86950000D01*
X154000000Y-94000000D02*
X154000000Y-90890000D01*
X156050000Y-88840000D02*
X154930000Y-89960000D01*
X154000000Y-101040000D02*
X154000000Y-95560000D01*
X154930000Y-89960000D02*
X152000000Y-89960000D01*
X152540000Y-102500000D02*
X154000000Y-101040000D01*
X154000000Y-90890000D02*
X154930000Y-89960000D01*
%TO.N,Net-(D3-A)*%
X148000000Y-88840000D02*
X147660000Y-88840000D01*
X147660000Y-88840000D02*
X146540000Y-89960000D01*
X146000000Y-98500000D02*
X146000000Y-95560000D01*
X146540000Y-89960000D02*
X144000000Y-89960000D01*
X146000000Y-90500000D02*
X146540000Y-89960000D01*
X146000000Y-94000000D02*
X146000000Y-90500000D01*
X148000000Y-87090000D02*
X146450000Y-85540000D01*
X150000000Y-102500000D02*
X146000000Y-98500000D01*
X148000000Y-88840000D02*
X148000000Y-87090000D01*
%TO.N,Net-(D4-A)*%
X138450000Y-87240000D02*
X138450000Y-85540000D01*
X140050000Y-88840000D02*
X138930000Y-89960000D01*
X142000000Y-90790000D02*
X140050000Y-88840000D01*
X140050000Y-88840000D02*
X138450000Y-87240000D01*
X142000000Y-95500000D02*
X142000000Y-90790000D01*
X147460000Y-102500000D02*
X142500000Y-97540000D01*
X142500000Y-97540000D02*
X142500000Y-97500000D01*
X138930000Y-89960000D02*
X136000000Y-89960000D01*
%TO.N,/VCC*%
X142500000Y-96460000D02*
X144000000Y-94960000D01*
X139460000Y-96460000D02*
X137960000Y-94960000D01*
X152000000Y-94960000D02*
X154550000Y-94960000D01*
X154550000Y-94960000D02*
X156050000Y-96460000D01*
X171534214Y-54000000D02*
X170034214Y-55500000D01*
X156460000Y-96460000D02*
X157960000Y-94960000D01*
X148000000Y-96460000D02*
X150500000Y-96460000D01*
X140050000Y-96460000D02*
X139460000Y-96460000D01*
X170034214Y-55500000D02*
X166000000Y-55500000D01*
X156050000Y-96460000D02*
X156460000Y-96460000D01*
X140050000Y-96460000D02*
X142500000Y-96460000D01*
X144920000Y-101330000D02*
X140050000Y-96460000D01*
X160000000Y-94960000D02*
X162500000Y-94960000D01*
X137960000Y-94960000D02*
X136000000Y-94960000D01*
X146500000Y-94960000D02*
X148000000Y-96460000D01*
X150500000Y-96460000D02*
X152000000Y-94960000D01*
X157960000Y-94960000D02*
X160000000Y-94960000D01*
X162500000Y-94960000D02*
X164000000Y-96460000D01*
X144000000Y-94960000D02*
X146500000Y-94960000D01*
X144920000Y-102500000D02*
X144920000Y-101330000D01*
%TO.N,Net-(J4-Pin_4)*%
X153810000Y-55650000D02*
X142820000Y-44660000D01*
X142820000Y-44660000D02*
X142260000Y-44660000D01*
%TO.N,Net-(J4-Pin_3)*%
X142820000Y-47200000D02*
X142260000Y-47200000D01*
X151270000Y-55650000D02*
X142820000Y-47200000D01*
%TO.N,/VCC*%
X164000000Y-96460000D02*
X173770000Y-86690000D01*
X173770000Y-86690000D02*
X173770000Y-62110000D01*
%TD*%
M02*
