%TF.GenerationSoftware,KiCad,Pcbnew,9.0.8-9.0.8~ubuntu24.04.1*%
%TF.CreationDate,2026-05-06T20:02:45+02:00*%
%TF.ProjectId,viva,76697661-2e6b-4696-9361-645f70636258,rev?*%
%TF.SameCoordinates,Original*%
%TF.FileFunction,Soldermask,Bot*%
%TF.FilePolarity,Negative*%
%FSLAX46Y46*%
G04 Gerber Fmt 4.6, Leading zero omitted, Abs format (unit mm)*
G04 Created by KiCad (PCBNEW 9.0.8-9.0.8~ubuntu24.04.1) date 2026-05-06 20:02:45*
%MOMM*%
%LPD*%
G01*
G04 APERTURE LIST*
G04 Aperture macros list*
%AMRoundRect*
0 Rectangle with rounded corners*
0 $1 Rounding radius*
0 $2 $3 $4 $5 $6 $7 $8 $9 X,Y pos of 4 corners*
0 Add a 4 corners polygon primitive as box body*
4,1,4,$2,$3,$4,$5,$6,$7,$8,$9,$2,$3,0*
0 Add four circle primitives for the rounded corners*
1,1,$1+$1,$2,$3*
1,1,$1+$1,$4,$5*
1,1,$1+$1,$6,$7*
1,1,$1+$1,$8,$9*
0 Add four rect primitives between the rounded corners*
20,1,$1+$1,$2,$3,$4,$5,0*
20,1,$1+$1,$4,$5,$6,$7,0*
20,1,$1+$1,$6,$7,$8,$9,0*
20,1,$1+$1,$8,$9,$2,$3,0*%
G04 Aperture macros list end*
%ADD10C,1.600000*%
%ADD11C,1.400000*%
%ADD12RoundRect,0.250001X0.499999X-0.499999X0.499999X0.499999X-0.499999X0.499999X-0.499999X-0.499999X0*%
%ADD13C,1.500000*%
%ADD14C,5.700000*%
%ADD15RoundRect,0.250000X0.550000X-0.550000X0.550000X0.550000X-0.550000X0.550000X-0.550000X-0.550000X0*%
%ADD16RoundRect,0.250000X0.550000X0.550000X-0.550000X0.550000X-0.550000X-0.550000X0.550000X-0.550000X0*%
%ADD17R,1.500000X1.050000*%
%ADD18O,1.500000X1.050000*%
%ADD19R,1.700000X1.700000*%
%ADD20C,1.700000*%
%ADD21C,2.000000*%
%ADD22C,2.400000*%
%ADD23C,1.900000*%
%ADD24R,1.350000X1.350000*%
%ADD25C,1.350000*%
G04 APERTURE END LIST*
D10*
%TO.C,R6*%
X164840000Y-67000000D03*
X175000000Y-67000000D03*
%TD*%
%TO.C,R5*%
X164840000Y-70500000D03*
X175000000Y-70500000D03*
%TD*%
%TO.C,R2*%
X164840000Y-74000000D03*
X175000000Y-74000000D03*
%TD*%
%TO.C,R1*%
X164840000Y-77500000D03*
X175000000Y-77500000D03*
%TD*%
%TO.C,R14*%
X127000000Y-42000000D03*
X127000000Y-52160000D03*
%TD*%
%TO.C,R13*%
X135500000Y-79000000D03*
X125340000Y-79000000D03*
%TD*%
D11*
%TO.C,SW2*%
X126690000Y-69960000D03*
X126690000Y-75040000D03*
X134310000Y-69960000D03*
X134310000Y-75040000D03*
%TD*%
%TO.C,SW3*%
X126690000Y-60460000D03*
X126690000Y-65540000D03*
X134310000Y-60460000D03*
X134310000Y-65540000D03*
%TD*%
D12*
%TO.C,D1*%
X164000000Y-96460000D03*
D13*
X164000000Y-88840000D03*
%TD*%
D14*
%TO.C,H4*%
X128500000Y-101500000D03*
%TD*%
D10*
%TO.C,R4*%
X131500000Y-42000000D03*
X131500000Y-52160000D03*
%TD*%
D15*
%TO.C,C6*%
X169500000Y-47500000D03*
D10*
X169500000Y-44000000D03*
%TD*%
%TO.C,R3*%
X136000000Y-42000000D03*
X136000000Y-52160000D03*
%TD*%
%TO.C,C1*%
X160000000Y-94960000D03*
X160000000Y-89960000D03*
%TD*%
D16*
%TO.C,C5*%
X131000000Y-93000000D03*
D10*
X127500000Y-93000000D03*
%TD*%
D12*
%TO.C,D4*%
X140050000Y-96460000D03*
D13*
X140050000Y-88840000D03*
%TD*%
D14*
%TO.C,H3*%
X171500000Y-101500000D03*
%TD*%
D17*
%TO.C,Q1*%
X162450000Y-85540000D03*
D18*
X162450000Y-84270000D03*
X162450000Y-83000000D03*
%TD*%
D17*
%TO.C,Q4*%
X138450000Y-85540000D03*
D18*
X138450000Y-84270000D03*
X138450000Y-83000000D03*
%TD*%
D12*
%TO.C,D2*%
X156050000Y-96460000D03*
D13*
X156050000Y-88840000D03*
%TD*%
D19*
%TO.C,J2*%
X131725000Y-56000000D03*
D20*
X134265000Y-56000000D03*
%TD*%
D17*
%TO.C,Q3*%
X146450000Y-85540000D03*
D18*
X146450000Y-84270000D03*
X146450000Y-83000000D03*
%TD*%
D10*
%TO.C,C3*%
X144000000Y-94960000D03*
X144000000Y-89960000D03*
%TD*%
D19*
%TO.C,J1*%
X144920000Y-102500000D03*
D20*
X147460000Y-102500000D03*
X150000000Y-102500000D03*
X152540000Y-102500000D03*
X155080000Y-102500000D03*
%TD*%
D21*
%TO.C,M1*%
X142260000Y-34500000D03*
X142260000Y-37040000D03*
X142260000Y-39580000D03*
X142260000Y-42120000D03*
X142260000Y-44660000D03*
X142260000Y-47200000D03*
X142260000Y-49740000D03*
X157500000Y-49740000D03*
X157500000Y-47200000D03*
X157500000Y-44660000D03*
X157500000Y-42120000D03*
X157500000Y-39580000D03*
X157500000Y-37040000D03*
X157500000Y-34500000D03*
%TD*%
D11*
%TO.C,J4*%
X146190000Y-55650000D03*
X148730000Y-55650000D03*
X151270000Y-55650000D03*
X153810000Y-55650000D03*
D22*
X139000000Y-56500000D03*
X161000000Y-56500000D03*
X139000000Y-78500000D03*
X161000000Y-78500000D03*
%TD*%
D12*
%TO.C,D3*%
X148000000Y-96460000D03*
D13*
X148000000Y-88840000D03*
%TD*%
D14*
%TO.C,H1*%
X171500000Y-36500000D03*
%TD*%
D11*
%TO.C,SW1*%
X173770000Y-58110000D03*
X173770000Y-60110000D03*
X173770000Y-62110000D03*
X171230000Y-58110000D03*
X171230000Y-60110000D03*
X171230000Y-62110000D03*
D23*
X172500000Y-56000000D03*
X172500000Y-64220000D03*
%TD*%
D10*
%TO.C,C2*%
X152000000Y-94960000D03*
X152000000Y-89960000D03*
%TD*%
D24*
%TO.C,J5*%
X166000000Y-53500000D03*
D25*
X166000000Y-55500000D03*
%TD*%
D14*
%TO.C,H2*%
X128500000Y-36500000D03*
%TD*%
D10*
%TO.C,C4*%
X136000000Y-94960000D03*
X136000000Y-89960000D03*
%TD*%
D17*
%TO.C,Q2*%
X154450000Y-85540000D03*
D18*
X154450000Y-84270000D03*
X154450000Y-83000000D03*
%TD*%
D24*
%TO.C,J3*%
X166000000Y-61000000D03*
D25*
X166000000Y-63000000D03*
%TD*%
M02*
