%TF.GenerationSoftware,KiCad,Pcbnew,9.0.8-9.0.8~ubuntu24.04.1*%
%TF.CreationDate,2026-05-06T20:02:43+02:00*%
%TF.ProjectId,viva,76697661-2e6b-4696-9361-645f70636258,rev?*%
%TF.SameCoordinates,Original*%
%TF.FileFunction,Copper,L2,Bot*%
%TF.FilePolarity,Positive*%
%FSLAX46Y46*%
G04 Gerber Fmt 4.6, Leading zero omitted, Abs format (unit mm)*
G04 Created by KiCad (PCBNEW 9.0.8-9.0.8~ubuntu24.04.1) date 2026-05-06 20:02:43*
%MOMM*%
%LPD*%
G01*
G04 APERTURE LIST*
G04 Aperture macros list*
%AMRoundRect*
0 Rectangle with rounded corners*
0 $1 Rounding radius*
0 $2 $3 $4 $5 $6 $7 $8 $9 X,Y pos of 4 corners*
0 Add a 4 corners polygon primitive as box body*
4,1,4,$2,$3,$4,$5,$6,$7,$8,$9,$2,$3,0*
0 Add four circle primitives for the rounded corners*
1,1,$1+$1,$2,$3*
1,1,$1+$1,$4,$5*
1,1,$1+$1,$6,$7*
1,1,$1+$1,$8,$9*
0 Add four rect primitives between the rounded corners*
20,1,$1+$1,$2,$3,$4,$5,0*
20,1,$1+$1,$4,$5,$6,$7,0*
20,1,$1+$1,$6,$7,$8,$9,0*
20,1,$1+$1,$8,$9,$2,$3,0*%
G04 Aperture macros list end*
%TA.AperFunction,ComponentPad*%
%ADD10C,1.600000*%
%TD*%
%TA.AperFunction,ComponentPad*%
%ADD11C,1.400000*%
%TD*%
%TA.AperFunction,ComponentPad*%
%ADD12RoundRect,0.250001X0.499999X-0.499999X0.499999X0.499999X-0.499999X0.499999X-0.499999X-0.499999X0*%
%TD*%
%TA.AperFunction,ComponentPad*%
%ADD13C,1.500000*%
%TD*%
%TA.AperFunction,ComponentPad*%
%ADD14C,5.700000*%
%TD*%
%TA.AperFunction,ComponentPad*%
%ADD15RoundRect,0.250000X0.550000X-0.550000X0.550000X0.550000X-0.550000X0.550000X-0.550000X-0.550000X0*%
%TD*%
%TA.AperFunction,ComponentPad*%
%ADD16RoundRect,0.250000X0.550000X0.550000X-0.550000X0.550000X-0.550000X-0.550000X0.550000X-0.550000X0*%
%TD*%
%TA.AperFunction,ComponentPad*%
%ADD17R,1.500000X1.050000*%
%TD*%
%TA.AperFunction,ComponentPad*%
%ADD18O,1.500000X1.050000*%
%TD*%
%TA.AperFunction,ComponentPad*%
%ADD19R,1.700000X1.700000*%
%TD*%
%TA.AperFunction,ComponentPad*%
%ADD20C,1.700000*%
%TD*%
%TA.AperFunction,ComponentPad*%
%ADD21C,2.000000*%
%TD*%
%TA.AperFunction,ComponentPad*%
%ADD22C,2.400000*%
%TD*%
%TA.AperFunction,ComponentPad*%
%ADD23C,1.900000*%
%TD*%
%TA.AperFunction,ComponentPad*%
%ADD24R,1.350000X1.350000*%
%TD*%
%TA.AperFunction,ComponentPad*%
%ADD25C,1.350000*%
%TD*%
%TA.AperFunction,ViaPad*%
%ADD26C,0.600000*%
%TD*%
%TA.AperFunction,Conductor*%
%ADD27C,0.200000*%
%TD*%
G04 APERTURE END LIST*
D10*
%TO.P,R6,1*%
%TO.N,Net-(M1-D7)*%
X164840000Y-67000000D03*
%TO.P,R6,2*%
%TO.N,Net-(Q1-G)*%
X175000000Y-67000000D03*
%TD*%
%TO.P,R5,1*%
%TO.N,Net-(M1-D8)*%
X164840000Y-70500000D03*
%TO.P,R5,2*%
%TO.N,Net-(Q2-G)*%
X175000000Y-70500000D03*
%TD*%
%TO.P,R2,1*%
%TO.N,Net-(M1-D9)*%
X164840000Y-74000000D03*
%TO.P,R2,2*%
%TO.N,Net-(Q3-G)*%
X175000000Y-74000000D03*
%TD*%
%TO.P,R1,1*%
%TO.N,Net-(M1-D10)*%
X164840000Y-77500000D03*
%TO.P,R1,2*%
%TO.N,Net-(Q4-G)*%
X175000000Y-77500000D03*
%TD*%
%TO.P,R14,2*%
%TO.N,Net-(M1-D3)*%
X127000000Y-42000000D03*
%TO.P,R14,1*%
%TO.N,/VCC*%
X127000000Y-52160000D03*
%TD*%
%TO.P,R13,2*%
%TO.N,Net-(M1-D2)*%
X135500000Y-79000000D03*
%TO.P,R13,1*%
%TO.N,/VCC*%
X125340000Y-79000000D03*
%TD*%
D11*
%TO.P,SW2,4,B*%
%TO.N,unconnected-(SW2B-B-Pad4)*%
X126690000Y-69960000D03*
%TO.P,SW2,3,A*%
%TO.N,unconnected-(SW2B-A-Pad3)*%
X126690000Y-75040000D03*
%TO.P,SW2,2,B*%
%TO.N,Net-(M1-D2)*%
X134310000Y-69960000D03*
%TO.P,SW2,1,A*%
%TO.N,0*%
X134310000Y-75040000D03*
%TD*%
%TO.P,SW3,4,B*%
%TO.N,unconnected-(SW3B-B-Pad4)*%
X126690000Y-60460000D03*
%TO.P,SW3,3,A*%
%TO.N,unconnected-(SW3B-A-Pad3)*%
X126690000Y-65540000D03*
%TO.P,SW3,2,B*%
%TO.N,Net-(M1-D3)*%
X134310000Y-60460000D03*
%TO.P,SW3,1,A*%
%TO.N,0*%
X134310000Y-65540000D03*
%TD*%
D12*
%TO.P,D1,1,K*%
%TO.N,/VCC*%
X164000000Y-96460000D03*
D13*
%TO.P,D1,2,A*%
%TO.N,Net-(D1-A)*%
X164000000Y-88840000D03*
%TD*%
D14*
%TO.P,H4,1,1*%
%TO.N,0*%
X128500000Y-101500000D03*
%TD*%
D10*
%TO.P,R4,1*%
%TO.N,Net-(M1-D0)*%
X131500000Y-42000000D03*
%TO.P,R4,2*%
%TO.N,Net-(J2-Pin_1)*%
X131500000Y-52160000D03*
%TD*%
D15*
%TO.P,C6,1*%
%TO.N,/VCC*%
X169500000Y-47500000D03*
D10*
%TO.P,C6,2*%
%TO.N,0*%
X169500000Y-44000000D03*
%TD*%
%TO.P,R3,1*%
%TO.N,Net-(M1-D0)*%
X136000000Y-42000000D03*
%TO.P,R3,2*%
%TO.N,/VCC*%
X136000000Y-52160000D03*
%TD*%
%TO.P,C1,1*%
%TO.N,/VCC*%
X160000000Y-94960000D03*
%TO.P,C1,2*%
%TO.N,Net-(D1-A)*%
X160000000Y-89960000D03*
%TD*%
D16*
%TO.P,C5,1*%
%TO.N,/VCC*%
X131000000Y-93000000D03*
D10*
%TO.P,C5,2*%
%TO.N,0*%
X127500000Y-93000000D03*
%TD*%
D12*
%TO.P,D4,1,K*%
%TO.N,/VCC*%
X140050000Y-96460000D03*
D13*
%TO.P,D4,2,A*%
%TO.N,Net-(D4-A)*%
X140050000Y-88840000D03*
%TD*%
D14*
%TO.P,H3,1,1*%
%TO.N,0*%
X171500000Y-101500000D03*
%TD*%
D17*
%TO.P,Q1,1,D*%
%TO.N,Net-(D1-A)*%
X162450000Y-85540000D03*
D18*
%TO.P,Q1,2,G*%
%TO.N,Net-(Q1-G)*%
X162450000Y-84270000D03*
%TO.P,Q1,3,S*%
%TO.N,0*%
X162450000Y-83000000D03*
%TD*%
D17*
%TO.P,Q4,1,D*%
%TO.N,Net-(D4-A)*%
X138450000Y-85540000D03*
D18*
%TO.P,Q4,2,G*%
%TO.N,Net-(Q4-G)*%
X138450000Y-84270000D03*
%TO.P,Q4,3,S*%
%TO.N,0*%
X138450000Y-83000000D03*
%TD*%
D12*
%TO.P,D2,1,K*%
%TO.N,/VCC*%
X156050000Y-96460000D03*
D13*
%TO.P,D2,2,A*%
%TO.N,Net-(D2-A)*%
X156050000Y-88840000D03*
%TD*%
D19*
%TO.P,J2,1,Pin_1*%
%TO.N,Net-(J2-Pin_1)*%
X131725000Y-56000000D03*
D20*
%TO.P,J2,2,Pin_2*%
%TO.N,0*%
X134265000Y-56000000D03*
%TD*%
D17*
%TO.P,Q3,1,D*%
%TO.N,Net-(D3-A)*%
X146450000Y-85540000D03*
D18*
%TO.P,Q3,2,G*%
%TO.N,Net-(Q3-G)*%
X146450000Y-84270000D03*
%TO.P,Q3,3,S*%
%TO.N,0*%
X146450000Y-83000000D03*
%TD*%
D10*
%TO.P,C3,1*%
%TO.N,/VCC*%
X144000000Y-94960000D03*
%TO.P,C3,2*%
%TO.N,Net-(D3-A)*%
X144000000Y-89960000D03*
%TD*%
D19*
%TO.P,J1,1,Pin_1*%
%TO.N,/VCC*%
X144920000Y-102500000D03*
D20*
%TO.P,J1,2,Pin_2*%
%TO.N,Net-(D4-A)*%
X147460000Y-102500000D03*
%TO.P,J1,3,Pin_3*%
%TO.N,Net-(D3-A)*%
X150000000Y-102500000D03*
%TO.P,J1,4,Pin_4*%
%TO.N,Net-(D2-A)*%
X152540000Y-102500000D03*
%TO.P,J1,5,Pin_5*%
%TO.N,Net-(D1-A)*%
X155080000Y-102500000D03*
%TD*%
D21*
%TO.P,M1,1,D0*%
%TO.N,Net-(M1-D0)*%
X142260000Y-34500000D03*
%TO.P,M1,2,D1*%
%TO.N,unconnected-(M1-D1-Pad2)*%
X142260000Y-37040000D03*
%TO.P,M1,3,D2*%
%TO.N,Net-(M1-D2)*%
X142260000Y-39580000D03*
%TO.P,M1,4,D3*%
%TO.N,Net-(M1-D3)*%
X142260000Y-42120000D03*
%TO.P,M1,5,D4*%
%TO.N,Net-(J4-Pin_4)*%
X142260000Y-44660000D03*
%TO.P,M1,6,D5*%
%TO.N,Net-(J4-Pin_3)*%
X142260000Y-47200000D03*
%TO.P,M1,7,D6*%
%TO.N,unconnected-(M1-D6-Pad7)*%
X142260000Y-49740000D03*
%TO.P,M1,8,D7*%
%TO.N,Net-(M1-D7)*%
X157500000Y-49740000D03*
%TO.P,M1,9,D8*%
%TO.N,Net-(M1-D8)*%
X157500000Y-47200000D03*
%TO.P,M1,10,D9*%
%TO.N,Net-(M1-D9)*%
X157500000Y-44660000D03*
%TO.P,M1,11,D10*%
%TO.N,Net-(M1-D10)*%
X157500000Y-42120000D03*
%TO.P,M1,12,3v3*%
%TO.N,Net-(J4-Pin_2)*%
X157500000Y-39580000D03*
%TO.P,M1,13,GND*%
%TO.N,0*%
X157500000Y-37040000D03*
%TO.P,M1,14,5V*%
%TO.N,unconnected-(M1-5V-Pad14)*%
X157500000Y-34500000D03*
%TD*%
D11*
%TO.P,J4,1,Pin_1*%
%TO.N,0*%
X146190000Y-55650000D03*
%TO.P,J4,2,Pin_2*%
%TO.N,Net-(J4-Pin_2)*%
X148730000Y-55650000D03*
%TO.P,J4,3,Pin_3*%
%TO.N,Net-(J4-Pin_3)*%
X151270000Y-55650000D03*
%TO.P,J4,4,Pin_4*%
%TO.N,Net-(J4-Pin_4)*%
X153810000Y-55650000D03*
D22*
%TO.P,J4,5*%
%TO.N,N/C*%
X139000000Y-56500000D03*
%TO.P,J4,6*%
X161000000Y-56500000D03*
%TO.P,J4,7*%
X139000000Y-78500000D03*
%TO.P,J4,8*%
X161000000Y-78500000D03*
%TD*%
D12*
%TO.P,D3,1,K*%
%TO.N,/VCC*%
X148000000Y-96460000D03*
D13*
%TO.P,D3,2,A*%
%TO.N,Net-(D3-A)*%
X148000000Y-88840000D03*
%TD*%
D14*
%TO.P,H1,1,1*%
%TO.N,0*%
X171500000Y-36500000D03*
%TD*%
D11*
%TO.P,SW1,1,A*%
%TO.N,unconnected-(SW1A-A-Pad1)*%
X173770000Y-58110000D03*
%TO.P,SW1,2,B*%
%TO.N,Net-(J3-Pin_2)*%
X173770000Y-60110000D03*
%TO.P,SW1,3,C*%
%TO.N,/VCC*%
X173770000Y-62110000D03*
%TO.P,SW1,4,A*%
%TO.N,unconnected-(SW1B-A-Pad4)*%
X171230000Y-58110000D03*
%TO.P,SW1,5,B*%
%TO.N,unconnected-(SW1B-B-Pad5)*%
X171230000Y-60110000D03*
%TO.P,SW1,6,C*%
%TO.N,unconnected-(SW1B-C-Pad6)*%
X171230000Y-62110000D03*
D23*
%TO.P,SW1,7*%
%TO.N,N/C*%
X172500000Y-56000000D03*
%TO.P,SW1,8*%
X172500000Y-64220000D03*
%TD*%
D10*
%TO.P,C2,1*%
%TO.N,/VCC*%
X152000000Y-94960000D03*
%TO.P,C2,2*%
%TO.N,Net-(D2-A)*%
X152000000Y-89960000D03*
%TD*%
D24*
%TO.P,J5,1,Pin_1*%
%TO.N,0*%
X166000000Y-53500000D03*
D25*
%TO.P,J5,2,Pin_2*%
%TO.N,/VCC*%
X166000000Y-55500000D03*
%TD*%
D14*
%TO.P,H2,1,1*%
%TO.N,0*%
X128500000Y-36500000D03*
%TD*%
D10*
%TO.P,C4,1*%
%TO.N,/VCC*%
X136000000Y-94960000D03*
%TO.P,C4,2*%
%TO.N,Net-(D4-A)*%
X136000000Y-89960000D03*
%TD*%
D17*
%TO.P,Q2,1,D*%
%TO.N,Net-(D2-A)*%
X154450000Y-85540000D03*
D18*
%TO.P,Q2,2,G*%
%TO.N,Net-(Q2-G)*%
X154450000Y-84270000D03*
%TO.P,Q2,3,S*%
%TO.N,0*%
X154450000Y-83000000D03*
%TD*%
D24*
%TO.P,J3,1,Pin_1*%
%TO.N,0*%
X166000000Y-61000000D03*
D25*
%TO.P,J3,2,Pin_2*%
%TO.N,Net-(J3-Pin_2)*%
X166000000Y-63000000D03*
%TD*%
D26*
%TO.N,Net-(Q4-G)*%
X171200000Y-77500000D03*
%TO.N,Net-(Q3-G)*%
X171800000Y-74000000D03*
%TO.N,Net-(Q2-G)*%
X172400000Y-70500000D03*
%TO.N,Net-(Q1-G)*%
X173000000Y-67000000D03*
%TO.N,Net-(J4-Pin_2)*%
X149000000Y-49500000D03*
%TO.N,Net-(D1-A)*%
X158000000Y-96000000D03*
X158000000Y-94000000D03*
%TO.N,Net-(D2-A)*%
X154000000Y-94000000D03*
X154000000Y-95560000D03*
%TO.N,Net-(D3-A)*%
X146000000Y-95560000D03*
X146000000Y-94000000D03*
%TO.N,Net-(D4-A)*%
X142500000Y-97500000D03*
X142000000Y-95500000D03*
%TD*%
D27*
%TO.N,Net-(Q4-G)*%
X175000000Y-77500000D02*
X171200000Y-77500000D01*
%TO.N,Net-(Q3-G)*%
X175000000Y-74000000D02*
X171800000Y-74000000D01*
%TO.N,Net-(Q2-G)*%
X175000000Y-70500000D02*
X172400000Y-70500000D01*
%TO.N,Net-(Q1-G)*%
X175000000Y-67000000D02*
X173000000Y-67000000D01*
%TO.N,Net-(J4-Pin_2)*%
X149000000Y-49500000D02*
X148730000Y-49770000D01*
X148730000Y-49770000D02*
X148730000Y-55650000D01*
%TO.N,Net-(D1-A)*%
X158000000Y-96000000D02*
X158000000Y-94000000D01*
%TO.N,Net-(D2-A)*%
X154000000Y-95560000D02*
X154000000Y-94000000D01*
%TO.N,Net-(D3-A)*%
X146000000Y-95560000D02*
X146000000Y-94000000D01*
%TO.N,Net-(D4-A)*%
X142500000Y-97500000D02*
X142000000Y-97000000D01*
X142000000Y-97000000D02*
X142000000Y-95500000D01*
%TD*%
%TA.AperFunction,Conductor*%
%TO.N,0*%
G36*
X171502702Y-32000617D02*
G01*
X171886773Y-32017386D01*
X171897505Y-32018326D01*
X172275963Y-32068150D01*
X172286601Y-32070025D01*
X172659279Y-32152647D01*
X172669720Y-32155445D01*
X173033765Y-32270227D01*
X173043911Y-32273920D01*
X173396578Y-32420000D01*
X173406369Y-32424566D01*
X173744942Y-32600816D01*
X173754310Y-32606224D01*
X174076244Y-32811318D01*
X174085105Y-32817523D01*
X174387930Y-33049889D01*
X174396217Y-33056843D01*
X174677635Y-33314715D01*
X174685284Y-33322364D01*
X174943156Y-33603782D01*
X174950110Y-33612069D01*
X175182476Y-33914894D01*
X175188681Y-33923755D01*
X175393775Y-34245689D01*
X175399183Y-34255057D01*
X175575430Y-34593623D01*
X175580002Y-34603427D01*
X175726075Y-34956078D01*
X175729775Y-34966244D01*
X175844553Y-35330276D01*
X175847353Y-35340724D01*
X175929972Y-35713390D01*
X175931850Y-35724044D01*
X175981671Y-36102472D01*
X175982614Y-36113248D01*
X175999382Y-36497297D01*
X175999500Y-36502706D01*
X175999500Y-65875308D01*
X175979815Y-65942347D01*
X175927011Y-65988102D01*
X175857853Y-65998046D01*
X175802615Y-65975627D01*
X175681609Y-65887712D01*
X175499223Y-65794781D01*
X175304534Y-65731522D01*
X175129995Y-65703878D01*
X175102352Y-65699500D01*
X174897648Y-65699500D01*
X174873329Y-65703351D01*
X174695465Y-65731522D01*
X174500776Y-65794781D01*
X174318386Y-65887715D01*
X174152786Y-66008028D01*
X174008028Y-66152786D01*
X173887715Y-66318385D01*
X173880883Y-66331795D01*
X173870433Y-66342859D01*
X173864111Y-66356703D01*
X173846931Y-66367743D01*
X173832909Y-66382591D01*
X173817227Y-66386832D01*
X173805333Y-66394477D01*
X173770398Y-66399500D01*
X173579766Y-66399500D01*
X173512727Y-66379815D01*
X173510875Y-66378602D01*
X173379185Y-66290609D01*
X173379172Y-66290602D01*
X173233501Y-66230264D01*
X173233489Y-66230261D01*
X173078845Y-66199500D01*
X173078842Y-66199500D01*
X172921158Y-66199500D01*
X172921155Y-66199500D01*
X172766510Y-66230261D01*
X172766498Y-66230264D01*
X172620827Y-66290602D01*
X172620814Y-66290609D01*
X172489711Y-66378210D01*
X172489707Y-66378213D01*
X172378213Y-66489707D01*
X172378210Y-66489711D01*
X172290609Y-66620814D01*
X172290602Y-66620827D01*
X172230264Y-66766498D01*
X172230261Y-66766510D01*
X172199500Y-66921153D01*
X172199500Y-67078846D01*
X172230261Y-67233489D01*
X172230264Y-67233501D01*
X172290602Y-67379172D01*
X172290609Y-67379185D01*
X172378210Y-67510288D01*
X172378213Y-67510292D01*
X172489707Y-67621786D01*
X172489711Y-67621789D01*
X172620814Y-67709390D01*
X172620827Y-67709397D01*
X172766498Y-67769735D01*
X172766503Y-67769737D01*
X172921153Y-67800499D01*
X172921156Y-67800500D01*
X172921158Y-67800500D01*
X173078844Y-67800500D01*
X173078845Y-67800499D01*
X173233497Y-67769737D01*
X173379179Y-67709394D01*
X173440823Y-67668205D01*
X173510875Y-67621398D01*
X173528921Y-67615747D01*
X173544831Y-67605523D01*
X173575792Y-67601071D01*
X173577553Y-67600520D01*
X173579766Y-67600500D01*
X173770398Y-67600500D01*
X173837437Y-67620185D01*
X173880883Y-67668205D01*
X173887715Y-67681614D01*
X174008028Y-67847213D01*
X174152786Y-67991971D01*
X174255816Y-68066825D01*
X174318390Y-68112287D01*
X174434607Y-68171503D01*
X174500776Y-68205218D01*
X174500778Y-68205218D01*
X174500781Y-68205220D01*
X174605137Y-68239127D01*
X174695465Y-68268477D01*
X174796557Y-68284488D01*
X174897648Y-68300500D01*
X174897649Y-68300500D01*
X175102351Y-68300500D01*
X175102352Y-68300500D01*
X175304534Y-68268477D01*
X175499219Y-68205220D01*
X175681610Y-68112287D01*
X175753451Y-68060091D01*
X175802615Y-68024373D01*
X175868421Y-68000893D01*
X175936475Y-68016719D01*
X175985170Y-68066825D01*
X175999500Y-68124691D01*
X175999500Y-69375308D01*
X175979815Y-69442347D01*
X175927011Y-69488102D01*
X175857853Y-69498046D01*
X175802615Y-69475627D01*
X175681609Y-69387712D01*
X175499223Y-69294781D01*
X175304534Y-69231522D01*
X175129995Y-69203878D01*
X175102352Y-69199500D01*
X174897648Y-69199500D01*
X174873329Y-69203351D01*
X174695465Y-69231522D01*
X174500776Y-69294781D01*
X174318386Y-69387715D01*
X174152786Y-69508028D01*
X174008028Y-69652786D01*
X173887715Y-69818385D01*
X173880883Y-69831795D01*
X173832909Y-69882591D01*
X173770398Y-69899500D01*
X172979766Y-69899500D01*
X172912727Y-69879815D01*
X172910875Y-69878602D01*
X172779185Y-69790609D01*
X172779172Y-69790602D01*
X172633501Y-69730264D01*
X172633489Y-69730261D01*
X172478845Y-69699500D01*
X172478842Y-69699500D01*
X172321158Y-69699500D01*
X172321155Y-69699500D01*
X172166510Y-69730261D01*
X172166498Y-69730264D01*
X172020827Y-69790602D01*
X172020814Y-69790609D01*
X171889711Y-69878210D01*
X171889707Y-69878213D01*
X171778213Y-69989707D01*
X171778210Y-69989711D01*
X171690609Y-70120814D01*
X171690602Y-70120827D01*
X171630264Y-70266498D01*
X171630261Y-70266510D01*
X171599500Y-70421153D01*
X171599500Y-70578846D01*
X171630261Y-70733489D01*
X171630264Y-70733501D01*
X171690602Y-70879172D01*
X171690609Y-70879185D01*
X171778210Y-71010288D01*
X171778213Y-71010292D01*
X171889707Y-71121786D01*
X171889711Y-71121789D01*
X172020814Y-71209390D01*
X172020827Y-71209397D01*
X172166498Y-71269735D01*
X172166503Y-71269737D01*
X172321153Y-71300499D01*
X172321156Y-71300500D01*
X172321158Y-71300500D01*
X172478844Y-71300500D01*
X172478845Y-71300499D01*
X172633497Y-71269737D01*
X172779179Y-71209394D01*
X172896594Y-71130940D01*
X172910875Y-71121398D01*
X172977553Y-71100520D01*
X172979766Y-71100500D01*
X173770398Y-71100500D01*
X173837437Y-71120185D01*
X173880883Y-71168205D01*
X173887715Y-71181614D01*
X174008028Y-71347213D01*
X174152786Y-71491971D01*
X174255816Y-71566825D01*
X174318390Y-71612287D01*
X174434607Y-71671503D01*
X174500776Y-71705218D01*
X174500778Y-71705218D01*
X174500781Y-71705220D01*
X174605137Y-71739127D01*
X174695465Y-71768477D01*
X174796557Y-71784488D01*
X174897648Y-71800500D01*
X174897649Y-71800500D01*
X175102351Y-71800500D01*
X175102352Y-71800500D01*
X175304534Y-71768477D01*
X175499219Y-71705220D01*
X175681610Y-71612287D01*
X175753451Y-71560091D01*
X175802615Y-71524373D01*
X175868421Y-71500893D01*
X175936475Y-71516719D01*
X175985170Y-71566825D01*
X175999500Y-71624691D01*
X175999500Y-72875308D01*
X175979815Y-72942347D01*
X175927011Y-72988102D01*
X175857853Y-72998046D01*
X175802615Y-72975627D01*
X175681609Y-72887712D01*
X175499223Y-72794781D01*
X175304534Y-72731522D01*
X175129995Y-72703878D01*
X175102352Y-72699500D01*
X174897648Y-72699500D01*
X174873329Y-72703351D01*
X174695465Y-72731522D01*
X174500776Y-72794781D01*
X174318386Y-72887715D01*
X174152786Y-73008028D01*
X174008028Y-73152786D01*
X173887715Y-73318385D01*
X173880883Y-73331795D01*
X173832909Y-73382591D01*
X173770398Y-73399500D01*
X172379766Y-73399500D01*
X172312727Y-73379815D01*
X172310875Y-73378602D01*
X172179185Y-73290609D01*
X172179172Y-73290602D01*
X172033501Y-73230264D01*
X172033489Y-73230261D01*
X171878845Y-73199500D01*
X171878842Y-73199500D01*
X171721158Y-73199500D01*
X171721155Y-73199500D01*
X171566510Y-73230261D01*
X171566498Y-73230264D01*
X171420827Y-73290602D01*
X171420814Y-73290609D01*
X171289711Y-73378210D01*
X171289707Y-73378213D01*
X171178213Y-73489707D01*
X171178210Y-73489711D01*
X171090609Y-73620814D01*
X171090602Y-73620827D01*
X171030264Y-73766498D01*
X171030261Y-73766510D01*
X170999500Y-73921153D01*
X170999500Y-74078846D01*
X171030261Y-74233489D01*
X171030264Y-74233501D01*
X171090602Y-74379172D01*
X171090609Y-74379185D01*
X171178210Y-74510288D01*
X171178213Y-74510292D01*
X171289707Y-74621786D01*
X171289711Y-74621789D01*
X171420814Y-74709390D01*
X171420827Y-74709397D01*
X171540574Y-74758997D01*
X171566503Y-74769737D01*
X171721153Y-74800499D01*
X171721156Y-74800500D01*
X171721158Y-74800500D01*
X171878844Y-74800500D01*
X171878845Y-74800499D01*
X172033497Y-74769737D01*
X172179179Y-74709394D01*
X172283183Y-74639901D01*
X172310875Y-74621398D01*
X172377553Y-74600520D01*
X172379766Y-74600500D01*
X173770398Y-74600500D01*
X173837437Y-74620185D01*
X173880883Y-74668205D01*
X173887715Y-74681614D01*
X174008028Y-74847213D01*
X174152786Y-74991971D01*
X174255816Y-75066825D01*
X174318390Y-75112287D01*
X174434607Y-75171503D01*
X174500776Y-75205218D01*
X174500778Y-75205218D01*
X174500781Y-75205220D01*
X174605137Y-75239127D01*
X174695465Y-75268477D01*
X174796557Y-75284488D01*
X174897648Y-75300500D01*
X174897649Y-75300500D01*
X175102351Y-75300500D01*
X175102352Y-75300500D01*
X175304534Y-75268477D01*
X175499219Y-75205220D01*
X175681610Y-75112287D01*
X175753451Y-75060091D01*
X175802615Y-75024373D01*
X175868421Y-75000893D01*
X175936475Y-75016719D01*
X175985170Y-75066825D01*
X175999500Y-75124691D01*
X175999500Y-76375308D01*
X175979815Y-76442347D01*
X175927011Y-76488102D01*
X175857853Y-76498046D01*
X175802615Y-76475627D01*
X175681609Y-76387712D01*
X175499223Y-76294781D01*
X175304534Y-76231522D01*
X175129995Y-76203878D01*
X175102352Y-76199500D01*
X174897648Y-76199500D01*
X174873329Y-76203351D01*
X174695465Y-76231522D01*
X174500776Y-76294781D01*
X174318386Y-76387715D01*
X174152786Y-76508028D01*
X174008028Y-76652786D01*
X173887715Y-76818385D01*
X173880883Y-76831795D01*
X173832909Y-76882591D01*
X173770398Y-76899500D01*
X171779766Y-76899500D01*
X171712727Y-76879815D01*
X171710875Y-76878602D01*
X171579185Y-76790609D01*
X171579172Y-76790602D01*
X171433501Y-76730264D01*
X171433489Y-76730261D01*
X171278845Y-76699500D01*
X171278842Y-76699500D01*
X171121158Y-76699500D01*
X171121155Y-76699500D01*
X170966510Y-76730261D01*
X170966498Y-76730264D01*
X170820827Y-76790602D01*
X170820814Y-76790609D01*
X170689711Y-76878210D01*
X170689707Y-76878213D01*
X170578213Y-76989707D01*
X170578210Y-76989711D01*
X170490609Y-77120814D01*
X170490602Y-77120827D01*
X170430264Y-77266498D01*
X170430261Y-77266510D01*
X170399500Y-77421153D01*
X170399500Y-77578846D01*
X170430261Y-77733489D01*
X170430264Y-77733501D01*
X170490602Y-77879172D01*
X170490609Y-77879185D01*
X170578210Y-78010288D01*
X170578213Y-78010292D01*
X170689707Y-78121786D01*
X170689711Y-78121789D01*
X170820814Y-78209390D01*
X170820827Y-78209397D01*
X170966498Y-78269735D01*
X170966503Y-78269737D01*
X171121153Y-78300499D01*
X171121156Y-78300500D01*
X171121158Y-78300500D01*
X171278844Y-78300500D01*
X171278845Y-78300499D01*
X171433497Y-78269737D01*
X171579179Y-78209394D01*
X171640823Y-78168205D01*
X171710875Y-78121398D01*
X171777553Y-78100520D01*
X171779766Y-78100500D01*
X173770398Y-78100500D01*
X173837437Y-78120185D01*
X173880883Y-78168205D01*
X173887715Y-78181614D01*
X174008028Y-78347213D01*
X174152786Y-78491971D01*
X174255816Y-78566825D01*
X174318390Y-78612287D01*
X174434607Y-78671503D01*
X174500776Y-78705218D01*
X174500778Y-78705218D01*
X174500781Y-78705220D01*
X174605137Y-78739127D01*
X174695465Y-78768477D01*
X174796557Y-78784488D01*
X174897648Y-78800500D01*
X174897649Y-78800500D01*
X175102351Y-78800500D01*
X175102352Y-78800500D01*
X175304534Y-78768477D01*
X175499219Y-78705220D01*
X175681610Y-78612287D01*
X175753451Y-78560091D01*
X175802615Y-78524373D01*
X175868421Y-78500893D01*
X175936475Y-78516719D01*
X175985170Y-78566825D01*
X175999500Y-78624691D01*
X175999500Y-101497293D01*
X175999382Y-101502702D01*
X175982614Y-101886751D01*
X175981671Y-101897527D01*
X175931850Y-102275955D01*
X175929972Y-102286609D01*
X175847353Y-102659275D01*
X175844553Y-102669723D01*
X175729775Y-103033755D01*
X175726075Y-103043921D01*
X175580002Y-103396572D01*
X175575430Y-103406376D01*
X175399183Y-103744942D01*
X175393775Y-103754310D01*
X175188681Y-104076244D01*
X175182476Y-104085105D01*
X174950110Y-104387930D01*
X174943156Y-104396217D01*
X174685284Y-104677635D01*
X174677635Y-104685284D01*
X174396217Y-104943156D01*
X174387930Y-104950110D01*
X174085105Y-105182476D01*
X174076244Y-105188681D01*
X173754310Y-105393775D01*
X173744942Y-105399183D01*
X173406376Y-105575430D01*
X173396572Y-105580002D01*
X173043921Y-105726075D01*
X173033755Y-105729775D01*
X172669723Y-105844553D01*
X172659275Y-105847353D01*
X172286609Y-105929972D01*
X172275955Y-105931850D01*
X171897527Y-105981671D01*
X171886751Y-105982614D01*
X171502703Y-105999382D01*
X171497294Y-105999500D01*
X128502706Y-105999500D01*
X128497297Y-105999382D01*
X128113248Y-105982614D01*
X128102474Y-105981671D01*
X128040007Y-105973447D01*
X127724044Y-105931850D01*
X127713390Y-105929972D01*
X127340724Y-105847353D01*
X127330276Y-105844553D01*
X126966244Y-105729775D01*
X126956078Y-105726075D01*
X126603427Y-105580002D01*
X126593623Y-105575430D01*
X126255057Y-105399183D01*
X126245689Y-105393775D01*
X125923755Y-105188681D01*
X125914894Y-105182476D01*
X125612069Y-104950110D01*
X125603782Y-104943156D01*
X125322364Y-104685284D01*
X125314715Y-104677635D01*
X125056843Y-104396217D01*
X125049889Y-104387930D01*
X124817523Y-104085105D01*
X124811318Y-104076244D01*
X124606224Y-103754310D01*
X124600816Y-103744942D01*
X124521374Y-103592335D01*
X124424566Y-103406369D01*
X124419997Y-103396572D01*
X124413367Y-103380566D01*
X124273920Y-103043911D01*
X124270224Y-103033755D01*
X124265387Y-103018414D01*
X124155445Y-102669720D01*
X124152646Y-102659275D01*
X124140899Y-102606287D01*
X124070025Y-102286601D01*
X124068149Y-102275955D01*
X124018326Y-101897505D01*
X124017386Y-101886771D01*
X124004959Y-101602135D01*
X143569500Y-101602135D01*
X143569500Y-103397870D01*
X143569501Y-103397876D01*
X143575908Y-103457483D01*
X143626202Y-103592328D01*
X143626206Y-103592335D01*
X143712452Y-103707544D01*
X143712455Y-103707547D01*
X143827664Y-103793793D01*
X143827671Y-103793797D01*
X143962517Y-103844091D01*
X143962516Y-103844091D01*
X143969444Y-103844835D01*
X144022127Y-103850500D01*
X145817872Y-103850499D01*
X145877483Y-103844091D01*
X146012331Y-103793796D01*
X146127546Y-103707546D01*
X146213796Y-103592331D01*
X146262810Y-103460916D01*
X146304681Y-103404984D01*
X146370145Y-103380566D01*
X146438418Y-103395417D01*
X146466673Y-103416569D01*
X146580213Y-103530109D01*
X146752179Y-103655048D01*
X146752181Y-103655049D01*
X146752184Y-103655051D01*
X146941588Y-103751557D01*
X147143757Y-103817246D01*
X147353713Y-103850500D01*
X147353714Y-103850500D01*
X147566286Y-103850500D01*
X147566287Y-103850500D01*
X147776243Y-103817246D01*
X147978412Y-103751557D01*
X148167816Y-103655051D01*
X148254138Y-103592335D01*
X148339786Y-103530109D01*
X148339788Y-103530106D01*
X148339792Y-103530104D01*
X148490104Y-103379792D01*
X148490106Y-103379788D01*
X148490109Y-103379786D01*
X148615048Y-103207820D01*
X148615047Y-103207820D01*
X148615051Y-103207816D01*
X148619514Y-103199054D01*
X148667488Y-103148259D01*
X148735308Y-103131463D01*
X148801444Y-103153999D01*
X148840486Y-103199056D01*
X148844951Y-103207820D01*
X148969890Y-103379786D01*
X149120213Y-103530109D01*
X149292179Y-103655048D01*
X149292181Y-103655049D01*
X149292184Y-103655051D01*
X149481588Y-103751557D01*
X149683757Y-103817246D01*
X149893713Y-103850500D01*
X149893714Y-103850500D01*
X150106286Y-103850500D01*
X150106287Y-103850500D01*
X150316243Y-103817246D01*
X150518412Y-103751557D01*
X150707816Y-103655051D01*
X150794138Y-103592335D01*
X150879786Y-103530109D01*
X150879788Y-103530106D01*
X150879792Y-103530104D01*
X151030104Y-103379792D01*
X151030106Y-103379788D01*
X151030109Y-103379786D01*
X151155048Y-103207820D01*
X151155047Y-103207820D01*
X151155051Y-103207816D01*
X151159514Y-103199054D01*
X151207488Y-103148259D01*
X151275308Y-103131463D01*
X151341444Y-103153999D01*
X151380486Y-103199056D01*
X151384951Y-103207820D01*
X151509890Y-103379786D01*
X151660213Y-103530109D01*
X151832179Y-103655048D01*
X151832181Y-103655049D01*
X151832184Y-103655051D01*
X152021588Y-103751557D01*
X152223757Y-103817246D01*
X152433713Y-103850500D01*
X152433714Y-103850500D01*
X152646286Y-103850500D01*
X152646287Y-103850500D01*
X152856243Y-103817246D01*
X153058412Y-103751557D01*
X153247816Y-103655051D01*
X153334138Y-103592335D01*
X153419786Y-103530109D01*
X153419788Y-103530106D01*
X153419792Y-103530104D01*
X153570104Y-103379792D01*
X153570106Y-103379788D01*
X153570109Y-103379786D01*
X153695048Y-103207820D01*
X153695047Y-103207820D01*
X153695051Y-103207816D01*
X153699514Y-103199054D01*
X153747488Y-103148259D01*
X153815308Y-103131463D01*
X153881444Y-103153999D01*
X153920486Y-103199056D01*
X153924951Y-103207820D01*
X154049890Y-103379786D01*
X154200213Y-103530109D01*
X154372179Y-103655048D01*
X154372181Y-103655049D01*
X154372184Y-103655051D01*
X154561588Y-103751557D01*
X154763757Y-103817246D01*
X154973713Y-103850500D01*
X154973714Y-103850500D01*
X155186286Y-103850500D01*
X155186287Y-103850500D01*
X155396243Y-103817246D01*
X155598412Y-103751557D01*
X155787816Y-103655051D01*
X155874138Y-103592335D01*
X155959786Y-103530109D01*
X155959788Y-103530106D01*
X155959792Y-103530104D01*
X156110104Y-103379792D01*
X156110106Y-103379788D01*
X156110109Y-103379786D01*
X156235048Y-103207820D01*
X156235047Y-103207820D01*
X156235051Y-103207816D01*
X156331557Y-103018412D01*
X156397246Y-102816243D01*
X156430500Y-102606287D01*
X156430500Y-102393713D01*
X156397246Y-102183757D01*
X156331557Y-101981588D01*
X156235051Y-101792184D01*
X156235049Y-101792181D01*
X156235048Y-101792179D01*
X156110109Y-101620213D01*
X155959786Y-101469890D01*
X155787820Y-101344951D01*
X155598414Y-101248444D01*
X155598413Y-101248443D01*
X155598412Y-101248443D01*
X155396243Y-101182754D01*
X155396241Y-101182753D01*
X155396240Y-101182753D01*
X155234957Y-101157208D01*
X155186287Y-101149500D01*
X154973713Y-101149500D01*
X154925042Y-101157208D01*
X154763760Y-101182753D01*
X154561585Y-101248444D01*
X154372179Y-101344951D01*
X154200213Y-101469890D01*
X154049890Y-101620213D01*
X153924949Y-101792182D01*
X153920484Y-101800946D01*
X153872509Y-101851742D01*
X153804688Y-101868536D01*
X153738553Y-101845998D01*
X153699516Y-101800946D01*
X153695050Y-101792182D01*
X153570109Y-101620213D01*
X153419786Y-101469890D01*
X153247820Y-101344951D01*
X153058414Y-101248444D01*
X153058413Y-101248443D01*
X153058412Y-101248443D01*
X152856243Y-101182754D01*
X152856241Y-101182753D01*
X152856240Y-101182753D01*
X152694957Y-101157208D01*
X152646287Y-101149500D01*
X152433713Y-101149500D01*
X152385042Y-101157208D01*
X152223760Y-101182753D01*
X152021585Y-101248444D01*
X151832179Y-101344951D01*
X151660213Y-101469890D01*
X151509890Y-101620213D01*
X151384949Y-101792182D01*
X151380484Y-101800946D01*
X151332509Y-101851742D01*
X151264688Y-101868536D01*
X151198553Y-101845998D01*
X151159516Y-101800946D01*
X151155050Y-101792182D01*
X151030109Y-101620213D01*
X150879786Y-101469890D01*
X150707820Y-101344951D01*
X150518414Y-101248444D01*
X150518413Y-101248443D01*
X150518412Y-101248443D01*
X150316243Y-101182754D01*
X150316241Y-101182753D01*
X150316240Y-101182753D01*
X150154957Y-101157208D01*
X150106287Y-101149500D01*
X149893713Y-101149500D01*
X149845042Y-101157208D01*
X149683760Y-101182753D01*
X149481585Y-101248444D01*
X149292179Y-101344951D01*
X149120213Y-101469890D01*
X148969890Y-101620213D01*
X148844949Y-101792182D01*
X148840484Y-101800946D01*
X148792509Y-101851742D01*
X148724688Y-101868536D01*
X148658553Y-101845998D01*
X148619516Y-101800946D01*
X148615050Y-101792182D01*
X148490109Y-101620213D01*
X148339786Y-101469890D01*
X148167820Y-101344951D01*
X147978414Y-101248444D01*
X147978413Y-101248443D01*
X147978412Y-101248443D01*
X147776243Y-101182754D01*
X147776241Y-101182753D01*
X147776240Y-101182753D01*
X147614957Y-101157208D01*
X147566287Y-101149500D01*
X147353713Y-101149500D01*
X147305042Y-101157208D01*
X147143760Y-101182753D01*
X146941585Y-101248444D01*
X146752179Y-101344951D01*
X146580215Y-101469889D01*
X146466673Y-101583431D01*
X146405350Y-101616915D01*
X146335658Y-101611931D01*
X146279725Y-101570059D01*
X146262810Y-101539082D01*
X146213797Y-101407671D01*
X146213793Y-101407664D01*
X146127547Y-101292455D01*
X146127544Y-101292452D01*
X146012335Y-101206206D01*
X146012328Y-101206202D01*
X145877482Y-101155908D01*
X145877483Y-101155908D01*
X145817883Y-101149501D01*
X145817881Y-101149500D01*
X145817873Y-101149500D01*
X145817864Y-101149500D01*
X144022129Y-101149500D01*
X144022123Y-101149501D01*
X143962516Y-101155908D01*
X143827671Y-101206202D01*
X143827664Y-101206206D01*
X143712455Y-101292452D01*
X143712452Y-101292455D01*
X143626206Y-101407664D01*
X143626202Y-101407671D01*
X143575908Y-101542517D01*
X143569501Y-101602116D01*
X143569500Y-101602135D01*
X124004959Y-101602135D01*
X124000618Y-101502702D01*
X124000500Y-101497293D01*
X124000500Y-94857648D01*
X134699500Y-94857648D01*
X134699500Y-95062351D01*
X134731522Y-95264534D01*
X134794781Y-95459223D01*
X134820361Y-95509425D01*
X134877120Y-95620821D01*
X134887715Y-95641613D01*
X135008028Y-95807213D01*
X135152786Y-95951971D01*
X135262358Y-96031578D01*
X135318390Y-96072287D01*
X135413553Y-96120775D01*
X135500776Y-96165218D01*
X135500778Y-96165218D01*
X135500781Y-96165220D01*
X135555795Y-96183095D01*
X135695465Y-96228477D01*
X135780473Y-96241941D01*
X135897648Y-96260500D01*
X135897649Y-96260500D01*
X136102351Y-96260500D01*
X136102352Y-96260500D01*
X136304534Y-96228477D01*
X136499219Y-96165220D01*
X136681610Y-96072287D01*
X136774590Y-96004732D01*
X136847213Y-95951971D01*
X136847215Y-95951968D01*
X136847219Y-95951966D01*
X136889201Y-95909984D01*
X138799500Y-95909984D01*
X138799500Y-97010015D01*
X138810000Y-97112795D01*
X138810001Y-97112796D01*
X138865186Y-97279335D01*
X138865187Y-97279337D01*
X138957286Y-97428651D01*
X138957289Y-97428655D01*
X139081344Y-97552710D01*
X139081348Y-97552713D01*
X139230662Y-97644812D01*
X139230664Y-97644813D01*
X139230666Y-97644814D01*
X139397203Y-97699999D01*
X139499992Y-97710500D01*
X139499997Y-97710500D01*
X140600003Y-97710500D01*
X140600008Y-97710500D01*
X140702797Y-97699999D01*
X140869334Y-97644814D01*
X141018655Y-97552711D01*
X141142711Y-97428655D01*
X141234814Y-97279334D01*
X141234815Y-97279329D01*
X141237866Y-97272789D01*
X141240583Y-97274056D01*
X141272622Y-97227754D01*
X141337129Y-97200911D01*
X141405909Y-97213205D01*
X141457123Y-97260733D01*
X141457971Y-97262179D01*
X141519477Y-97368712D01*
X141519481Y-97368717D01*
X141631284Y-97480520D01*
X141665425Y-97514660D01*
X141698911Y-97575983D01*
X141699362Y-97578151D01*
X141730261Y-97733491D01*
X141730264Y-97733501D01*
X141790602Y-97879172D01*
X141790609Y-97879185D01*
X141878210Y-98010288D01*
X141878213Y-98010292D01*
X141989707Y-98121786D01*
X141989711Y-98121789D01*
X142120814Y-98209390D01*
X142120827Y-98209397D01*
X142266498Y-98269735D01*
X142266503Y-98269737D01*
X142421153Y-98300499D01*
X142421156Y-98300500D01*
X142421158Y-98300500D01*
X142578844Y-98300500D01*
X142578845Y-98300499D01*
X142733497Y-98269737D01*
X142879179Y-98209394D01*
X143010289Y-98121789D01*
X143121789Y-98010289D01*
X143209394Y-97879179D01*
X143269737Y-97733497D01*
X143300500Y-97578842D01*
X143300500Y-97421158D01*
X143300500Y-97421155D01*
X143300499Y-97421153D01*
X143290069Y-97368717D01*
X143269737Y-97266503D01*
X143257044Y-97235858D01*
X143209397Y-97120827D01*
X143209390Y-97120814D01*
X143121789Y-96989711D01*
X143121786Y-96989707D01*
X143010292Y-96878213D01*
X143010288Y-96878210D01*
X142879185Y-96790609D01*
X142879172Y-96790602D01*
X142733501Y-96730264D01*
X142733489Y-96730261D01*
X142700309Y-96723661D01*
X142638398Y-96691276D01*
X142603824Y-96630561D01*
X142600500Y-96602044D01*
X142600500Y-96079765D01*
X142620185Y-96012726D01*
X142621398Y-96010874D01*
X142660759Y-95951967D01*
X142709394Y-95879179D01*
X142709395Y-95879176D01*
X142709397Y-95879173D01*
X142752082Y-95776120D01*
X142795922Y-95721716D01*
X142862216Y-95699651D01*
X142929916Y-95716930D01*
X142966962Y-95750688D01*
X143008030Y-95807215D01*
X143152786Y-95951971D01*
X143262358Y-96031578D01*
X143318390Y-96072287D01*
X143413553Y-96120775D01*
X143500776Y-96165218D01*
X143500778Y-96165218D01*
X143500781Y-96165220D01*
X143555795Y-96183095D01*
X143695465Y-96228477D01*
X143780473Y-96241941D01*
X143897648Y-96260500D01*
X143897649Y-96260500D01*
X144102351Y-96260500D01*
X144102352Y-96260500D01*
X144304534Y-96228477D01*
X144499219Y-96165220D01*
X144681610Y-96072287D01*
X144774590Y-96004732D01*
X144847213Y-95951971D01*
X144847215Y-95951968D01*
X144847219Y-95951966D01*
X144991966Y-95807219D01*
X145017209Y-95772473D01*
X145072537Y-95729808D01*
X145142150Y-95723827D01*
X145203946Y-95756431D01*
X145232089Y-95797906D01*
X145290602Y-95939172D01*
X145290609Y-95939185D01*
X145378210Y-96070288D01*
X145378213Y-96070292D01*
X145489707Y-96181786D01*
X145489711Y-96181789D01*
X145620814Y-96269390D01*
X145620827Y-96269397D01*
X145766498Y-96329735D01*
X145766503Y-96329737D01*
X145921153Y-96360499D01*
X145921156Y-96360500D01*
X145921158Y-96360500D01*
X146078844Y-96360500D01*
X146078845Y-96360499D01*
X146233497Y-96329737D01*
X146379179Y-96269394D01*
X146510289Y-96181789D01*
X146510292Y-96181786D01*
X146537819Y-96154260D01*
X146599142Y-96120775D01*
X146668834Y-96125759D01*
X146724767Y-96167631D01*
X146749184Y-96233095D01*
X146749500Y-96241941D01*
X146749500Y-97010015D01*
X146760000Y-97112795D01*
X146760001Y-97112796D01*
X146815186Y-97279335D01*
X146815187Y-97279337D01*
X146907286Y-97428651D01*
X146907289Y-97428655D01*
X147031344Y-97552710D01*
X147031348Y-97552713D01*
X147180662Y-97644812D01*
X147180664Y-97644813D01*
X147180666Y-97644814D01*
X147347203Y-97699999D01*
X147449992Y-97710500D01*
X147449997Y-97710500D01*
X148550003Y-97710500D01*
X148550008Y-97710500D01*
X148652797Y-97699999D01*
X148819334Y-97644814D01*
X148968655Y-97552711D01*
X149092711Y-97428655D01*
X149184814Y-97279334D01*
X149239999Y-97112797D01*
X149250500Y-97010008D01*
X149250500Y-95909992D01*
X149239999Y-95807203D01*
X149184814Y-95640666D01*
X149172573Y-95620821D01*
X149092713Y-95491348D01*
X149092710Y-95491344D01*
X148968655Y-95367289D01*
X148968651Y-95367286D01*
X148819337Y-95275187D01*
X148819335Y-95275186D01*
X148736065Y-95247593D01*
X148652797Y-95220001D01*
X148652795Y-95220000D01*
X148550015Y-95209500D01*
X148550008Y-95209500D01*
X147449992Y-95209500D01*
X147449984Y-95209500D01*
X147347204Y-95220000D01*
X147347203Y-95220001D01*
X147180664Y-95275186D01*
X147180662Y-95275187D01*
X147031348Y-95367286D01*
X147031344Y-95367289D01*
X146983946Y-95414687D01*
X146922623Y-95448171D01*
X146852931Y-95443186D01*
X146796998Y-95401314D01*
X146774649Y-95351197D01*
X146769737Y-95326503D01*
X146758568Y-95299539D01*
X146709397Y-95180827D01*
X146709390Y-95180814D01*
X146621398Y-95049125D01*
X146615747Y-95031078D01*
X146605523Y-95015169D01*
X146601071Y-94984207D01*
X146600520Y-94982447D01*
X146600500Y-94980234D01*
X146600500Y-94857648D01*
X150699500Y-94857648D01*
X150699500Y-95062351D01*
X150731522Y-95264534D01*
X150794781Y-95459223D01*
X150820361Y-95509425D01*
X150877120Y-95620821D01*
X150887715Y-95641613D01*
X151008028Y-95807213D01*
X151152786Y-95951971D01*
X151262358Y-96031578D01*
X151318390Y-96072287D01*
X151413553Y-96120775D01*
X151500776Y-96165218D01*
X151500778Y-96165218D01*
X151500781Y-96165220D01*
X151555795Y-96183095D01*
X151695465Y-96228477D01*
X151780473Y-96241941D01*
X151897648Y-96260500D01*
X151897649Y-96260500D01*
X152102351Y-96260500D01*
X152102352Y-96260500D01*
X152304534Y-96228477D01*
X152499219Y-96165220D01*
X152681610Y-96072287D01*
X152774590Y-96004732D01*
X152847213Y-95951971D01*
X152847215Y-95951968D01*
X152847219Y-95951966D01*
X152991966Y-95807219D01*
X153017209Y-95772473D01*
X153072537Y-95729808D01*
X153142150Y-95723827D01*
X153203946Y-95756431D01*
X153232089Y-95797906D01*
X153290602Y-95939172D01*
X153290609Y-95939185D01*
X153378210Y-96070288D01*
X153378213Y-96070292D01*
X153489707Y-96181786D01*
X153489711Y-96181789D01*
X153620814Y-96269390D01*
X153620827Y-96269397D01*
X153766498Y-96329735D01*
X153766503Y-96329737D01*
X153921153Y-96360499D01*
X153921156Y-96360500D01*
X153921158Y-96360500D01*
X154078844Y-96360500D01*
X154078845Y-96360499D01*
X154233497Y-96329737D01*
X154379179Y-96269394D01*
X154510289Y-96181789D01*
X154537818Y-96154260D01*
X154587819Y-96104260D01*
X154649142Y-96070775D01*
X154718834Y-96075759D01*
X154774767Y-96117631D01*
X154799184Y-96183095D01*
X154799500Y-96191941D01*
X154799500Y-97010015D01*
X154810000Y-97112795D01*
X154810001Y-97112796D01*
X154865186Y-97279335D01*
X154865187Y-97279337D01*
X154957286Y-97428651D01*
X154957289Y-97428655D01*
X155081344Y-97552710D01*
X155081348Y-97552713D01*
X155230662Y-97644812D01*
X155230664Y-97644813D01*
X155230666Y-97644814D01*
X155397203Y-97699999D01*
X155499992Y-97710500D01*
X155499997Y-97710500D01*
X156600003Y-97710500D01*
X156600008Y-97710500D01*
X156702797Y-97699999D01*
X156869334Y-97644814D01*
X157018655Y-97552711D01*
X157142711Y-97428655D01*
X157234814Y-97279334D01*
X157289999Y-97112797D01*
X157300500Y-97010008D01*
X157300500Y-96727350D01*
X157320185Y-96660311D01*
X157372989Y-96614556D01*
X157442147Y-96604612D01*
X157493391Y-96624248D01*
X157620814Y-96709390D01*
X157620827Y-96709397D01*
X157766498Y-96769735D01*
X157766503Y-96769737D01*
X157921153Y-96800499D01*
X157921156Y-96800500D01*
X157921158Y-96800500D01*
X158078844Y-96800500D01*
X158078845Y-96800499D01*
X158233497Y-96769737D01*
X158379179Y-96709394D01*
X158510289Y-96621789D01*
X158621789Y-96510289D01*
X158709394Y-96379179D01*
X158769737Y-96233497D01*
X158800500Y-96078842D01*
X158800500Y-95921158D01*
X158800426Y-95920787D01*
X158800444Y-95920587D01*
X158799903Y-95915093D01*
X158800944Y-95914990D01*
X158806649Y-95851198D01*
X158849507Y-95796017D01*
X158915395Y-95772767D01*
X158983394Y-95788830D01*
X159009723Y-95808908D01*
X159152786Y-95951971D01*
X159262358Y-96031578D01*
X159318390Y-96072287D01*
X159413553Y-96120775D01*
X159500776Y-96165218D01*
X159500778Y-96165218D01*
X159500781Y-96165220D01*
X159555795Y-96183095D01*
X159695465Y-96228477D01*
X159780473Y-96241941D01*
X159897648Y-96260500D01*
X159897649Y-96260500D01*
X160102351Y-96260500D01*
X160102352Y-96260500D01*
X160304534Y-96228477D01*
X160499219Y-96165220D01*
X160681610Y-96072287D01*
X160774590Y-96004732D01*
X160847213Y-95951971D01*
X160847215Y-95951968D01*
X160847219Y-95951966D01*
X160889201Y-95909984D01*
X162749500Y-95909984D01*
X162749500Y-97010015D01*
X162760000Y-97112795D01*
X162760001Y-97112796D01*
X162815186Y-97279335D01*
X162815187Y-97279337D01*
X162907286Y-97428651D01*
X162907289Y-97428655D01*
X163031344Y-97552710D01*
X163031348Y-97552713D01*
X163180662Y-97644812D01*
X163180664Y-97644813D01*
X163180666Y-97644814D01*
X163347203Y-97699999D01*
X163449992Y-97710500D01*
X163449997Y-97710500D01*
X164550003Y-97710500D01*
X164550008Y-97710500D01*
X164652797Y-97699999D01*
X164819334Y-97644814D01*
X164968655Y-97552711D01*
X165092711Y-97428655D01*
X165184814Y-97279334D01*
X165239999Y-97112797D01*
X165250500Y-97010008D01*
X165250500Y-95909992D01*
X165239999Y-95807203D01*
X165184814Y-95640666D01*
X165172573Y-95620821D01*
X165092713Y-95491348D01*
X165092710Y-95491344D01*
X164968655Y-95367289D01*
X164968651Y-95367286D01*
X164819337Y-95275187D01*
X164819335Y-95275186D01*
X164736065Y-95247593D01*
X164652797Y-95220001D01*
X164652795Y-95220000D01*
X164550015Y-95209500D01*
X164550008Y-95209500D01*
X163449992Y-95209500D01*
X163449984Y-95209500D01*
X163347204Y-95220000D01*
X163347203Y-95220001D01*
X163180664Y-95275186D01*
X163180662Y-95275187D01*
X163031348Y-95367286D01*
X163031344Y-95367289D01*
X162907289Y-95491344D01*
X162907286Y-95491348D01*
X162815187Y-95640662D01*
X162815186Y-95640664D01*
X162760001Y-95807203D01*
X162760000Y-95807204D01*
X162749500Y-95909984D01*
X160889201Y-95909984D01*
X160991966Y-95807219D01*
X160991968Y-95807215D01*
X160991971Y-95807213D01*
X161070118Y-95699651D01*
X161112287Y-95641610D01*
X161205220Y-95459219D01*
X161268477Y-95264534D01*
X161300500Y-95062352D01*
X161300500Y-94857648D01*
X161280324Y-94730261D01*
X161268477Y-94655465D01*
X161205218Y-94460776D01*
X161163638Y-94379172D01*
X161112287Y-94278390D01*
X161104556Y-94267749D01*
X160991971Y-94112786D01*
X160847213Y-93968028D01*
X160681613Y-93847715D01*
X160681612Y-93847714D01*
X160681610Y-93847713D01*
X160624653Y-93818691D01*
X160499223Y-93754781D01*
X160304534Y-93691522D01*
X160129995Y-93663878D01*
X160102352Y-93659500D01*
X159897648Y-93659500D01*
X159873329Y-93663351D01*
X159695465Y-93691522D01*
X159500776Y-93754781D01*
X159318386Y-93847715D01*
X159152786Y-93968028D01*
X159152782Y-93968032D01*
X159012181Y-94108634D01*
X158950858Y-94142119D01*
X158881166Y-94137135D01*
X158825233Y-94095263D01*
X158800816Y-94029799D01*
X158800500Y-94020953D01*
X158800500Y-93921155D01*
X158800499Y-93921153D01*
X158769738Y-93766510D01*
X158769737Y-93766503D01*
X158743350Y-93702799D01*
X158709397Y-93620827D01*
X158709390Y-93620814D01*
X158621789Y-93489711D01*
X158621786Y-93489707D01*
X158510292Y-93378213D01*
X158510288Y-93378210D01*
X158379185Y-93290609D01*
X158379172Y-93290602D01*
X158233501Y-93230264D01*
X158233489Y-93230261D01*
X158078845Y-93199500D01*
X158078842Y-93199500D01*
X157921158Y-93199500D01*
X157921155Y-93199500D01*
X157766510Y-93230261D01*
X157766498Y-93230264D01*
X157620827Y-93290602D01*
X157620814Y-93290609D01*
X157489711Y-93378210D01*
X157489707Y-93378213D01*
X157378213Y-93489707D01*
X157378210Y-93489711D01*
X157290609Y-93620814D01*
X157290602Y-93620827D01*
X157230264Y-93766498D01*
X157230261Y-93766510D01*
X157199500Y-93921153D01*
X157199500Y-94078846D01*
X157230261Y-94233489D01*
X157230264Y-94233501D01*
X157290602Y-94379172D01*
X157290609Y-94379185D01*
X157378602Y-94510874D01*
X157399480Y-94577551D01*
X157399500Y-94579765D01*
X157399500Y-95420234D01*
X157394171Y-95438379D01*
X157393834Y-95457289D01*
X157380335Y-95485501D01*
X157379815Y-95487273D01*
X157378601Y-95489126D01*
X157362502Y-95513219D01*
X157308889Y-95558024D01*
X157239564Y-95566730D01*
X157176537Y-95536574D01*
X157153863Y-95509425D01*
X157142711Y-95491345D01*
X157018655Y-95367289D01*
X157018651Y-95367286D01*
X156869337Y-95275187D01*
X156869335Y-95275186D01*
X156786065Y-95247593D01*
X156702797Y-95220001D01*
X156702795Y-95220000D01*
X156600015Y-95209500D01*
X156600008Y-95209500D01*
X155499992Y-95209500D01*
X155499984Y-95209500D01*
X155397204Y-95220000D01*
X155397203Y-95220001D01*
X155230664Y-95275186D01*
X155230662Y-95275187D01*
X155081348Y-95367286D01*
X154992243Y-95456391D01*
X154930919Y-95489875D01*
X154861228Y-95484891D01*
X154805294Y-95443019D01*
X154782945Y-95392901D01*
X154769738Y-95326508D01*
X154769737Y-95326507D01*
X154769737Y-95326503D01*
X154758568Y-95299539D01*
X154709397Y-95180827D01*
X154709390Y-95180814D01*
X154621398Y-95049125D01*
X154600520Y-94982447D01*
X154600500Y-94980234D01*
X154600500Y-94579765D01*
X154620185Y-94512726D01*
X154621398Y-94510874D01*
X154654873Y-94460776D01*
X154709394Y-94379179D01*
X154769737Y-94233497D01*
X154800500Y-94078842D01*
X154800500Y-93921158D01*
X154800500Y-93921155D01*
X154800499Y-93921153D01*
X154769738Y-93766510D01*
X154769737Y-93766503D01*
X154743350Y-93702799D01*
X154709397Y-93620827D01*
X154709390Y-93620814D01*
X154621789Y-93489711D01*
X154621786Y-93489707D01*
X154510292Y-93378213D01*
X154510288Y-93378210D01*
X154379185Y-93290609D01*
X154379172Y-93290602D01*
X154233501Y-93230264D01*
X154233489Y-93230261D01*
X154078845Y-93199500D01*
X154078842Y-93199500D01*
X153921158Y-93199500D01*
X153921155Y-93199500D01*
X153766510Y-93230261D01*
X153766498Y-93230264D01*
X153620827Y-93290602D01*
X153620814Y-93290609D01*
X153489711Y-93378210D01*
X153489707Y-93378213D01*
X153378213Y-93489707D01*
X153378210Y-93489711D01*
X153290609Y-93620814D01*
X153290602Y-93620827D01*
X153230264Y-93766498D01*
X153230261Y-93766510D01*
X153199500Y-93921153D01*
X153199500Y-94020953D01*
X153179815Y-94087992D01*
X153127011Y-94133747D01*
X153057853Y-94143691D01*
X152994297Y-94114666D01*
X152987819Y-94108634D01*
X152847213Y-93968028D01*
X152681613Y-93847715D01*
X152681612Y-93847714D01*
X152681610Y-93847713D01*
X152624653Y-93818691D01*
X152499223Y-93754781D01*
X152304534Y-93691522D01*
X152129995Y-93663878D01*
X152102352Y-93659500D01*
X151897648Y-93659500D01*
X151873329Y-93663351D01*
X151695465Y-93691522D01*
X151500776Y-93754781D01*
X151318386Y-93847715D01*
X151152786Y-93968028D01*
X151008028Y-94112786D01*
X150887715Y-94278386D01*
X150794781Y-94460776D01*
X150731522Y-94655465D01*
X150699500Y-94857648D01*
X146600500Y-94857648D01*
X146600500Y-94579765D01*
X146620185Y-94512726D01*
X146621398Y-94510874D01*
X146654873Y-94460776D01*
X146709394Y-94379179D01*
X146769737Y-94233497D01*
X146800500Y-94078842D01*
X146800500Y-93921158D01*
X146800500Y-93921155D01*
X146800499Y-93921153D01*
X146769738Y-93766510D01*
X146769737Y-93766503D01*
X146743350Y-93702799D01*
X146709397Y-93620827D01*
X146709390Y-93620814D01*
X146621789Y-93489711D01*
X146621786Y-93489707D01*
X146510292Y-93378213D01*
X146510288Y-93378210D01*
X146379185Y-93290609D01*
X146379172Y-93290602D01*
X146233501Y-93230264D01*
X146233489Y-93230261D01*
X146078845Y-93199500D01*
X146078842Y-93199500D01*
X145921158Y-93199500D01*
X145921155Y-93199500D01*
X145766510Y-93230261D01*
X145766498Y-93230264D01*
X145620827Y-93290602D01*
X145620814Y-93290609D01*
X145489711Y-93378210D01*
X145489707Y-93378213D01*
X145378213Y-93489707D01*
X145378210Y-93489711D01*
X145290609Y-93620814D01*
X145290602Y-93620827D01*
X145230264Y-93766498D01*
X145230261Y-93766510D01*
X145199500Y-93921153D01*
X145199500Y-94020953D01*
X145179815Y-94087992D01*
X145127011Y-94133747D01*
X145057853Y-94143691D01*
X144994297Y-94114666D01*
X144987819Y-94108634D01*
X144847213Y-93968028D01*
X144681613Y-93847715D01*
X144681612Y-93847714D01*
X144681610Y-93847713D01*
X144624653Y-93818691D01*
X144499223Y-93754781D01*
X144304534Y-93691522D01*
X144129995Y-93663878D01*
X144102352Y-93659500D01*
X143897648Y-93659500D01*
X143873329Y-93663351D01*
X143695465Y-93691522D01*
X143500776Y-93754781D01*
X143318386Y-93847715D01*
X143152786Y-93968028D01*
X143008028Y-94112786D01*
X142887715Y-94278386D01*
X142794781Y-94460776D01*
X142731522Y-94655465D01*
X142708706Y-94799522D01*
X142678777Y-94862657D01*
X142619465Y-94899588D01*
X142549602Y-94898590D01*
X142516055Y-94880545D01*
X142515354Y-94881595D01*
X142379185Y-94790609D01*
X142379172Y-94790602D01*
X142233501Y-94730264D01*
X142233489Y-94730261D01*
X142078845Y-94699500D01*
X142078842Y-94699500D01*
X141921158Y-94699500D01*
X141921155Y-94699500D01*
X141766510Y-94730261D01*
X141766498Y-94730264D01*
X141620827Y-94790602D01*
X141620814Y-94790609D01*
X141489711Y-94878210D01*
X141489707Y-94878213D01*
X141378213Y-94989707D01*
X141378210Y-94989711D01*
X141290609Y-95120814D01*
X141290602Y-95120827D01*
X141230264Y-95266498D01*
X141230261Y-95266507D01*
X141223691Y-95299539D01*
X141191305Y-95361450D01*
X141130589Y-95396023D01*
X141060819Y-95392282D01*
X141025629Y-95370107D01*
X141024318Y-95371767D01*
X141018651Y-95367286D01*
X140869337Y-95275187D01*
X140869335Y-95275186D01*
X140786065Y-95247593D01*
X140702797Y-95220001D01*
X140702795Y-95220000D01*
X140600015Y-95209500D01*
X140600008Y-95209500D01*
X139499992Y-95209500D01*
X139499984Y-95209500D01*
X139397204Y-95220000D01*
X139397203Y-95220001D01*
X139230664Y-95275186D01*
X139230662Y-95275187D01*
X139081348Y-95367286D01*
X139081344Y-95367289D01*
X138957289Y-95491344D01*
X138957286Y-95491348D01*
X138865187Y-95640662D01*
X138865186Y-95640664D01*
X138810001Y-95807203D01*
X138810000Y-95807204D01*
X138799500Y-95909984D01*
X136889201Y-95909984D01*
X136991966Y-95807219D01*
X136991968Y-95807215D01*
X136991971Y-95807213D01*
X137070118Y-95699651D01*
X137112287Y-95641610D01*
X137205220Y-95459219D01*
X137268477Y-95264534D01*
X137300500Y-95062352D01*
X137300500Y-94857648D01*
X137280324Y-94730261D01*
X137268477Y-94655465D01*
X137205218Y-94460776D01*
X137163638Y-94379172D01*
X137112287Y-94278390D01*
X137104556Y-94267749D01*
X136991971Y-94112786D01*
X136847213Y-93968028D01*
X136681613Y-93847715D01*
X136681612Y-93847714D01*
X136681610Y-93847713D01*
X136624653Y-93818691D01*
X136499223Y-93754781D01*
X136304534Y-93691522D01*
X136129995Y-93663878D01*
X136102352Y-93659500D01*
X135897648Y-93659500D01*
X135873329Y-93663351D01*
X135695465Y-93691522D01*
X135500776Y-93754781D01*
X135318386Y-93847715D01*
X135152786Y-93968028D01*
X135008028Y-94112786D01*
X134887715Y-94278386D01*
X134794781Y-94460776D01*
X134731522Y-94655465D01*
X134699500Y-94857648D01*
X124000500Y-94857648D01*
X124000500Y-92897682D01*
X126200000Y-92897682D01*
X126200000Y-93102317D01*
X126232009Y-93304417D01*
X126295244Y-93499031D01*
X126388141Y-93681350D01*
X126388147Y-93681359D01*
X126420523Y-93725921D01*
X126420524Y-93725922D01*
X127100000Y-93046446D01*
X127100000Y-93052661D01*
X127127259Y-93154394D01*
X127179920Y-93245606D01*
X127254394Y-93320080D01*
X127345606Y-93372741D01*
X127447339Y-93400000D01*
X127453553Y-93400000D01*
X126774076Y-94079474D01*
X126818650Y-94111859D01*
X127000968Y-94204755D01*
X127195582Y-94267990D01*
X127397683Y-94300000D01*
X127602317Y-94300000D01*
X127804417Y-94267990D01*
X127999031Y-94204755D01*
X128181349Y-94111859D01*
X128225921Y-94079474D01*
X127546447Y-93400000D01*
X127552661Y-93400000D01*
X127654394Y-93372741D01*
X127745606Y-93320080D01*
X127820080Y-93245606D01*
X127872741Y-93154394D01*
X127900000Y-93052661D01*
X127900000Y-93046448D01*
X128579474Y-93725922D01*
X128579474Y-93725921D01*
X128611859Y-93681349D01*
X128704755Y-93499031D01*
X128767990Y-93304417D01*
X128800000Y-93102317D01*
X128800000Y-92897682D01*
X128767990Y-92695582D01*
X128704754Y-92500965D01*
X128680381Y-92453130D01*
X128680380Y-92453129D01*
X128653301Y-92399983D01*
X129699500Y-92399983D01*
X129699500Y-93600001D01*
X129699501Y-93600018D01*
X129710000Y-93702796D01*
X129710001Y-93702799D01*
X129731109Y-93766498D01*
X129765186Y-93869334D01*
X129857288Y-94018656D01*
X129981344Y-94142712D01*
X130130666Y-94234814D01*
X130297203Y-94289999D01*
X130399991Y-94300500D01*
X131600008Y-94300499D01*
X131702797Y-94289999D01*
X131869334Y-94234814D01*
X132018656Y-94142712D01*
X132142712Y-94018656D01*
X132234814Y-93869334D01*
X132289999Y-93702797D01*
X132300500Y-93600009D01*
X132300499Y-92399992D01*
X132289999Y-92297203D01*
X132234814Y-92130666D01*
X132142712Y-91981344D01*
X132018656Y-91857288D01*
X131869334Y-91765186D01*
X131702797Y-91710001D01*
X131702795Y-91710000D01*
X131600010Y-91699500D01*
X130399998Y-91699500D01*
X130399981Y-91699501D01*
X130297203Y-91710000D01*
X130297200Y-91710001D01*
X130130668Y-91765185D01*
X130130663Y-91765187D01*
X129981342Y-91857289D01*
X129857289Y-91981342D01*
X129765187Y-92130663D01*
X129765186Y-92130666D01*
X129710001Y-92297203D01*
X129710001Y-92297204D01*
X129710000Y-92297204D01*
X129699500Y-92399983D01*
X128653301Y-92399983D01*
X128611859Y-92318650D01*
X128579474Y-92274077D01*
X128579474Y-92274076D01*
X127900000Y-92953551D01*
X127900000Y-92947339D01*
X127872741Y-92845606D01*
X127820080Y-92754394D01*
X127745606Y-92679920D01*
X127654394Y-92627259D01*
X127552661Y-92600000D01*
X127546446Y-92600000D01*
X128225922Y-91920524D01*
X128225921Y-91920523D01*
X128181359Y-91888147D01*
X128181350Y-91888141D01*
X127999031Y-91795244D01*
X127804417Y-91732009D01*
X127602317Y-91700000D01*
X127397683Y-91700000D01*
X127195582Y-91732009D01*
X127000968Y-91795244D01*
X126818644Y-91888143D01*
X126774077Y-91920523D01*
X126774077Y-91920524D01*
X127453554Y-92600000D01*
X127447339Y-92600000D01*
X127345606Y-92627259D01*
X127254394Y-92679920D01*
X127179920Y-92754394D01*
X127127259Y-92845606D01*
X127100000Y-92947339D01*
X127100000Y-92953553D01*
X126420524Y-92274077D01*
X126420523Y-92274077D01*
X126388143Y-92318644D01*
X126295244Y-92500968D01*
X126232009Y-92695582D01*
X126200000Y-92897682D01*
X124000500Y-92897682D01*
X124000500Y-89857648D01*
X134699500Y-89857648D01*
X134699500Y-90062351D01*
X134731522Y-90264534D01*
X134794781Y-90459223D01*
X134887715Y-90641613D01*
X135008028Y-90807213D01*
X135152786Y-90951971D01*
X135307749Y-91064556D01*
X135318390Y-91072287D01*
X135434607Y-91131503D01*
X135500776Y-91165218D01*
X135500778Y-91165218D01*
X135500781Y-91165220D01*
X135605137Y-91199127D01*
X135695465Y-91228477D01*
X135796557Y-91244488D01*
X135897648Y-91260500D01*
X135897649Y-91260500D01*
X136102351Y-91260500D01*
X136102352Y-91260500D01*
X136304534Y-91228477D01*
X136499219Y-91165220D01*
X136681610Y-91072287D01*
X136774590Y-91004732D01*
X136847213Y-90951971D01*
X136847215Y-90951968D01*
X136847219Y-90951966D01*
X136991966Y-90807219D01*
X136991968Y-90807215D01*
X136991971Y-90807213D01*
X137044732Y-90734590D01*
X137112287Y-90641610D01*
X137205220Y-90459219D01*
X137268477Y-90264534D01*
X137300500Y-90062352D01*
X137300500Y-89857648D01*
X137268477Y-89655466D01*
X137268211Y-89654648D01*
X137205218Y-89460776D01*
X137133501Y-89320025D01*
X137112287Y-89278390D01*
X137104556Y-89267749D01*
X136991971Y-89112786D01*
X136847213Y-88968028D01*
X136681614Y-88847715D01*
X136680595Y-88847196D01*
X136499223Y-88754781D01*
X136458586Y-88741577D01*
X138799500Y-88741577D01*
X138799500Y-88938422D01*
X138830290Y-89132826D01*
X138891117Y-89320029D01*
X138962832Y-89460776D01*
X138980476Y-89495405D01*
X139096172Y-89654646D01*
X139235354Y-89793828D01*
X139394595Y-89909524D01*
X139477455Y-89951743D01*
X139569970Y-89998882D01*
X139569972Y-89998882D01*
X139569975Y-89998884D01*
X139670317Y-90031487D01*
X139757173Y-90059709D01*
X139951578Y-90090500D01*
X139951583Y-90090500D01*
X140148422Y-90090500D01*
X140342826Y-90059709D01*
X140530025Y-89998884D01*
X140705405Y-89909524D01*
X140776806Y-89857648D01*
X142699500Y-89857648D01*
X142699500Y-90062351D01*
X142731522Y-90264534D01*
X142794781Y-90459223D01*
X142887715Y-90641613D01*
X143008028Y-90807213D01*
X143152786Y-90951971D01*
X143307749Y-91064556D01*
X143318390Y-91072287D01*
X143434607Y-91131503D01*
X143500776Y-91165218D01*
X143500778Y-91165218D01*
X143500781Y-91165220D01*
X143605137Y-91199127D01*
X143695465Y-91228477D01*
X143796557Y-91244488D01*
X143897648Y-91260500D01*
X143897649Y-91260500D01*
X144102351Y-91260500D01*
X144102352Y-91260500D01*
X144304534Y-91228477D01*
X144499219Y-91165220D01*
X144681610Y-91072287D01*
X144774590Y-91004732D01*
X144847213Y-90951971D01*
X144847215Y-90951968D01*
X144847219Y-90951966D01*
X144991966Y-90807219D01*
X144991968Y-90807215D01*
X144991971Y-90807213D01*
X145044732Y-90734590D01*
X145112287Y-90641610D01*
X145205220Y-90459219D01*
X145268477Y-90264534D01*
X145300500Y-90062352D01*
X145300500Y-89857648D01*
X145268477Y-89655466D01*
X145268211Y-89654648D01*
X145205218Y-89460776D01*
X145133501Y-89320025D01*
X145112287Y-89278390D01*
X145104556Y-89267749D01*
X144991971Y-89112786D01*
X144847213Y-88968028D01*
X144681614Y-88847715D01*
X144680595Y-88847196D01*
X144499223Y-88754781D01*
X144458586Y-88741577D01*
X146749500Y-88741577D01*
X146749500Y-88938422D01*
X146780290Y-89132826D01*
X146841117Y-89320029D01*
X146912832Y-89460776D01*
X146930476Y-89495405D01*
X147046172Y-89654646D01*
X147185354Y-89793828D01*
X147344595Y-89909524D01*
X147427455Y-89951743D01*
X147519970Y-89998882D01*
X147519972Y-89998882D01*
X147519975Y-89998884D01*
X147620317Y-90031487D01*
X147707173Y-90059709D01*
X147901578Y-90090500D01*
X147901583Y-90090500D01*
X148098422Y-90090500D01*
X148292826Y-90059709D01*
X148480025Y-89998884D01*
X148655405Y-89909524D01*
X148726806Y-89857648D01*
X150699500Y-89857648D01*
X150699500Y-90062351D01*
X150731522Y-90264534D01*
X150794781Y-90459223D01*
X150887715Y-90641613D01*
X151008028Y-90807213D01*
X151152786Y-90951971D01*
X151307749Y-91064556D01*
X151318390Y-91072287D01*
X151434607Y-91131503D01*
X151500776Y-91165218D01*
X151500778Y-91165218D01*
X151500781Y-91165220D01*
X151605137Y-91199127D01*
X151695465Y-91228477D01*
X151796557Y-91244488D01*
X151897648Y-91260500D01*
X151897649Y-91260500D01*
X152102351Y-91260500D01*
X152102352Y-91260500D01*
X152304534Y-91228477D01*
X152499219Y-91165220D01*
X152681610Y-91072287D01*
X152774590Y-91004732D01*
X152847213Y-90951971D01*
X152847215Y-90951968D01*
X152847219Y-90951966D01*
X152991966Y-90807219D01*
X152991968Y-90807215D01*
X152991971Y-90807213D01*
X153044732Y-90734590D01*
X153112287Y-90641610D01*
X153205220Y-90459219D01*
X153268477Y-90264534D01*
X153300500Y-90062352D01*
X153300500Y-89857648D01*
X153268477Y-89655466D01*
X153268211Y-89654648D01*
X153205218Y-89460776D01*
X153133501Y-89320025D01*
X153112287Y-89278390D01*
X153104556Y-89267749D01*
X152991971Y-89112786D01*
X152847213Y-88968028D01*
X152681614Y-88847715D01*
X152680595Y-88847196D01*
X152499223Y-88754781D01*
X152458586Y-88741577D01*
X154799500Y-88741577D01*
X154799500Y-88938422D01*
X154830290Y-89132826D01*
X154891117Y-89320029D01*
X154962832Y-89460776D01*
X154980476Y-89495405D01*
X155096172Y-89654646D01*
X155235354Y-89793828D01*
X155394595Y-89909524D01*
X155477455Y-89951743D01*
X155569970Y-89998882D01*
X155569972Y-89998882D01*
X155569975Y-89998884D01*
X155670317Y-90031487D01*
X155757173Y-90059709D01*
X155951578Y-90090500D01*
X155951583Y-90090500D01*
X156148422Y-90090500D01*
X156342826Y-90059709D01*
X156530025Y-89998884D01*
X156705405Y-89909524D01*
X156776806Y-89857648D01*
X158699500Y-89857648D01*
X158699500Y-90062351D01*
X158731522Y-90264534D01*
X158794781Y-90459223D01*
X158887715Y-90641613D01*
X159008028Y-90807213D01*
X159152786Y-90951971D01*
X159307749Y-91064556D01*
X159318390Y-91072287D01*
X159434607Y-91131503D01*
X159500776Y-91165218D01*
X159500778Y-91165218D01*
X159500781Y-91165220D01*
X159605137Y-91199127D01*
X159695465Y-91228477D01*
X159796557Y-91244488D01*
X159897648Y-91260500D01*
X159897649Y-91260500D01*
X160102351Y-91260500D01*
X160102352Y-91260500D01*
X160304534Y-91228477D01*
X160499219Y-91165220D01*
X160681610Y-91072287D01*
X160774590Y-91004732D01*
X160847213Y-90951971D01*
X160847215Y-90951968D01*
X160847219Y-90951966D01*
X160991966Y-90807219D01*
X160991968Y-90807215D01*
X160991971Y-90807213D01*
X161044732Y-90734590D01*
X161112287Y-90641610D01*
X161205220Y-90459219D01*
X161268477Y-90264534D01*
X161300500Y-90062352D01*
X161300500Y-89857648D01*
X161268477Y-89655466D01*
X161268211Y-89654648D01*
X161205218Y-89460776D01*
X161133501Y-89320025D01*
X161112287Y-89278390D01*
X161104556Y-89267749D01*
X160991971Y-89112786D01*
X160847213Y-88968028D01*
X160681614Y-88847715D01*
X160680595Y-88847196D01*
X160499223Y-88754781D01*
X160458586Y-88741577D01*
X162749500Y-88741577D01*
X162749500Y-88938422D01*
X162780290Y-89132826D01*
X162841117Y-89320029D01*
X162912832Y-89460776D01*
X162930476Y-89495405D01*
X163046172Y-89654646D01*
X163185354Y-89793828D01*
X163344595Y-89909524D01*
X163427455Y-89951743D01*
X163519970Y-89998882D01*
X163519972Y-89998882D01*
X163519975Y-89998884D01*
X163620317Y-90031487D01*
X163707173Y-90059709D01*
X163901578Y-90090500D01*
X163901583Y-90090500D01*
X164098422Y-90090500D01*
X164292826Y-90059709D01*
X164480025Y-89998884D01*
X164655405Y-89909524D01*
X164814646Y-89793828D01*
X164953828Y-89654646D01*
X165069524Y-89495405D01*
X165158884Y-89320025D01*
X165219709Y-89132826D01*
X165222884Y-89112781D01*
X165250500Y-88938422D01*
X165250500Y-88741577D01*
X165219709Y-88547173D01*
X165158882Y-88359970D01*
X165069523Y-88184594D01*
X164953828Y-88025354D01*
X164814646Y-87886172D01*
X164655405Y-87770476D01*
X164480029Y-87681117D01*
X164292826Y-87620290D01*
X164098422Y-87589500D01*
X164098417Y-87589500D01*
X163901583Y-87589500D01*
X163901578Y-87589500D01*
X163707173Y-87620290D01*
X163519970Y-87681117D01*
X163344594Y-87770476D01*
X163253741Y-87836485D01*
X163185354Y-87886172D01*
X163185352Y-87886174D01*
X163185351Y-87886174D01*
X163046174Y-88025351D01*
X163046174Y-88025352D01*
X163046172Y-88025354D01*
X162996485Y-88093741D01*
X162930476Y-88184594D01*
X162841117Y-88359970D01*
X162780290Y-88547173D01*
X162749500Y-88741577D01*
X160458586Y-88741577D01*
X160304534Y-88691522D01*
X160129995Y-88663878D01*
X160102352Y-88659500D01*
X159897648Y-88659500D01*
X159873329Y-88663351D01*
X159695465Y-88691522D01*
X159500776Y-88754781D01*
X159318386Y-88847715D01*
X159152786Y-88968028D01*
X159008028Y-89112786D01*
X158887715Y-89278386D01*
X158794781Y-89460776D01*
X158731522Y-89655465D01*
X158699500Y-89857648D01*
X156776806Y-89857648D01*
X156864646Y-89793828D01*
X157003828Y-89654646D01*
X157119524Y-89495405D01*
X157208884Y-89320025D01*
X157269709Y-89132826D01*
X157272884Y-89112781D01*
X157300500Y-88938422D01*
X157300500Y-88741577D01*
X157269709Y-88547173D01*
X157208882Y-88359970D01*
X157119523Y-88184594D01*
X157003828Y-88025354D01*
X156864646Y-87886172D01*
X156705405Y-87770476D01*
X156530029Y-87681117D01*
X156342826Y-87620290D01*
X156148422Y-87589500D01*
X156148417Y-87589500D01*
X155951583Y-87589500D01*
X155951578Y-87589500D01*
X155757173Y-87620290D01*
X155569970Y-87681117D01*
X155394594Y-87770476D01*
X155303741Y-87836485D01*
X155235354Y-87886172D01*
X155235352Y-87886174D01*
X155235351Y-87886174D01*
X155096174Y-88025351D01*
X155096174Y-88025352D01*
X155096172Y-88025354D01*
X155046485Y-88093741D01*
X154980476Y-88184594D01*
X154891117Y-88359970D01*
X154830290Y-88547173D01*
X154799500Y-88741577D01*
X152458586Y-88741577D01*
X152304534Y-88691522D01*
X152129995Y-88663878D01*
X152102352Y-88659500D01*
X151897648Y-88659500D01*
X151873329Y-88663351D01*
X151695465Y-88691522D01*
X151500776Y-88754781D01*
X151318386Y-88847715D01*
X151152786Y-88968028D01*
X151008028Y-89112786D01*
X150887715Y-89278386D01*
X150794781Y-89460776D01*
X150731522Y-89655465D01*
X150699500Y-89857648D01*
X148726806Y-89857648D01*
X148814646Y-89793828D01*
X148953828Y-89654646D01*
X149069524Y-89495405D01*
X149158884Y-89320025D01*
X149219709Y-89132826D01*
X149222884Y-89112781D01*
X149250500Y-88938422D01*
X149250500Y-88741577D01*
X149219709Y-88547173D01*
X149158882Y-88359970D01*
X149069523Y-88184594D01*
X148953828Y-88025354D01*
X148814646Y-87886172D01*
X148655405Y-87770476D01*
X148480029Y-87681117D01*
X148292826Y-87620290D01*
X148098422Y-87589500D01*
X148098417Y-87589500D01*
X147901583Y-87589500D01*
X147901578Y-87589500D01*
X147707173Y-87620290D01*
X147519970Y-87681117D01*
X147344594Y-87770476D01*
X147253741Y-87836485D01*
X147185354Y-87886172D01*
X147185352Y-87886174D01*
X147185351Y-87886174D01*
X147046174Y-88025351D01*
X147046174Y-88025352D01*
X147046172Y-88025354D01*
X146996485Y-88093741D01*
X146930476Y-88184594D01*
X146841117Y-88359970D01*
X146780290Y-88547173D01*
X146749500Y-88741577D01*
X144458586Y-88741577D01*
X144304534Y-88691522D01*
X144129995Y-88663878D01*
X144102352Y-88659500D01*
X143897648Y-88659500D01*
X143873329Y-88663351D01*
X143695465Y-88691522D01*
X143500776Y-88754781D01*
X143318386Y-88847715D01*
X143152786Y-88968028D01*
X143008028Y-89112786D01*
X142887715Y-89278386D01*
X142794781Y-89460776D01*
X142731522Y-89655465D01*
X142699500Y-89857648D01*
X140776806Y-89857648D01*
X140864646Y-89793828D01*
X141003828Y-89654646D01*
X141119524Y-89495405D01*
X141208884Y-89320025D01*
X141269709Y-89132826D01*
X141272884Y-89112781D01*
X141300500Y-88938422D01*
X141300500Y-88741577D01*
X141269709Y-88547173D01*
X141208882Y-88359970D01*
X141119523Y-88184594D01*
X141003828Y-88025354D01*
X140864646Y-87886172D01*
X140705405Y-87770476D01*
X140530029Y-87681117D01*
X140342826Y-87620290D01*
X140148422Y-87589500D01*
X140148417Y-87589500D01*
X139951583Y-87589500D01*
X139951578Y-87589500D01*
X139757173Y-87620290D01*
X139569970Y-87681117D01*
X139394594Y-87770476D01*
X139303741Y-87836485D01*
X139235354Y-87886172D01*
X139235352Y-87886174D01*
X139235351Y-87886174D01*
X139096174Y-88025351D01*
X139096174Y-88025352D01*
X139096172Y-88025354D01*
X139046485Y-88093741D01*
X138980476Y-88184594D01*
X138891117Y-88359970D01*
X138830290Y-88547173D01*
X138799500Y-88741577D01*
X136458586Y-88741577D01*
X136304534Y-88691522D01*
X136129995Y-88663878D01*
X136102352Y-88659500D01*
X135897648Y-88659500D01*
X135873329Y-88663351D01*
X135695465Y-88691522D01*
X135500776Y-88754781D01*
X135318386Y-88847715D01*
X135152786Y-88968028D01*
X135008028Y-89112786D01*
X134887715Y-89278386D01*
X134794781Y-89460776D01*
X134731522Y-89655465D01*
X134699500Y-89857648D01*
X124000500Y-89857648D01*
X124000500Y-84168992D01*
X137199500Y-84168992D01*
X137199500Y-84371007D01*
X137238907Y-84569119D01*
X137238909Y-84569127D01*
X137272325Y-84649800D01*
X137279794Y-84719270D01*
X137260038Y-84764660D01*
X137260454Y-84764887D01*
X137257919Y-84769528D01*
X137257037Y-84771556D01*
X137256206Y-84772665D01*
X137256202Y-84772672D01*
X137205908Y-84907517D01*
X137199501Y-84967116D01*
X137199501Y-84967123D01*
X137199500Y-84967135D01*
X137199500Y-86112870D01*
X137199501Y-86112876D01*
X137205908Y-86172483D01*
X137256202Y-86307328D01*
X137256206Y-86307335D01*
X137342452Y-86422544D01*
X137342455Y-86422547D01*
X137457664Y-86508793D01*
X137457671Y-86508797D01*
X137592517Y-86559091D01*
X137592516Y-86559091D01*
X137599444Y-86559835D01*
X137652127Y-86565500D01*
X139247872Y-86565499D01*
X139307483Y-86559091D01*
X139442331Y-86508796D01*
X139557546Y-86422546D01*
X139643796Y-86307331D01*
X139694091Y-86172483D01*
X139700500Y-86112873D01*
X139700499Y-84967128D01*
X139694091Y-84907517D01*
X139643796Y-84772669D01*
X139642967Y-84771562D01*
X139642485Y-84770268D01*
X139639546Y-84764886D01*
X139640319Y-84764463D01*
X139618551Y-84706099D01*
X139627675Y-84649798D01*
X139661089Y-84569132D01*
X139661089Y-84569131D01*
X139661091Y-84569127D01*
X139700500Y-84371003D01*
X139700500Y-84168997D01*
X139700499Y-84168992D01*
X145199500Y-84168992D01*
X145199500Y-84371007D01*
X145238907Y-84569119D01*
X145238909Y-84569127D01*
X145272325Y-84649800D01*
X145279794Y-84719270D01*
X145260038Y-84764660D01*
X145260454Y-84764887D01*
X145257919Y-84769528D01*
X145257037Y-84771556D01*
X145256206Y-84772665D01*
X145256202Y-84772672D01*
X145205908Y-84907517D01*
X145199501Y-84967116D01*
X145199501Y-84967123D01*
X145199500Y-84967135D01*
X145199500Y-86112870D01*
X145199501Y-86112876D01*
X145205908Y-86172483D01*
X145256202Y-86307328D01*
X145256206Y-86307335D01*
X145342452Y-86422544D01*
X145342455Y-86422547D01*
X145457664Y-86508793D01*
X145457671Y-86508797D01*
X145592517Y-86559091D01*
X145592516Y-86559091D01*
X145599444Y-86559835D01*
X145652127Y-86565500D01*
X147247872Y-86565499D01*
X147307483Y-86559091D01*
X147442331Y-86508796D01*
X147557546Y-86422546D01*
X147643796Y-86307331D01*
X147694091Y-86172483D01*
X147700500Y-86112873D01*
X147700499Y-84967128D01*
X147694091Y-84907517D01*
X147643796Y-84772669D01*
X147642967Y-84771562D01*
X147642485Y-84770268D01*
X147639546Y-84764886D01*
X147640319Y-84764463D01*
X147618551Y-84706099D01*
X147627675Y-84649798D01*
X147661089Y-84569132D01*
X147661089Y-84569131D01*
X147661091Y-84569127D01*
X147700500Y-84371003D01*
X147700500Y-84168997D01*
X147700499Y-84168992D01*
X153199500Y-84168992D01*
X153199500Y-84371007D01*
X153238907Y-84569119D01*
X153238909Y-84569127D01*
X153272325Y-84649800D01*
X153279794Y-84719270D01*
X153260038Y-84764660D01*
X153260454Y-84764887D01*
X153257919Y-84769528D01*
X153257037Y-84771556D01*
X153256206Y-84772665D01*
X153256202Y-84772672D01*
X153205908Y-84907517D01*
X153199501Y-84967116D01*
X153199501Y-84967123D01*
X153199500Y-84967135D01*
X153199500Y-86112870D01*
X153199501Y-86112876D01*
X153205908Y-86172483D01*
X153256202Y-86307328D01*
X153256206Y-86307335D01*
X153342452Y-86422544D01*
X153342455Y-86422547D01*
X153457664Y-86508793D01*
X153457671Y-86508797D01*
X153592517Y-86559091D01*
X153592516Y-86559091D01*
X153599444Y-86559835D01*
X153652127Y-86565500D01*
X155247872Y-86565499D01*
X155307483Y-86559091D01*
X155442331Y-86508796D01*
X155557546Y-86422546D01*
X155643796Y-86307331D01*
X155694091Y-86172483D01*
X155700500Y-86112873D01*
X155700499Y-84967128D01*
X155694091Y-84907517D01*
X155643796Y-84772669D01*
X155642967Y-84771562D01*
X155642485Y-84770268D01*
X155639546Y-84764886D01*
X155640319Y-84764463D01*
X155618551Y-84706099D01*
X155627675Y-84649798D01*
X155661089Y-84569132D01*
X155661089Y-84569131D01*
X155661091Y-84569127D01*
X155700500Y-84371003D01*
X155700500Y-84168997D01*
X155700499Y-84168992D01*
X161199500Y-84168992D01*
X161199500Y-84371007D01*
X161238907Y-84569119D01*
X161238909Y-84569127D01*
X161272325Y-84649800D01*
X161279794Y-84719270D01*
X161260038Y-84764660D01*
X161260454Y-84764887D01*
X161257919Y-84769528D01*
X161257037Y-84771556D01*
X161256206Y-84772665D01*
X161256202Y-84772672D01*
X161205908Y-84907517D01*
X161199501Y-84967116D01*
X161199501Y-84967123D01*
X161199500Y-84967135D01*
X161199500Y-86112870D01*
X161199501Y-86112876D01*
X161205908Y-86172483D01*
X161256202Y-86307328D01*
X161256206Y-86307335D01*
X161342452Y-86422544D01*
X161342455Y-86422547D01*
X161457664Y-86508793D01*
X161457671Y-86508797D01*
X161592517Y-86559091D01*
X161592516Y-86559091D01*
X161599444Y-86559835D01*
X161652127Y-86565500D01*
X163247872Y-86565499D01*
X163307483Y-86559091D01*
X163442331Y-86508796D01*
X163557546Y-86422546D01*
X163643796Y-86307331D01*
X163694091Y-86172483D01*
X163700500Y-86112873D01*
X163700499Y-84967128D01*
X163694091Y-84907517D01*
X163643796Y-84772669D01*
X163642967Y-84771562D01*
X163642485Y-84770268D01*
X163639546Y-84764886D01*
X163640319Y-84764463D01*
X163618551Y-84706099D01*
X163627675Y-84649798D01*
X163661089Y-84569132D01*
X163661089Y-84569131D01*
X163661091Y-84569127D01*
X163700500Y-84371003D01*
X163700500Y-84168997D01*
X163661091Y-83970873D01*
X163583786Y-83784244D01*
X163529794Y-83703439D01*
X163508917Y-83636764D01*
X163527401Y-83569384D01*
X163529796Y-83565658D01*
X163583344Y-83485518D01*
X163583346Y-83485515D01*
X163660609Y-83298983D01*
X163660612Y-83298974D01*
X163670353Y-83250000D01*
X162815866Y-83250000D01*
X162791674Y-83247617D01*
X162776004Y-83244500D01*
X162776003Y-83244500D01*
X162735830Y-83244500D01*
X162750075Y-83230255D01*
X162799444Y-83144745D01*
X162825000Y-83049370D01*
X162825000Y-82950630D01*
X162799444Y-82855255D01*
X162750075Y-82769745D01*
X162730330Y-82750000D01*
X163670353Y-82750000D01*
X163660612Y-82701025D01*
X163660609Y-82701016D01*
X163583347Y-82514486D01*
X163583340Y-82514473D01*
X163471170Y-82346600D01*
X163471167Y-82346596D01*
X163328403Y-82203832D01*
X163328399Y-82203829D01*
X163160526Y-82091659D01*
X163160513Y-82091652D01*
X162973983Y-82014390D01*
X162973974Y-82014387D01*
X162775958Y-81975000D01*
X162700000Y-81975000D01*
X162700000Y-82719670D01*
X162680255Y-82699925D01*
X162594745Y-82650556D01*
X162499370Y-82625000D01*
X162400630Y-82625000D01*
X162305255Y-82650556D01*
X162219745Y-82699925D01*
X162200000Y-82719670D01*
X162200000Y-81975000D01*
X162124041Y-81975000D01*
X161926025Y-82014387D01*
X161926016Y-82014390D01*
X161739486Y-82091652D01*
X161739473Y-82091659D01*
X161571600Y-82203829D01*
X161571596Y-82203832D01*
X161428832Y-82346596D01*
X161428829Y-82346600D01*
X161316659Y-82514473D01*
X161316652Y-82514486D01*
X161239390Y-82701016D01*
X161239387Y-82701025D01*
X161229647Y-82750000D01*
X162169670Y-82750000D01*
X162149925Y-82769745D01*
X162100556Y-82855255D01*
X162075000Y-82950630D01*
X162075000Y-83049370D01*
X162100556Y-83144745D01*
X162149925Y-83230255D01*
X162164170Y-83244500D01*
X162123997Y-83244500D01*
X162123996Y-83244500D01*
X162108326Y-83247617D01*
X162084134Y-83250000D01*
X161229647Y-83250000D01*
X161239387Y-83298974D01*
X161239390Y-83298983D01*
X161316652Y-83485513D01*
X161316659Y-83485526D01*
X161370203Y-83565659D01*
X161391081Y-83632336D01*
X161372597Y-83699716D01*
X161370204Y-83703439D01*
X161316214Y-83784243D01*
X161238909Y-83970872D01*
X161238907Y-83970880D01*
X161199500Y-84168992D01*
X155700499Y-84168992D01*
X155661091Y-83970873D01*
X155583786Y-83784244D01*
X155529794Y-83703439D01*
X155508917Y-83636764D01*
X155527401Y-83569384D01*
X155529796Y-83565658D01*
X155583344Y-83485518D01*
X155583346Y-83485515D01*
X155660609Y-83298983D01*
X155660612Y-83298974D01*
X155670353Y-83250000D01*
X154815866Y-83250000D01*
X154791674Y-83247617D01*
X154776004Y-83244500D01*
X154776003Y-83244500D01*
X154735830Y-83244500D01*
X154750075Y-83230255D01*
X154799444Y-83144745D01*
X154825000Y-83049370D01*
X154825000Y-82950630D01*
X154799444Y-82855255D01*
X154750075Y-82769745D01*
X154730330Y-82750000D01*
X155670353Y-82750000D01*
X155660612Y-82701025D01*
X155660609Y-82701016D01*
X155583347Y-82514486D01*
X155583340Y-82514473D01*
X155471170Y-82346600D01*
X155471167Y-82346596D01*
X155328403Y-82203832D01*
X155328399Y-82203829D01*
X155160526Y-82091659D01*
X155160513Y-82091652D01*
X154973983Y-82014390D01*
X154973974Y-82014387D01*
X154775958Y-81975000D01*
X154700000Y-81975000D01*
X154700000Y-82719670D01*
X154680255Y-82699925D01*
X154594745Y-82650556D01*
X154499370Y-82625000D01*
X154400630Y-82625000D01*
X154305255Y-82650556D01*
X154219745Y-82699925D01*
X154200000Y-82719670D01*
X154200000Y-81975000D01*
X154124041Y-81975000D01*
X153926025Y-82014387D01*
X153926016Y-82014390D01*
X153739486Y-82091652D01*
X153739473Y-82091659D01*
X153571600Y-82203829D01*
X153571596Y-82203832D01*
X153428832Y-82346596D01*
X153428829Y-82346600D01*
X153316659Y-82514473D01*
X153316652Y-82514486D01*
X153239390Y-82701016D01*
X153239387Y-82701025D01*
X153229647Y-82750000D01*
X154169670Y-82750000D01*
X154149925Y-82769745D01*
X154100556Y-82855255D01*
X154075000Y-82950630D01*
X154075000Y-83049370D01*
X154100556Y-83144745D01*
X154149925Y-83230255D01*
X154164170Y-83244500D01*
X154123997Y-83244500D01*
X154123996Y-83244500D01*
X154108326Y-83247617D01*
X154084134Y-83250000D01*
X153229647Y-83250000D01*
X153239387Y-83298974D01*
X153239390Y-83298983D01*
X153316652Y-83485513D01*
X153316659Y-83485526D01*
X153370203Y-83565659D01*
X153391081Y-83632336D01*
X153372597Y-83699716D01*
X153370204Y-83703439D01*
X153316214Y-83784243D01*
X153238909Y-83970872D01*
X153238907Y-83970880D01*
X153199500Y-84168992D01*
X147700499Y-84168992D01*
X147661091Y-83970873D01*
X147583786Y-83784244D01*
X147529794Y-83703439D01*
X147508917Y-83636764D01*
X147527401Y-83569384D01*
X147529796Y-83565658D01*
X147583344Y-83485518D01*
X147583346Y-83485515D01*
X147660609Y-83298983D01*
X147660612Y-83298974D01*
X147670353Y-83250000D01*
X146815866Y-83250000D01*
X146791674Y-83247617D01*
X146776004Y-83244500D01*
X146776003Y-83244500D01*
X146735830Y-83244500D01*
X146750075Y-83230255D01*
X146799444Y-83144745D01*
X146825000Y-83049370D01*
X146825000Y-82950630D01*
X146799444Y-82855255D01*
X146750075Y-82769745D01*
X146730330Y-82750000D01*
X147670353Y-82750000D01*
X147660612Y-82701025D01*
X147660609Y-82701016D01*
X147583347Y-82514486D01*
X147583340Y-82514473D01*
X147471170Y-82346600D01*
X147471167Y-82346596D01*
X147328403Y-82203832D01*
X147328399Y-82203829D01*
X147160526Y-82091659D01*
X147160513Y-82091652D01*
X146973983Y-82014390D01*
X146973974Y-82014387D01*
X146775958Y-81975000D01*
X146700000Y-81975000D01*
X146700000Y-82719670D01*
X146680255Y-82699925D01*
X146594745Y-82650556D01*
X146499370Y-82625000D01*
X146400630Y-82625000D01*
X146305255Y-82650556D01*
X146219745Y-82699925D01*
X146200000Y-82719670D01*
X146200000Y-81975000D01*
X146124041Y-81975000D01*
X145926025Y-82014387D01*
X145926016Y-82014390D01*
X145739486Y-82091652D01*
X145739473Y-82091659D01*
X145571600Y-82203829D01*
X145571596Y-82203832D01*
X145428832Y-82346596D01*
X145428829Y-82346600D01*
X145316659Y-82514473D01*
X145316652Y-82514486D01*
X145239390Y-82701016D01*
X145239387Y-82701025D01*
X145229647Y-82750000D01*
X146169670Y-82750000D01*
X146149925Y-82769745D01*
X146100556Y-82855255D01*
X146075000Y-82950630D01*
X146075000Y-83049370D01*
X146100556Y-83144745D01*
X146149925Y-83230255D01*
X146164170Y-83244500D01*
X146123997Y-83244500D01*
X146123996Y-83244500D01*
X146108326Y-83247617D01*
X146084134Y-83250000D01*
X145229647Y-83250000D01*
X145239387Y-83298974D01*
X145239390Y-83298983D01*
X145316652Y-83485513D01*
X145316659Y-83485526D01*
X145370203Y-83565659D01*
X145391081Y-83632336D01*
X145372597Y-83699716D01*
X145370204Y-83703439D01*
X145316214Y-83784243D01*
X145238909Y-83970872D01*
X145238907Y-83970880D01*
X145199500Y-84168992D01*
X139700499Y-84168992D01*
X139661091Y-83970873D01*
X139583786Y-83784244D01*
X139529794Y-83703439D01*
X139508917Y-83636764D01*
X139527401Y-83569384D01*
X139529796Y-83565658D01*
X139583344Y-83485518D01*
X139583346Y-83485515D01*
X139660609Y-83298983D01*
X139660612Y-83298974D01*
X139670353Y-83250000D01*
X138815866Y-83250000D01*
X138791674Y-83247617D01*
X138776004Y-83244500D01*
X138776003Y-83244500D01*
X138735830Y-83244500D01*
X138750075Y-83230255D01*
X138799444Y-83144745D01*
X138825000Y-83049370D01*
X138825000Y-82950630D01*
X138799444Y-82855255D01*
X138750075Y-82769745D01*
X138730330Y-82750000D01*
X139670353Y-82750000D01*
X139660612Y-82701025D01*
X139660609Y-82701016D01*
X139583347Y-82514486D01*
X139583340Y-82514473D01*
X139471170Y-82346600D01*
X139471167Y-82346596D01*
X139328403Y-82203832D01*
X139328399Y-82203829D01*
X139160526Y-82091659D01*
X139160513Y-82091652D01*
X138973983Y-82014390D01*
X138973974Y-82014387D01*
X138775958Y-81975000D01*
X138700000Y-81975000D01*
X138700000Y-82719670D01*
X138680255Y-82699925D01*
X138594745Y-82650556D01*
X138499370Y-82625000D01*
X138400630Y-82625000D01*
X138305255Y-82650556D01*
X138219745Y-82699925D01*
X138200000Y-82719670D01*
X138200000Y-81975000D01*
X138124041Y-81975000D01*
X137926025Y-82014387D01*
X137926016Y-82014390D01*
X137739486Y-82091652D01*
X137739473Y-82091659D01*
X137571600Y-82203829D01*
X137571596Y-82203832D01*
X137428832Y-82346596D01*
X137428829Y-82346600D01*
X137316659Y-82514473D01*
X137316652Y-82514486D01*
X137239390Y-82701016D01*
X137239387Y-82701025D01*
X137229647Y-82750000D01*
X138169670Y-82750000D01*
X138149925Y-82769745D01*
X138100556Y-82855255D01*
X138075000Y-82950630D01*
X138075000Y-83049370D01*
X138100556Y-83144745D01*
X138149925Y-83230255D01*
X138164170Y-83244500D01*
X138123997Y-83244500D01*
X138123996Y-83244500D01*
X138108326Y-83247617D01*
X138084134Y-83250000D01*
X137229647Y-83250000D01*
X137239387Y-83298974D01*
X137239390Y-83298983D01*
X137316652Y-83485513D01*
X137316659Y-83485526D01*
X137370203Y-83565659D01*
X137391081Y-83632336D01*
X137372597Y-83699716D01*
X137370204Y-83703439D01*
X137316214Y-83784243D01*
X137238909Y-83970872D01*
X137238907Y-83970880D01*
X137199500Y-84168992D01*
X124000500Y-84168992D01*
X124000500Y-79750503D01*
X124020185Y-79683464D01*
X124072989Y-79637709D01*
X124142147Y-79627765D01*
X124205703Y-79656790D01*
X124223915Y-79678347D01*
X124224849Y-79677669D01*
X124348028Y-79847213D01*
X124492786Y-79991971D01*
X124647749Y-80104556D01*
X124658390Y-80112287D01*
X124774410Y-80171402D01*
X124840776Y-80205218D01*
X124840778Y-80205218D01*
X124840781Y-80205220D01*
X124945137Y-80239127D01*
X125035465Y-80268477D01*
X125136557Y-80284488D01*
X125237648Y-80300500D01*
X125237649Y-80300500D01*
X125442351Y-80300500D01*
X125442352Y-80300500D01*
X125644534Y-80268477D01*
X125839219Y-80205220D01*
X126021610Y-80112287D01*
X126114590Y-80044732D01*
X126187213Y-79991971D01*
X126187215Y-79991968D01*
X126187219Y-79991966D01*
X126331966Y-79847219D01*
X126331968Y-79847215D01*
X126331971Y-79847213D01*
X126402234Y-79750503D01*
X126452287Y-79681610D01*
X126545220Y-79499219D01*
X126608477Y-79304534D01*
X126640500Y-79102352D01*
X126640500Y-78897648D01*
X134199500Y-78897648D01*
X134199500Y-79102351D01*
X134231522Y-79304534D01*
X134294781Y-79499223D01*
X134358167Y-79623622D01*
X134386050Y-79678347D01*
X134387715Y-79681613D01*
X134508028Y-79847213D01*
X134652786Y-79991971D01*
X134807749Y-80104556D01*
X134818390Y-80112287D01*
X134934410Y-80171402D01*
X135000776Y-80205218D01*
X135000778Y-80205218D01*
X135000781Y-80205220D01*
X135105137Y-80239127D01*
X135195465Y-80268477D01*
X135296557Y-80284488D01*
X135397648Y-80300500D01*
X135397649Y-80300500D01*
X135602351Y-80300500D01*
X135602352Y-80300500D01*
X135804534Y-80268477D01*
X135999219Y-80205220D01*
X136181610Y-80112287D01*
X136274590Y-80044732D01*
X136347213Y-79991971D01*
X136347215Y-79991968D01*
X136347219Y-79991966D01*
X136491966Y-79847219D01*
X136491968Y-79847215D01*
X136491971Y-79847213D01*
X136562234Y-79750503D01*
X136612287Y-79681610D01*
X136705220Y-79499219D01*
X136768477Y-79304534D01*
X136800500Y-79102352D01*
X136800500Y-78897648D01*
X136768477Y-78695466D01*
X136705220Y-78500781D01*
X136705217Y-78500777D01*
X136705217Y-78500774D01*
X136674648Y-78440780D01*
X136674647Y-78440779D01*
X136648035Y-78388549D01*
X137299500Y-78388549D01*
X137299500Y-78611450D01*
X137299501Y-78611466D01*
X137328594Y-78832452D01*
X137328595Y-78832457D01*
X137328596Y-78832463D01*
X137386290Y-79047780D01*
X137386293Y-79047790D01*
X137471593Y-79253722D01*
X137471595Y-79253726D01*
X137583052Y-79446774D01*
X137583057Y-79446780D01*
X137583058Y-79446782D01*
X137718751Y-79623622D01*
X137718757Y-79623629D01*
X137876370Y-79781242D01*
X137876376Y-79781247D01*
X138053226Y-79916948D01*
X138246274Y-80028405D01*
X138376140Y-80082197D01*
X138448783Y-80112287D01*
X138452219Y-80113710D01*
X138667537Y-80171404D01*
X138888543Y-80200500D01*
X138888550Y-80200500D01*
X139111450Y-80200500D01*
X139111457Y-80200500D01*
X139332463Y-80171404D01*
X139547781Y-80113710D01*
X139753726Y-80028405D01*
X139946774Y-79916948D01*
X140123624Y-79781247D01*
X140281247Y-79623624D01*
X140416948Y-79446774D01*
X140528405Y-79253726D01*
X140613710Y-79047781D01*
X140671404Y-78832463D01*
X140700500Y-78611457D01*
X140700500Y-78388549D01*
X159299500Y-78388549D01*
X159299500Y-78611450D01*
X159299501Y-78611466D01*
X159328594Y-78832452D01*
X159328595Y-78832457D01*
X159328596Y-78832463D01*
X159386290Y-79047780D01*
X159386293Y-79047790D01*
X159471593Y-79253722D01*
X159471595Y-79253726D01*
X159583052Y-79446774D01*
X159583057Y-79446780D01*
X159583058Y-79446782D01*
X159718751Y-79623622D01*
X159718757Y-79623629D01*
X159876370Y-79781242D01*
X159876376Y-79781247D01*
X160053226Y-79916948D01*
X160246274Y-80028405D01*
X160376140Y-80082197D01*
X160448783Y-80112287D01*
X160452219Y-80113710D01*
X160667537Y-80171404D01*
X160888543Y-80200500D01*
X160888550Y-80200500D01*
X161111450Y-80200500D01*
X161111457Y-80200500D01*
X161332463Y-80171404D01*
X161547781Y-80113710D01*
X161753726Y-80028405D01*
X161946774Y-79916948D01*
X162123624Y-79781247D01*
X162281247Y-79623624D01*
X162416948Y-79446774D01*
X162528405Y-79253726D01*
X162613710Y-79047781D01*
X162671404Y-78832463D01*
X162700500Y-78611457D01*
X162700500Y-78388543D01*
X162671404Y-78167537D01*
X162613710Y-77952219D01*
X162528405Y-77746274D01*
X162416948Y-77553226D01*
X162416943Y-77553220D01*
X162416941Y-77553216D01*
X162351754Y-77468262D01*
X162297570Y-77397648D01*
X163539500Y-77397648D01*
X163539500Y-77602351D01*
X163571522Y-77804534D01*
X163634781Y-77999223D01*
X163696415Y-78120185D01*
X163720542Y-78167537D01*
X163727715Y-78181613D01*
X163848028Y-78347213D01*
X163992786Y-78491971D01*
X164095816Y-78566825D01*
X164158390Y-78612287D01*
X164274607Y-78671503D01*
X164340776Y-78705218D01*
X164340778Y-78705218D01*
X164340781Y-78705220D01*
X164445137Y-78739127D01*
X164535465Y-78768477D01*
X164636557Y-78784488D01*
X164737648Y-78800500D01*
X164737649Y-78800500D01*
X164942351Y-78800500D01*
X164942352Y-78800500D01*
X165144534Y-78768477D01*
X165339219Y-78705220D01*
X165521610Y-78612287D01*
X165614590Y-78544732D01*
X165687213Y-78491971D01*
X165687215Y-78491968D01*
X165687219Y-78491966D01*
X165831966Y-78347219D01*
X165831968Y-78347215D01*
X165831971Y-78347213D01*
X165888259Y-78269738D01*
X165952287Y-78181610D01*
X166045220Y-77999219D01*
X166108477Y-77804534D01*
X166140500Y-77602352D01*
X166140500Y-77397648D01*
X166137130Y-77376370D01*
X166108477Y-77195465D01*
X166045218Y-77000776D01*
X166011503Y-76934607D01*
X165952287Y-76818390D01*
X165944556Y-76807749D01*
X165831971Y-76652786D01*
X165687213Y-76508028D01*
X165521613Y-76387715D01*
X165521612Y-76387714D01*
X165521610Y-76387713D01*
X165464653Y-76358691D01*
X165339223Y-76294781D01*
X165144534Y-76231522D01*
X164969995Y-76203878D01*
X164942352Y-76199500D01*
X164737648Y-76199500D01*
X164713329Y-76203351D01*
X164535465Y-76231522D01*
X164340776Y-76294781D01*
X164158386Y-76387715D01*
X163992786Y-76508028D01*
X163848028Y-76652786D01*
X163727715Y-76818386D01*
X163634781Y-77000776D01*
X163571522Y-77195465D01*
X163539500Y-77397648D01*
X162297570Y-77397648D01*
X162281248Y-77376377D01*
X162281242Y-77376370D01*
X162123629Y-77218757D01*
X162123622Y-77218751D01*
X161946782Y-77083058D01*
X161946780Y-77083057D01*
X161946774Y-77083052D01*
X161753726Y-76971595D01*
X161753722Y-76971593D01*
X161547790Y-76886293D01*
X161547783Y-76886291D01*
X161547781Y-76886290D01*
X161332463Y-76828596D01*
X161332457Y-76828595D01*
X161332452Y-76828594D01*
X161111466Y-76799501D01*
X161111463Y-76799500D01*
X161111457Y-76799500D01*
X160888543Y-76799500D01*
X160888537Y-76799500D01*
X160888533Y-76799501D01*
X160667547Y-76828594D01*
X160667540Y-76828595D01*
X160667537Y-76828596D01*
X160482374Y-76878210D01*
X160452219Y-76886290D01*
X160452209Y-76886293D01*
X160246277Y-76971593D01*
X160246273Y-76971595D01*
X160053226Y-77083052D01*
X160053217Y-77083058D01*
X159876377Y-77218751D01*
X159876370Y-77218757D01*
X159718757Y-77376370D01*
X159718751Y-77376377D01*
X159583058Y-77553217D01*
X159583052Y-77553226D01*
X159471595Y-77746273D01*
X159471593Y-77746277D01*
X159386293Y-77952209D01*
X159386290Y-77952219D01*
X159332549Y-78152786D01*
X159328597Y-78167534D01*
X159328594Y-78167547D01*
X159299501Y-78388533D01*
X159299500Y-78388549D01*
X140700500Y-78388549D01*
X140700500Y-78388543D01*
X140671404Y-78167537D01*
X140613710Y-77952219D01*
X140528405Y-77746274D01*
X140416948Y-77553226D01*
X140315609Y-77421158D01*
X140281248Y-77376377D01*
X140281242Y-77376370D01*
X140123629Y-77218757D01*
X140123622Y-77218751D01*
X139946782Y-77083058D01*
X139946780Y-77083057D01*
X139946774Y-77083052D01*
X139753726Y-76971595D01*
X139753722Y-76971593D01*
X139547790Y-76886293D01*
X139547783Y-76886291D01*
X139547781Y-76886290D01*
X139332463Y-76828596D01*
X139332457Y-76828595D01*
X139332452Y-76828594D01*
X139111466Y-76799501D01*
X139111463Y-76799500D01*
X139111457Y-76799500D01*
X138888543Y-76799500D01*
X138888537Y-76799500D01*
X138888533Y-76799501D01*
X138667547Y-76828594D01*
X138667540Y-76828595D01*
X138667537Y-76828596D01*
X138482374Y-76878210D01*
X138452219Y-76886290D01*
X138452209Y-76886293D01*
X138246277Y-76971593D01*
X138246273Y-76971595D01*
X138053226Y-77083052D01*
X138053217Y-77083058D01*
X137876377Y-77218751D01*
X137876370Y-77218757D01*
X137718757Y-77376370D01*
X137718751Y-77376377D01*
X137583058Y-77553217D01*
X137583052Y-77553226D01*
X137471595Y-77746273D01*
X137471593Y-77746277D01*
X137386293Y-77952209D01*
X137386290Y-77952219D01*
X137332549Y-78152786D01*
X137328597Y-78167534D01*
X137328594Y-78167547D01*
X137299501Y-78388533D01*
X137299500Y-78388549D01*
X136648035Y-78388549D01*
X136612287Y-78318390D01*
X136612285Y-78318387D01*
X136612284Y-78318385D01*
X136491971Y-78152786D01*
X136347213Y-78008028D01*
X136181613Y-77887715D01*
X136181612Y-77887714D01*
X136181610Y-77887713D01*
X136124653Y-77858691D01*
X135999223Y-77794781D01*
X135804534Y-77731522D01*
X135629995Y-77703878D01*
X135602352Y-77699500D01*
X135397648Y-77699500D01*
X135373329Y-77703351D01*
X135195465Y-77731522D01*
X135000776Y-77794781D01*
X134818386Y-77887715D01*
X134652786Y-78008028D01*
X134508028Y-78152786D01*
X134387715Y-78318386D01*
X134294781Y-78500776D01*
X134231522Y-78695465D01*
X134199500Y-78897648D01*
X126640500Y-78897648D01*
X126608477Y-78695466D01*
X126545220Y-78500781D01*
X126545218Y-78500778D01*
X126545218Y-78500776D01*
X126511503Y-78434607D01*
X126452287Y-78318390D01*
X126416939Y-78269737D01*
X126331971Y-78152786D01*
X126187213Y-78008028D01*
X126021613Y-77887715D01*
X126021612Y-77887714D01*
X126021610Y-77887713D01*
X125964653Y-77858691D01*
X125839223Y-77794781D01*
X125644534Y-77731522D01*
X125469995Y-77703878D01*
X125442352Y-77699500D01*
X125237648Y-77699500D01*
X125213329Y-77703351D01*
X125035465Y-77731522D01*
X124840776Y-77794781D01*
X124658386Y-77887715D01*
X124492786Y-78008028D01*
X124348028Y-78152786D01*
X124224849Y-78322331D01*
X124223009Y-78320994D01*
X124177832Y-78361441D01*
X124108844Y-78372504D01*
X124044826Y-78344512D01*
X124006105Y-78286354D01*
X124000500Y-78249496D01*
X124000500Y-74945513D01*
X125489500Y-74945513D01*
X125489500Y-75134486D01*
X125519059Y-75321118D01*
X125577454Y-75500836D01*
X125663104Y-75668933D01*
X125663240Y-75669199D01*
X125774310Y-75822073D01*
X125907927Y-75955690D01*
X126060801Y-76066760D01*
X126140347Y-76107290D01*
X126229163Y-76152545D01*
X126229165Y-76152545D01*
X126229168Y-76152547D01*
X126325497Y-76183846D01*
X126408881Y-76210940D01*
X126595514Y-76240500D01*
X126595519Y-76240500D01*
X126784486Y-76240500D01*
X126971118Y-76210940D01*
X127006326Y-76199500D01*
X127150832Y-76152547D01*
X127319199Y-76066760D01*
X127472073Y-75955690D01*
X127605690Y-75822073D01*
X127716760Y-75669199D01*
X127802547Y-75500832D01*
X127860940Y-75321118D01*
X127864206Y-75300500D01*
X127890500Y-75134486D01*
X127890500Y-74945552D01*
X133110000Y-74945552D01*
X133110000Y-75134447D01*
X133139548Y-75321002D01*
X133197914Y-75500637D01*
X133283666Y-75668933D01*
X133302116Y-75694328D01*
X133827037Y-75169408D01*
X133844075Y-75232993D01*
X133909901Y-75347007D01*
X134002993Y-75440099D01*
X134117007Y-75505925D01*
X134180590Y-75522962D01*
X133655669Y-76047882D01*
X133655670Y-76047883D01*
X133681059Y-76066329D01*
X133849362Y-76152085D01*
X134028997Y-76210451D01*
X134215553Y-76240000D01*
X134404447Y-76240000D01*
X134591002Y-76210451D01*
X134770637Y-76152085D01*
X134938937Y-76066331D01*
X134964328Y-76047883D01*
X134964328Y-76047882D01*
X134439409Y-75522962D01*
X134502993Y-75505925D01*
X134617007Y-75440099D01*
X134710099Y-75347007D01*
X134775925Y-75232993D01*
X134792962Y-75169408D01*
X135317882Y-75694328D01*
X135317883Y-75694328D01*
X135336331Y-75668937D01*
X135422085Y-75500637D01*
X135480451Y-75321002D01*
X135510000Y-75134447D01*
X135510000Y-74945552D01*
X135480451Y-74758997D01*
X135422085Y-74579362D01*
X135336329Y-74411059D01*
X135317883Y-74385670D01*
X135317882Y-74385669D01*
X134792962Y-74910590D01*
X134775925Y-74847007D01*
X134710099Y-74732993D01*
X134617007Y-74639901D01*
X134502993Y-74574075D01*
X134439409Y-74557037D01*
X134964328Y-74032116D01*
X134938933Y-74013666D01*
X134918512Y-74003261D01*
X134770637Y-73927914D01*
X134677486Y-73897648D01*
X163539500Y-73897648D01*
X163539500Y-74102351D01*
X163571522Y-74304534D01*
X163634781Y-74499223D01*
X163727715Y-74681613D01*
X163848028Y-74847213D01*
X163992786Y-74991971D01*
X164095816Y-75066825D01*
X164158390Y-75112287D01*
X164274607Y-75171503D01*
X164340776Y-75205218D01*
X164340778Y-75205218D01*
X164340781Y-75205220D01*
X164445137Y-75239127D01*
X164535465Y-75268477D01*
X164636557Y-75284488D01*
X164737648Y-75300500D01*
X164737649Y-75300500D01*
X164942351Y-75300500D01*
X164942352Y-75300500D01*
X165144534Y-75268477D01*
X165339219Y-75205220D01*
X165521610Y-75112287D01*
X165621107Y-75039999D01*
X165687213Y-74991971D01*
X165687215Y-74991968D01*
X165687219Y-74991966D01*
X165831966Y-74847219D01*
X165831968Y-74847215D01*
X165831971Y-74847213D01*
X165888259Y-74769738D01*
X165952287Y-74681610D01*
X166045220Y-74499219D01*
X166108477Y-74304534D01*
X166140500Y-74102352D01*
X166140500Y-73897648D01*
X166131290Y-73839500D01*
X166108477Y-73695465D01*
X166045218Y-73500776D01*
X166011503Y-73434607D01*
X165952287Y-73318390D01*
X165932098Y-73290602D01*
X165831971Y-73152786D01*
X165687213Y-73008028D01*
X165521613Y-72887715D01*
X165521612Y-72887714D01*
X165521610Y-72887713D01*
X165464653Y-72858691D01*
X165339223Y-72794781D01*
X165144534Y-72731522D01*
X164969995Y-72703878D01*
X164942352Y-72699500D01*
X164737648Y-72699500D01*
X164713329Y-72703351D01*
X164535465Y-72731522D01*
X164340776Y-72794781D01*
X164158386Y-72887715D01*
X163992786Y-73008028D01*
X163848028Y-73152786D01*
X163727715Y-73318386D01*
X163634781Y-73500776D01*
X163571522Y-73695465D01*
X163539500Y-73897648D01*
X134677486Y-73897648D01*
X134591002Y-73869548D01*
X134404447Y-73840000D01*
X134215553Y-73840000D01*
X134028997Y-73869548D01*
X133849362Y-73927914D01*
X133681060Y-74013669D01*
X133655670Y-74032116D01*
X133655669Y-74032116D01*
X134180591Y-74557037D01*
X134117007Y-74574075D01*
X134002993Y-74639901D01*
X133909901Y-74732993D01*
X133844075Y-74847007D01*
X133827037Y-74910590D01*
X133302116Y-74385669D01*
X133302116Y-74385670D01*
X133283669Y-74411060D01*
X133197914Y-74579362D01*
X133139548Y-74758997D01*
X133110000Y-74945552D01*
X127890500Y-74945552D01*
X127890500Y-74945513D01*
X127860940Y-74758881D01*
X127816395Y-74621789D01*
X127802547Y-74579168D01*
X127802545Y-74579165D01*
X127802545Y-74579163D01*
X127757290Y-74490347D01*
X127716760Y-74410801D01*
X127605690Y-74257927D01*
X127472073Y-74124310D01*
X127319199Y-74013240D01*
X127299614Y-74003261D01*
X127150836Y-73927454D01*
X126971118Y-73869059D01*
X126784486Y-73839500D01*
X126784481Y-73839500D01*
X126595519Y-73839500D01*
X126595514Y-73839500D01*
X126408881Y-73869059D01*
X126229163Y-73927454D01*
X126060800Y-74013240D01*
X125973579Y-74076610D01*
X125907927Y-74124310D01*
X125907925Y-74124312D01*
X125907924Y-74124312D01*
X125774312Y-74257924D01*
X125774312Y-74257925D01*
X125774310Y-74257927D01*
X125740448Y-74304534D01*
X125663240Y-74410800D01*
X125577454Y-74579163D01*
X125519059Y-74758881D01*
X125489500Y-74945513D01*
X124000500Y-74945513D01*
X124000500Y-69865513D01*
X125489500Y-69865513D01*
X125489500Y-70054486D01*
X125519059Y-70241118D01*
X125577454Y-70420836D01*
X125657963Y-70578842D01*
X125663240Y-70589199D01*
X125774310Y-70742073D01*
X125907927Y-70875690D01*
X126060801Y-70986760D01*
X126140347Y-71027290D01*
X126229163Y-71072545D01*
X126229165Y-71072545D01*
X126229168Y-71072547D01*
X126325497Y-71103846D01*
X126408881Y-71130940D01*
X126595514Y-71160500D01*
X126595519Y-71160500D01*
X126784486Y-71160500D01*
X126971118Y-71130940D01*
X127150832Y-71072547D01*
X127319199Y-70986760D01*
X127472073Y-70875690D01*
X127605690Y-70742073D01*
X127716760Y-70589199D01*
X127802547Y-70420832D01*
X127860940Y-70241118D01*
X127890500Y-70054486D01*
X127890500Y-69865513D01*
X133109500Y-69865513D01*
X133109500Y-70054486D01*
X133139059Y-70241118D01*
X133197454Y-70420836D01*
X133277963Y-70578842D01*
X133283240Y-70589199D01*
X133394310Y-70742073D01*
X133527927Y-70875690D01*
X133680801Y-70986760D01*
X133760347Y-71027290D01*
X133849163Y-71072545D01*
X133849165Y-71072545D01*
X133849168Y-71072547D01*
X133945497Y-71103846D01*
X134028881Y-71130940D01*
X134215514Y-71160500D01*
X134215519Y-71160500D01*
X134404486Y-71160500D01*
X134591118Y-71130940D01*
X134770832Y-71072547D01*
X134939199Y-70986760D01*
X135092073Y-70875690D01*
X135225690Y-70742073D01*
X135336760Y-70589199D01*
X135422547Y-70420832D01*
X135430080Y-70397648D01*
X163539500Y-70397648D01*
X163539500Y-70602351D01*
X163571522Y-70804534D01*
X163634781Y-70999223D01*
X163727715Y-71181613D01*
X163848028Y-71347213D01*
X163992786Y-71491971D01*
X164095816Y-71566825D01*
X164158390Y-71612287D01*
X164274607Y-71671503D01*
X164340776Y-71705218D01*
X164340778Y-71705218D01*
X164340781Y-71705220D01*
X164445137Y-71739127D01*
X164535465Y-71768477D01*
X164636557Y-71784488D01*
X164737648Y-71800500D01*
X164737649Y-71800500D01*
X164942351Y-71800500D01*
X164942352Y-71800500D01*
X165144534Y-71768477D01*
X165339219Y-71705220D01*
X165521610Y-71612287D01*
X165614590Y-71544732D01*
X165687213Y-71491971D01*
X165687215Y-71491968D01*
X165687219Y-71491966D01*
X165831966Y-71347219D01*
X165831968Y-71347215D01*
X165831971Y-71347213D01*
X165888259Y-71269738D01*
X165952287Y-71181610D01*
X166045220Y-70999219D01*
X166108477Y-70804534D01*
X166140500Y-70602352D01*
X166140500Y-70397648D01*
X166133659Y-70354457D01*
X166108477Y-70195465D01*
X166045218Y-70000776D01*
X166011503Y-69934607D01*
X165952287Y-69818390D01*
X165932098Y-69790602D01*
X165831971Y-69652786D01*
X165687213Y-69508028D01*
X165521613Y-69387715D01*
X165521612Y-69387714D01*
X165521610Y-69387713D01*
X165464653Y-69358691D01*
X165339223Y-69294781D01*
X165144534Y-69231522D01*
X164969995Y-69203878D01*
X164942352Y-69199500D01*
X164737648Y-69199500D01*
X164713329Y-69203351D01*
X164535465Y-69231522D01*
X164340776Y-69294781D01*
X164158386Y-69387715D01*
X163992786Y-69508028D01*
X163848028Y-69652786D01*
X163727715Y-69818386D01*
X163634781Y-70000776D01*
X163571522Y-70195465D01*
X163539500Y-70397648D01*
X135430080Y-70397648D01*
X135480940Y-70241118D01*
X135510500Y-70054486D01*
X135510500Y-69865513D01*
X135480940Y-69678881D01*
X135453846Y-69595497D01*
X135422547Y-69499168D01*
X135422545Y-69499165D01*
X135422545Y-69499163D01*
X135365758Y-69387713D01*
X135336760Y-69330801D01*
X135225690Y-69177927D01*
X135092073Y-69044310D01*
X134939199Y-68933240D01*
X134770836Y-68847454D01*
X134591118Y-68789059D01*
X134404486Y-68759500D01*
X134404481Y-68759500D01*
X134215519Y-68759500D01*
X134215514Y-68759500D01*
X134028881Y-68789059D01*
X133849163Y-68847454D01*
X133680800Y-68933240D01*
X133593579Y-68996610D01*
X133527927Y-69044310D01*
X133527925Y-69044312D01*
X133527924Y-69044312D01*
X133394312Y-69177924D01*
X133394312Y-69177925D01*
X133394310Y-69177927D01*
X133355371Y-69231522D01*
X133283240Y-69330800D01*
X133197454Y-69499163D01*
X133139059Y-69678881D01*
X133109500Y-69865513D01*
X127890500Y-69865513D01*
X127860940Y-69678881D01*
X127833846Y-69595497D01*
X127802547Y-69499168D01*
X127802545Y-69499165D01*
X127802545Y-69499163D01*
X127745758Y-69387713D01*
X127716760Y-69330801D01*
X127605690Y-69177927D01*
X127472073Y-69044310D01*
X127319199Y-68933240D01*
X127150836Y-68847454D01*
X126971118Y-68789059D01*
X126784486Y-68759500D01*
X126784481Y-68759500D01*
X126595519Y-68759500D01*
X126595514Y-68759500D01*
X126408881Y-68789059D01*
X126229163Y-68847454D01*
X126060800Y-68933240D01*
X125973579Y-68996610D01*
X125907927Y-69044310D01*
X125907925Y-69044312D01*
X125907924Y-69044312D01*
X125774312Y-69177924D01*
X125774312Y-69177925D01*
X125774310Y-69177927D01*
X125735371Y-69231522D01*
X125663240Y-69330800D01*
X125577454Y-69499163D01*
X125519059Y-69678881D01*
X125489500Y-69865513D01*
X124000500Y-69865513D01*
X124000500Y-66897648D01*
X163539500Y-66897648D01*
X163539500Y-67102351D01*
X163571522Y-67304534D01*
X163634781Y-67499223D01*
X163727715Y-67681613D01*
X163848028Y-67847213D01*
X163992786Y-67991971D01*
X164095816Y-68066825D01*
X164158390Y-68112287D01*
X164274607Y-68171503D01*
X164340776Y-68205218D01*
X164340778Y-68205218D01*
X164340781Y-68205220D01*
X164445137Y-68239127D01*
X164535465Y-68268477D01*
X164636557Y-68284488D01*
X164737648Y-68300500D01*
X164737649Y-68300500D01*
X164942351Y-68300500D01*
X164942352Y-68300500D01*
X165144534Y-68268477D01*
X165339219Y-68205220D01*
X165521610Y-68112287D01*
X165614590Y-68044732D01*
X165687213Y-67991971D01*
X165687215Y-67991968D01*
X165687219Y-67991966D01*
X165831966Y-67847219D01*
X165831968Y-67847215D01*
X165831971Y-67847213D01*
X165888259Y-67769738D01*
X165952287Y-67681610D01*
X166045220Y-67499219D01*
X166108477Y-67304534D01*
X166140500Y-67102352D01*
X166140500Y-66897648D01*
X166108477Y-66695465D01*
X166066658Y-66566760D01*
X166045220Y-66500781D01*
X166045218Y-66500778D01*
X166045218Y-66500776D01*
X166000464Y-66412942D01*
X165952287Y-66318390D01*
X165932098Y-66290602D01*
X165831971Y-66152786D01*
X165687213Y-66008028D01*
X165521613Y-65887715D01*
X165521612Y-65887714D01*
X165521610Y-65887713D01*
X165441720Y-65847007D01*
X165339223Y-65794781D01*
X165144534Y-65731522D01*
X164969995Y-65703878D01*
X164942352Y-65699500D01*
X164737648Y-65699500D01*
X164713329Y-65703351D01*
X164535465Y-65731522D01*
X164340776Y-65794781D01*
X164158386Y-65887715D01*
X163992786Y-66008028D01*
X163848028Y-66152786D01*
X163727715Y-66318386D01*
X163634781Y-66500776D01*
X163571522Y-66695465D01*
X163539500Y-66897648D01*
X124000500Y-66897648D01*
X124000500Y-65445513D01*
X125489500Y-65445513D01*
X125489500Y-65634486D01*
X125519059Y-65821118D01*
X125577454Y-66000836D01*
X125654875Y-66152781D01*
X125663240Y-66169199D01*
X125774310Y-66322073D01*
X125907927Y-66455690D01*
X126060801Y-66566760D01*
X126140347Y-66607290D01*
X126229163Y-66652545D01*
X126229165Y-66652545D01*
X126229168Y-66652547D01*
X126325497Y-66683846D01*
X126408881Y-66710940D01*
X126595514Y-66740500D01*
X126595519Y-66740500D01*
X126784486Y-66740500D01*
X126971118Y-66710940D01*
X126972623Y-66710451D01*
X127150832Y-66652547D01*
X127319199Y-66566760D01*
X127472073Y-66455690D01*
X127605690Y-66322073D01*
X127716760Y-66169199D01*
X127802547Y-66000832D01*
X127860940Y-65821118D01*
X127865111Y-65794781D01*
X127890500Y-65634486D01*
X127890500Y-65445552D01*
X133110000Y-65445552D01*
X133110000Y-65634447D01*
X133139548Y-65821002D01*
X133197914Y-66000637D01*
X133283666Y-66168933D01*
X133302116Y-66194328D01*
X133827037Y-65669408D01*
X133844075Y-65732993D01*
X133909901Y-65847007D01*
X134002993Y-65940099D01*
X134117007Y-66005925D01*
X134180590Y-66022962D01*
X133655669Y-66547882D01*
X133655670Y-66547883D01*
X133681059Y-66566329D01*
X133849362Y-66652085D01*
X134028997Y-66710451D01*
X134215553Y-66740000D01*
X134404447Y-66740000D01*
X134591002Y-66710451D01*
X134770637Y-66652085D01*
X134938937Y-66566331D01*
X134964328Y-66547883D01*
X134964328Y-66547882D01*
X134439409Y-66022962D01*
X134502993Y-66005925D01*
X134617007Y-65940099D01*
X134710099Y-65847007D01*
X134775925Y-65732993D01*
X134792962Y-65669408D01*
X135317882Y-66194328D01*
X135317883Y-66194328D01*
X135336331Y-66168937D01*
X135422085Y-66000637D01*
X135480451Y-65821002D01*
X135510000Y-65634447D01*
X135510000Y-65445552D01*
X135480451Y-65258997D01*
X135422085Y-65079362D01*
X135336329Y-64911059D01*
X135317883Y-64885670D01*
X135317882Y-64885669D01*
X134792962Y-65410590D01*
X134775925Y-65347007D01*
X134710099Y-65232993D01*
X134617007Y-65139901D01*
X134502993Y-65074075D01*
X134439409Y-65057037D01*
X134964328Y-64532116D01*
X134938933Y-64513666D01*
X134770637Y-64427914D01*
X134591002Y-64369548D01*
X134404447Y-64340000D01*
X134215553Y-64340000D01*
X134028997Y-64369548D01*
X133849362Y-64427914D01*
X133681060Y-64513669D01*
X133655670Y-64532116D01*
X133655669Y-64532116D01*
X134180591Y-65057037D01*
X134117007Y-65074075D01*
X134002993Y-65139901D01*
X133909901Y-65232993D01*
X133844075Y-65347007D01*
X133827037Y-65410590D01*
X133302116Y-64885669D01*
X133302116Y-64885670D01*
X133283669Y-64911060D01*
X133197914Y-65079362D01*
X133139548Y-65258997D01*
X133110000Y-65445552D01*
X127890500Y-65445552D01*
X127890500Y-65445513D01*
X127860940Y-65258881D01*
X127802545Y-65079163D01*
X127752135Y-64980228D01*
X127716760Y-64910801D01*
X127605690Y-64757927D01*
X127472073Y-64624310D01*
X127319199Y-64513240D01*
X127150836Y-64427454D01*
X126971118Y-64369059D01*
X126784486Y-64339500D01*
X126784481Y-64339500D01*
X126595519Y-64339500D01*
X126595514Y-64339500D01*
X126408881Y-64369059D01*
X126229163Y-64427454D01*
X126060800Y-64513240D01*
X125973579Y-64576610D01*
X125907927Y-64624310D01*
X125907925Y-64624312D01*
X125907924Y-64624312D01*
X125774312Y-64757924D01*
X125774312Y-64757925D01*
X125774310Y-64757927D01*
X125760599Y-64776799D01*
X125663240Y-64910800D01*
X125577454Y-65079163D01*
X125519059Y-65258881D01*
X125489500Y-65445513D01*
X124000500Y-65445513D01*
X124000500Y-62907486D01*
X164824500Y-62907486D01*
X164824500Y-63092513D01*
X164853445Y-63275265D01*
X164910619Y-63451232D01*
X164910620Y-63451235D01*
X164994622Y-63616096D01*
X165103379Y-63765787D01*
X165234213Y-63896621D01*
X165383904Y-64005378D01*
X165464763Y-64046577D01*
X165548764Y-64089379D01*
X165548767Y-64089380D01*
X165599436Y-64105843D01*
X165724736Y-64146555D01*
X165907486Y-64175500D01*
X165907487Y-64175500D01*
X166092513Y-64175500D01*
X166092514Y-64175500D01*
X166275264Y-64146555D01*
X166451235Y-64089379D01*
X166616096Y-64005378D01*
X166765787Y-63896621D01*
X166896621Y-63765787D01*
X167005378Y-63616096D01*
X167089379Y-63451235D01*
X167146555Y-63275264D01*
X167175500Y-63092514D01*
X167175500Y-62907486D01*
X167146555Y-62724736D01*
X167117967Y-62636750D01*
X167089380Y-62548767D01*
X167089379Y-62548764D01*
X167046577Y-62464763D01*
X167005378Y-62383904D01*
X166921159Y-62267987D01*
X166897680Y-62202183D01*
X166913505Y-62134129D01*
X166947167Y-62095836D01*
X167032190Y-62032186D01*
X167118350Y-61917093D01*
X167118354Y-61917086D01*
X167168596Y-61782379D01*
X167168598Y-61782372D01*
X167174999Y-61722844D01*
X167175000Y-61722827D01*
X167175000Y-61250000D01*
X166315686Y-61250000D01*
X166320080Y-61245606D01*
X166372741Y-61154394D01*
X166400000Y-61052661D01*
X166400000Y-60947339D01*
X166372741Y-60845606D01*
X166320080Y-60754394D01*
X166315686Y-60750000D01*
X167175000Y-60750000D01*
X167175000Y-60277172D01*
X167174999Y-60277155D01*
X167168598Y-60217627D01*
X167168596Y-60217620D01*
X167118354Y-60082913D01*
X167118350Y-60082906D01*
X167032190Y-59967812D01*
X167032187Y-59967809D01*
X166917093Y-59881649D01*
X166917086Y-59881645D01*
X166782379Y-59831403D01*
X166782372Y-59831401D01*
X166722844Y-59825000D01*
X166250000Y-59825000D01*
X166250000Y-60684314D01*
X166245606Y-60679920D01*
X166154394Y-60627259D01*
X166052661Y-60600000D01*
X165947339Y-60600000D01*
X165845606Y-60627259D01*
X165754394Y-60679920D01*
X165750000Y-60684314D01*
X165750000Y-59825000D01*
X165277155Y-59825000D01*
X165217627Y-59831401D01*
X165217620Y-59831403D01*
X165082913Y-59881645D01*
X165082906Y-59881649D01*
X164967812Y-59967809D01*
X164967809Y-59967812D01*
X164881649Y-60082906D01*
X164881645Y-60082913D01*
X164831403Y-60217620D01*
X164831401Y-60217627D01*
X164825000Y-60277155D01*
X164825000Y-60750000D01*
X165684314Y-60750000D01*
X165679920Y-60754394D01*
X165627259Y-60845606D01*
X165600000Y-60947339D01*
X165600000Y-61052661D01*
X165627259Y-61154394D01*
X165679920Y-61245606D01*
X165684314Y-61250000D01*
X164825000Y-61250000D01*
X164825000Y-61722844D01*
X164831401Y-61782372D01*
X164831403Y-61782379D01*
X164881645Y-61917086D01*
X164881649Y-61917093D01*
X164967809Y-62032186D01*
X165052832Y-62095835D01*
X165094703Y-62151769D01*
X165099687Y-62221461D01*
X165078839Y-62267987D01*
X164994624Y-62383900D01*
X164910620Y-62548764D01*
X164910619Y-62548767D01*
X164853445Y-62724734D01*
X164824500Y-62907486D01*
X124000500Y-62907486D01*
X124000500Y-60365513D01*
X125489500Y-60365513D01*
X125489500Y-60554486D01*
X125519059Y-60741118D01*
X125577454Y-60920836D01*
X125644623Y-61052661D01*
X125663240Y-61089199D01*
X125774310Y-61242073D01*
X125907927Y-61375690D01*
X126060801Y-61486760D01*
X126140347Y-61527290D01*
X126229163Y-61572545D01*
X126229165Y-61572545D01*
X126229168Y-61572547D01*
X126325497Y-61603846D01*
X126408881Y-61630940D01*
X126595514Y-61660500D01*
X126595519Y-61660500D01*
X126784486Y-61660500D01*
X126971118Y-61630940D01*
X127150832Y-61572547D01*
X127319199Y-61486760D01*
X127472073Y-61375690D01*
X127605690Y-61242073D01*
X127716760Y-61089199D01*
X127802547Y-60920832D01*
X127860940Y-60741118D01*
X127870633Y-60679920D01*
X127890500Y-60554486D01*
X127890500Y-60365513D01*
X133109500Y-60365513D01*
X133109500Y-60554486D01*
X133139059Y-60741118D01*
X133197454Y-60920836D01*
X133264623Y-61052661D01*
X133283240Y-61089199D01*
X133394310Y-61242073D01*
X133527927Y-61375690D01*
X133680801Y-61486760D01*
X133760347Y-61527290D01*
X133849163Y-61572545D01*
X133849165Y-61572545D01*
X133849168Y-61572547D01*
X133945497Y-61603846D01*
X134028881Y-61630940D01*
X134215514Y-61660500D01*
X134215519Y-61660500D01*
X134404486Y-61660500D01*
X134591118Y-61630940D01*
X134770832Y-61572547D01*
X134939199Y-61486760D01*
X135092073Y-61375690D01*
X135225690Y-61242073D01*
X135336760Y-61089199D01*
X135422547Y-60920832D01*
X135480940Y-60741118D01*
X135490633Y-60679920D01*
X135510500Y-60554486D01*
X135510500Y-60365514D01*
X135499054Y-60293250D01*
X135499054Y-60293249D01*
X135480940Y-60178881D01*
X135449755Y-60082906D01*
X135422547Y-59999168D01*
X135422545Y-59999165D01*
X135422545Y-59999163D01*
X135343363Y-59843761D01*
X135336760Y-59830801D01*
X135225690Y-59677927D01*
X135092073Y-59544310D01*
X134939199Y-59433240D01*
X134770836Y-59347454D01*
X134591118Y-59289059D01*
X134404486Y-59259500D01*
X134404481Y-59259500D01*
X134215519Y-59259500D01*
X134215514Y-59259500D01*
X134028881Y-59289059D01*
X133849163Y-59347454D01*
X133680800Y-59433240D01*
X133615339Y-59480801D01*
X133527927Y-59544310D01*
X133527925Y-59544312D01*
X133527924Y-59544312D01*
X133394312Y-59677924D01*
X133394312Y-59677925D01*
X133394310Y-59677927D01*
X133346610Y-59743579D01*
X133283240Y-59830800D01*
X133197454Y-59999163D01*
X133139059Y-60178881D01*
X133109500Y-60365513D01*
X127890500Y-60365513D01*
X127860940Y-60178881D01*
X127829755Y-60082906D01*
X127802547Y-59999168D01*
X127802545Y-59999165D01*
X127802545Y-59999163D01*
X127723363Y-59843761D01*
X127716760Y-59830801D01*
X127605690Y-59677927D01*
X127472073Y-59544310D01*
X127319199Y-59433240D01*
X127150836Y-59347454D01*
X126971118Y-59289059D01*
X126784486Y-59259500D01*
X126784481Y-59259500D01*
X126595519Y-59259500D01*
X126595514Y-59259500D01*
X126408881Y-59289059D01*
X126229163Y-59347454D01*
X126060800Y-59433240D01*
X125995339Y-59480801D01*
X125907927Y-59544310D01*
X125907925Y-59544312D01*
X125907924Y-59544312D01*
X125774312Y-59677924D01*
X125774312Y-59677925D01*
X125774310Y-59677927D01*
X125726610Y-59743579D01*
X125663240Y-59830800D01*
X125577454Y-59999163D01*
X125519059Y-60178881D01*
X125489500Y-60365513D01*
X124000500Y-60365513D01*
X124000500Y-55102135D01*
X130374500Y-55102135D01*
X130374500Y-56897870D01*
X130374501Y-56897876D01*
X130380908Y-56957483D01*
X130431202Y-57092328D01*
X130431206Y-57092335D01*
X130517452Y-57207544D01*
X130517455Y-57207547D01*
X130632664Y-57293793D01*
X130632671Y-57293797D01*
X130767517Y-57344091D01*
X130767516Y-57344091D01*
X130774444Y-57344835D01*
X130827127Y-57350500D01*
X132622872Y-57350499D01*
X132682483Y-57344091D01*
X132817331Y-57293796D01*
X132932546Y-57207546D01*
X133018796Y-57092331D01*
X133069091Y-56957483D01*
X133075500Y-56897873D01*
X133075499Y-56873979D01*
X133078330Y-56860963D01*
X133088940Y-56841525D01*
X133095179Y-56820275D01*
X133111803Y-56799643D01*
X133111808Y-56799636D01*
X133111811Y-56799634D01*
X133111818Y-56799626D01*
X133782037Y-56129408D01*
X133799075Y-56192993D01*
X133864901Y-56307007D01*
X133957993Y-56400099D01*
X134072007Y-56465925D01*
X134135590Y-56482962D01*
X133503282Y-57115269D01*
X133503282Y-57115270D01*
X133557449Y-57154624D01*
X133746782Y-57251095D01*
X133948870Y-57316757D01*
X134158754Y-57350000D01*
X134371246Y-57350000D01*
X134581127Y-57316757D01*
X134581130Y-57316757D01*
X134783217Y-57251095D01*
X134972554Y-57154622D01*
X135026716Y-57115270D01*
X135026717Y-57115270D01*
X134394408Y-56482962D01*
X134457993Y-56465925D01*
X134572007Y-56400099D01*
X134665099Y-56307007D01*
X134730925Y-56192993D01*
X134747962Y-56129408D01*
X135380270Y-56761717D01*
X135380270Y-56761716D01*
X135419622Y-56707554D01*
X135516095Y-56518217D01*
X135558227Y-56388549D01*
X137299500Y-56388549D01*
X137299500Y-56611450D01*
X137299501Y-56611466D01*
X137328594Y-56832452D01*
X137328595Y-56832457D01*
X137328596Y-56832463D01*
X137386290Y-57047780D01*
X137386293Y-57047790D01*
X137452467Y-57207547D01*
X137471595Y-57253726D01*
X137583052Y-57446774D01*
X137583057Y-57446780D01*
X137583058Y-57446782D01*
X137718751Y-57623622D01*
X137718757Y-57623629D01*
X137876370Y-57781242D01*
X137876376Y-57781247D01*
X138053226Y-57916948D01*
X138246274Y-58028405D01*
X138452219Y-58113710D01*
X138667537Y-58171404D01*
X138888543Y-58200500D01*
X138888550Y-58200500D01*
X139111450Y-58200500D01*
X139111457Y-58200500D01*
X139332463Y-58171404D01*
X139547781Y-58113710D01*
X139753726Y-58028405D01*
X139946774Y-57916948D01*
X140123624Y-57781247D01*
X140281247Y-57623624D01*
X140416948Y-57446774D01*
X140528405Y-57253726D01*
X140613710Y-57047781D01*
X140671404Y-56832463D01*
X140700500Y-56611457D01*
X140700500Y-56388543D01*
X140671404Y-56167537D01*
X140613710Y-55952219D01*
X140613302Y-55951235D01*
X140528406Y-55746277D01*
X140528401Y-55746266D01*
X140451279Y-55612688D01*
X140451278Y-55612687D01*
X140434816Y-55584174D01*
X140418291Y-55555552D01*
X144990000Y-55555552D01*
X144990000Y-55744447D01*
X145019548Y-55931002D01*
X145077914Y-56110637D01*
X145163666Y-56278933D01*
X145182116Y-56304328D01*
X145707037Y-55779408D01*
X145724075Y-55842993D01*
X145789901Y-55957007D01*
X145882993Y-56050099D01*
X145997007Y-56115925D01*
X146060590Y-56132962D01*
X145535669Y-56657882D01*
X145535670Y-56657883D01*
X145561059Y-56676329D01*
X145729362Y-56762085D01*
X145908997Y-56820451D01*
X146095553Y-56850000D01*
X146284447Y-56850000D01*
X146471002Y-56820451D01*
X146650637Y-56762085D01*
X146818937Y-56676331D01*
X146844328Y-56657883D01*
X146844328Y-56657882D01*
X146319409Y-56132962D01*
X146382993Y-56115925D01*
X146497007Y-56050099D01*
X146590099Y-55957007D01*
X146655925Y-55842993D01*
X146672962Y-55779408D01*
X147197882Y-56304328D01*
X147197883Y-56304328D01*
X147216331Y-56278937D01*
X147302086Y-56110635D01*
X147341806Y-55988389D01*
X147381243Y-55930713D01*
X147445601Y-55903514D01*
X147514448Y-55915428D01*
X147565924Y-55962672D01*
X147577668Y-55988387D01*
X147617454Y-56110836D01*
X147696406Y-56265787D01*
X147703240Y-56279199D01*
X147814310Y-56432073D01*
X147947927Y-56565690D01*
X148100801Y-56676760D01*
X148161238Y-56707554D01*
X148269163Y-56762545D01*
X148269165Y-56762545D01*
X148269168Y-56762547D01*
X148365497Y-56793846D01*
X148448881Y-56820940D01*
X148635514Y-56850500D01*
X148635519Y-56850500D01*
X148824486Y-56850500D01*
X149011118Y-56820940D01*
X149013165Y-56820275D01*
X149190832Y-56762547D01*
X149359199Y-56676760D01*
X149512073Y-56565690D01*
X149645690Y-56432073D01*
X149756760Y-56279199D01*
X149842547Y-56110832D01*
X149882069Y-55989195D01*
X149921507Y-55931521D01*
X149985866Y-55904323D01*
X150054712Y-55916238D01*
X150106188Y-55963482D01*
X150117931Y-55989196D01*
X150157454Y-56110836D01*
X150236406Y-56265787D01*
X150243240Y-56279199D01*
X150354310Y-56432073D01*
X150487927Y-56565690D01*
X150640801Y-56676760D01*
X150701238Y-56707554D01*
X150809163Y-56762545D01*
X150809165Y-56762545D01*
X150809168Y-56762547D01*
X150905497Y-56793846D01*
X150988881Y-56820940D01*
X151175514Y-56850500D01*
X151175519Y-56850500D01*
X151364486Y-56850500D01*
X151551118Y-56820940D01*
X151553165Y-56820275D01*
X151730832Y-56762547D01*
X151899199Y-56676760D01*
X152052073Y-56565690D01*
X152185690Y-56432073D01*
X152296760Y-56279199D01*
X152382547Y-56110832D01*
X152422069Y-55989195D01*
X152461507Y-55931521D01*
X152525866Y-55904323D01*
X152594712Y-55916238D01*
X152646188Y-55963482D01*
X152657931Y-55989196D01*
X152697454Y-56110836D01*
X152776406Y-56265787D01*
X152783240Y-56279199D01*
X152894310Y-56432073D01*
X153027927Y-56565690D01*
X153180801Y-56676760D01*
X153241238Y-56707554D01*
X153349163Y-56762545D01*
X153349165Y-56762545D01*
X153349168Y-56762547D01*
X153445497Y-56793846D01*
X153528881Y-56820940D01*
X153715514Y-56850500D01*
X153715519Y-56850500D01*
X153904486Y-56850500D01*
X154091118Y-56820940D01*
X154093165Y-56820275D01*
X154270832Y-56762547D01*
X154439199Y-56676760D01*
X154592073Y-56565690D01*
X154725690Y-56432073D01*
X154757312Y-56388549D01*
X159299500Y-56388549D01*
X159299500Y-56611450D01*
X159299501Y-56611466D01*
X159328594Y-56832452D01*
X159328595Y-56832457D01*
X159328596Y-56832463D01*
X159386290Y-57047780D01*
X159386293Y-57047790D01*
X159452467Y-57207547D01*
X159471595Y-57253726D01*
X159583052Y-57446774D01*
X159583057Y-57446780D01*
X159583058Y-57446782D01*
X159718751Y-57623622D01*
X159718757Y-57623629D01*
X159876370Y-57781242D01*
X159876376Y-57781247D01*
X160053226Y-57916948D01*
X160246274Y-58028405D01*
X160452219Y-58113710D01*
X160667537Y-58171404D01*
X160888543Y-58200500D01*
X160888550Y-58200500D01*
X161111450Y-58200500D01*
X161111457Y-58200500D01*
X161332463Y-58171404D01*
X161547781Y-58113710D01*
X161753726Y-58028405D01*
X161776055Y-58015513D01*
X170029500Y-58015513D01*
X170029500Y-58204486D01*
X170059059Y-58391118D01*
X170117454Y-58570836D01*
X170203240Y-58739199D01*
X170314310Y-58892073D01*
X170314312Y-58892075D01*
X170444556Y-59022319D01*
X170478041Y-59083642D01*
X170473057Y-59153334D01*
X170444556Y-59197681D01*
X170314312Y-59327924D01*
X170314312Y-59327925D01*
X170314310Y-59327927D01*
X170300123Y-59347454D01*
X170203240Y-59480800D01*
X170117454Y-59649163D01*
X170059059Y-59828881D01*
X170029500Y-60015513D01*
X170029500Y-60204486D01*
X170059059Y-60391118D01*
X170117454Y-60570836D01*
X170173036Y-60679920D01*
X170203240Y-60739199D01*
X170314310Y-60892073D01*
X170314312Y-60892075D01*
X170444556Y-61022319D01*
X170478041Y-61083642D01*
X170473057Y-61153334D01*
X170444556Y-61197681D01*
X170314312Y-61327924D01*
X170314312Y-61327925D01*
X170314310Y-61327927D01*
X170281751Y-61372741D01*
X170203240Y-61480800D01*
X170117454Y-61649163D01*
X170059059Y-61828881D01*
X170029500Y-62015513D01*
X170029500Y-62204486D01*
X170059059Y-62391118D01*
X170117454Y-62570836D01*
X170195870Y-62724734D01*
X170203240Y-62739199D01*
X170314310Y-62892073D01*
X170447927Y-63025690D01*
X170600801Y-63136760D01*
X170680347Y-63177290D01*
X170769163Y-63222545D01*
X170769165Y-63222545D01*
X170769168Y-63222547D01*
X170865497Y-63253846D01*
X170948881Y-63280940D01*
X171135515Y-63310500D01*
X171140369Y-63310882D01*
X171140234Y-63312586D01*
X171200168Y-63330185D01*
X171245923Y-63382989D01*
X171255867Y-63452147D01*
X171243614Y-63490795D01*
X171155770Y-63663196D01*
X171085215Y-63880339D01*
X171049500Y-64105837D01*
X171049500Y-64334162D01*
X171085215Y-64559660D01*
X171155770Y-64776803D01*
X171224178Y-64911060D01*
X171259421Y-64980228D01*
X171393621Y-65164937D01*
X171555063Y-65326379D01*
X171739772Y-65460579D01*
X171766454Y-65474174D01*
X171943196Y-65564229D01*
X171943198Y-65564229D01*
X171943201Y-65564231D01*
X172059592Y-65602049D01*
X172160339Y-65634784D01*
X172385838Y-65670500D01*
X172385843Y-65670500D01*
X172614162Y-65670500D01*
X172839660Y-65634784D01*
X172840697Y-65634447D01*
X173056799Y-65564231D01*
X173260228Y-65460579D01*
X173444937Y-65326379D01*
X173606379Y-65164937D01*
X173740579Y-64980228D01*
X173844231Y-64776799D01*
X173914784Y-64559660D01*
X173922136Y-64513240D01*
X173950500Y-64334162D01*
X173950500Y-64105837D01*
X173914784Y-63880339D01*
X173844229Y-63663196D01*
X173756386Y-63490795D01*
X173743490Y-63422126D01*
X173769766Y-63357385D01*
X173826873Y-63317128D01*
X173859694Y-63311689D01*
X173859631Y-63310882D01*
X173864484Y-63310500D01*
X174051118Y-63280940D01*
X174068587Y-63275264D01*
X174230832Y-63222547D01*
X174399199Y-63136760D01*
X174552073Y-63025690D01*
X174685690Y-62892073D01*
X174796760Y-62739199D01*
X174882547Y-62570832D01*
X174940940Y-62391118D01*
X174942083Y-62383900D01*
X174970500Y-62204486D01*
X174970500Y-62015513D01*
X174940940Y-61828881D01*
X174882545Y-61649163D01*
X174799796Y-61486760D01*
X174796760Y-61480801D01*
X174685690Y-61327927D01*
X174555444Y-61197681D01*
X174521959Y-61136358D01*
X174526943Y-61066666D01*
X174555444Y-61022319D01*
X174685690Y-60892073D01*
X174796760Y-60739199D01*
X174882547Y-60570832D01*
X174940940Y-60391118D01*
X174943297Y-60376238D01*
X174970500Y-60204486D01*
X174970500Y-60015513D01*
X174940940Y-59828881D01*
X174882545Y-59649163D01*
X174796759Y-59480800D01*
X174685690Y-59327927D01*
X174555444Y-59197681D01*
X174521959Y-59136358D01*
X174526943Y-59066666D01*
X174555444Y-59022319D01*
X174685690Y-58892073D01*
X174796760Y-58739199D01*
X174882547Y-58570832D01*
X174940940Y-58391118D01*
X174945184Y-58364323D01*
X174970500Y-58204486D01*
X174970500Y-58015513D01*
X174940940Y-57828881D01*
X174882545Y-57649163D01*
X174796759Y-57480800D01*
X174685690Y-57327927D01*
X174552073Y-57194310D01*
X174399199Y-57083240D01*
X174230836Y-56997454D01*
X174051118Y-56939059D01*
X173864484Y-56909499D01*
X173859631Y-56909118D01*
X173859765Y-56907413D01*
X173799832Y-56889815D01*
X173754077Y-56837011D01*
X173744133Y-56767853D01*
X173756386Y-56729205D01*
X173844229Y-56556803D01*
X173844229Y-56556802D01*
X173844231Y-56556799D01*
X173914784Y-56339660D01*
X173926484Y-56265788D01*
X173950500Y-56114162D01*
X173950500Y-55885837D01*
X173914784Y-55660339D01*
X173844229Y-55443196D01*
X173740578Y-55239771D01*
X173739496Y-55238282D01*
X173606379Y-55055063D01*
X173444937Y-54893621D01*
X173260228Y-54759421D01*
X173210945Y-54734310D01*
X173056803Y-54655770D01*
X172839660Y-54585215D01*
X172614162Y-54549500D01*
X172614157Y-54549500D01*
X172385843Y-54549500D01*
X172385838Y-54549500D01*
X172160339Y-54585215D01*
X171943196Y-54655770D01*
X171739771Y-54759421D01*
X171555061Y-54893622D01*
X171393622Y-55055061D01*
X171259421Y-55239771D01*
X171155770Y-55443196D01*
X171085215Y-55660339D01*
X171049500Y-55885837D01*
X171049500Y-56114162D01*
X171085215Y-56339660D01*
X171155770Y-56556803D01*
X171243614Y-56729205D01*
X171256510Y-56797874D01*
X171230234Y-56862615D01*
X171173127Y-56902872D01*
X171140305Y-56908310D01*
X171140369Y-56909118D01*
X171135515Y-56909499D01*
X170948881Y-56939059D01*
X170769163Y-56997454D01*
X170600800Y-57083240D01*
X170513579Y-57146610D01*
X170447927Y-57194310D01*
X170447925Y-57194312D01*
X170447924Y-57194312D01*
X170314312Y-57327924D01*
X170314312Y-57327925D01*
X170314310Y-57327927D01*
X170297910Y-57350500D01*
X170203240Y-57480800D01*
X170117454Y-57649163D01*
X170059059Y-57828881D01*
X170029500Y-58015513D01*
X161776055Y-58015513D01*
X161946774Y-57916948D01*
X162123624Y-57781247D01*
X162281247Y-57623624D01*
X162416948Y-57446774D01*
X162528405Y-57253726D01*
X162613710Y-57047781D01*
X162671404Y-56832463D01*
X162700500Y-56611457D01*
X162700500Y-56388543D01*
X162671404Y-56167537D01*
X162613710Y-55952219D01*
X162613302Y-55951235D01*
X162528406Y-55746277D01*
X162528405Y-55746274D01*
X162416948Y-55553226D01*
X162332292Y-55442899D01*
X162305119Y-55407486D01*
X164824500Y-55407486D01*
X164824500Y-55592513D01*
X164853445Y-55775265D01*
X164910619Y-55951232D01*
X164910620Y-55951235D01*
X164969008Y-56065826D01*
X164994622Y-56116096D01*
X165103379Y-56265787D01*
X165234213Y-56396621D01*
X165383904Y-56505378D01*
X165464763Y-56546577D01*
X165548764Y-56589379D01*
X165548767Y-56589380D01*
X165616742Y-56611466D01*
X165724736Y-56646555D01*
X165907486Y-56675500D01*
X165907487Y-56675500D01*
X166092513Y-56675500D01*
X166092514Y-56675500D01*
X166275264Y-56646555D01*
X166451235Y-56589379D01*
X166616096Y-56505378D01*
X166765787Y-56396621D01*
X166896621Y-56265787D01*
X167005378Y-56116096D01*
X167089379Y-55951235D01*
X167146555Y-55775264D01*
X167175500Y-55592514D01*
X167175500Y-55407486D01*
X167146555Y-55224736D01*
X167106714Y-55102116D01*
X167089380Y-55048767D01*
X167089379Y-55048764D01*
X167017484Y-54907664D01*
X167005378Y-54883904D01*
X166921159Y-54767987D01*
X166897680Y-54702183D01*
X166913505Y-54634129D01*
X166947167Y-54595836D01*
X167032190Y-54532186D01*
X167118350Y-54417093D01*
X167118354Y-54417086D01*
X167168596Y-54282379D01*
X167168598Y-54282372D01*
X167174999Y-54222844D01*
X167175000Y-54222827D01*
X167175000Y-53750000D01*
X166315686Y-53750000D01*
X166320080Y-53745606D01*
X166372741Y-53654394D01*
X166400000Y-53552661D01*
X166400000Y-53447339D01*
X166372741Y-53345606D01*
X166320080Y-53254394D01*
X166315686Y-53250000D01*
X167175000Y-53250000D01*
X167175000Y-52777172D01*
X167174999Y-52777155D01*
X167168598Y-52717627D01*
X167168596Y-52717620D01*
X167118354Y-52582913D01*
X167118350Y-52582906D01*
X167032190Y-52467812D01*
X167032187Y-52467809D01*
X166917093Y-52381649D01*
X166917086Y-52381645D01*
X166782379Y-52331403D01*
X166782372Y-52331401D01*
X166722844Y-52325000D01*
X166250000Y-52325000D01*
X166250000Y-53184314D01*
X166245606Y-53179920D01*
X166154394Y-53127259D01*
X166052661Y-53100000D01*
X165947339Y-53100000D01*
X165845606Y-53127259D01*
X165754394Y-53179920D01*
X165750000Y-53184314D01*
X165750000Y-52325000D01*
X165277155Y-52325000D01*
X165217627Y-52331401D01*
X165217620Y-52331403D01*
X165082913Y-52381645D01*
X165082906Y-52381649D01*
X164967812Y-52467809D01*
X164967809Y-52467812D01*
X164881649Y-52582906D01*
X164881645Y-52582913D01*
X164831403Y-52717620D01*
X164831401Y-52717627D01*
X164825000Y-52777155D01*
X164825000Y-53250000D01*
X165684314Y-53250000D01*
X165679920Y-53254394D01*
X165627259Y-53345606D01*
X165600000Y-53447339D01*
X165600000Y-53552661D01*
X165627259Y-53654394D01*
X165679920Y-53745606D01*
X165684314Y-53750000D01*
X164825000Y-53750000D01*
X164825000Y-54222844D01*
X164831401Y-54282372D01*
X164831403Y-54282379D01*
X164881645Y-54417086D01*
X164881649Y-54417093D01*
X164967809Y-54532186D01*
X165052832Y-54595835D01*
X165094703Y-54651769D01*
X165099687Y-54721461D01*
X165078839Y-54767987D01*
X164994624Y-54883900D01*
X164910620Y-55048764D01*
X164910619Y-55048767D01*
X164853445Y-55224734D01*
X164824500Y-55407486D01*
X162305119Y-55407486D01*
X162281248Y-55376377D01*
X162281242Y-55376370D01*
X162123629Y-55218757D01*
X162123622Y-55218751D01*
X161946782Y-55083058D01*
X161946780Y-55083057D01*
X161946774Y-55083052D01*
X161753726Y-54971595D01*
X161753722Y-54971593D01*
X161547790Y-54886293D01*
X161547783Y-54886291D01*
X161547781Y-54886290D01*
X161332463Y-54828596D01*
X161332457Y-54828595D01*
X161332452Y-54828594D01*
X161111466Y-54799501D01*
X161111463Y-54799500D01*
X161111457Y-54799500D01*
X160888543Y-54799500D01*
X160888537Y-54799500D01*
X160888533Y-54799501D01*
X160667547Y-54828594D01*
X160667540Y-54828595D01*
X160667537Y-54828596D01*
X160452219Y-54886290D01*
X160452209Y-54886293D01*
X160246277Y-54971593D01*
X160246273Y-54971595D01*
X160053226Y-55083052D01*
X160053217Y-55083058D01*
X159876377Y-55218751D01*
X159876370Y-55218757D01*
X159718757Y-55376370D01*
X159718751Y-55376377D01*
X159583058Y-55553217D01*
X159583052Y-55553226D01*
X159471595Y-55746273D01*
X159471593Y-55746277D01*
X159386293Y-55952209D01*
X159386290Y-55952219D01*
X159328597Y-56167534D01*
X159328594Y-56167547D01*
X159299501Y-56388533D01*
X159299500Y-56388549D01*
X154757312Y-56388549D01*
X154836760Y-56279199D01*
X154922547Y-56110832D01*
X154980940Y-55931118D01*
X154988112Y-55885837D01*
X155010500Y-55744486D01*
X155010500Y-55555513D01*
X154980940Y-55368881D01*
X154922545Y-55189163D01*
X154851008Y-55048765D01*
X154836760Y-55020801D01*
X154725690Y-54867927D01*
X154592073Y-54734310D01*
X154439199Y-54623240D01*
X154410500Y-54608617D01*
X154270836Y-54537454D01*
X154091118Y-54479059D01*
X153904486Y-54449500D01*
X153904481Y-54449500D01*
X153715519Y-54449500D01*
X153715514Y-54449500D01*
X153528881Y-54479059D01*
X153349163Y-54537454D01*
X153180800Y-54623240D01*
X153135836Y-54655909D01*
X153027927Y-54734310D01*
X153027925Y-54734312D01*
X153027924Y-54734312D01*
X152894312Y-54867924D01*
X152894312Y-54867925D01*
X152894310Y-54867927D01*
X152865439Y-54907664D01*
X152783240Y-55020800D01*
X152697454Y-55189163D01*
X152657931Y-55310803D01*
X152618493Y-55368478D01*
X152554134Y-55395676D01*
X152485288Y-55383761D01*
X152433812Y-55336516D01*
X152422069Y-55310803D01*
X152382545Y-55189163D01*
X152311008Y-55048765D01*
X152296760Y-55020801D01*
X152185690Y-54867927D01*
X152052073Y-54734310D01*
X151899199Y-54623240D01*
X151870500Y-54608617D01*
X151730836Y-54537454D01*
X151551118Y-54479059D01*
X151364486Y-54449500D01*
X151364481Y-54449500D01*
X151175519Y-54449500D01*
X151175514Y-54449500D01*
X150988881Y-54479059D01*
X150809163Y-54537454D01*
X150640800Y-54623240D01*
X150595836Y-54655909D01*
X150487927Y-54734310D01*
X150487925Y-54734312D01*
X150487924Y-54734312D01*
X150354312Y-54867924D01*
X150354312Y-54867925D01*
X150354310Y-54867927D01*
X150325439Y-54907664D01*
X150243240Y-55020800D01*
X150157454Y-55189163D01*
X150117931Y-55310803D01*
X150078493Y-55368478D01*
X150014134Y-55395676D01*
X149945288Y-55383761D01*
X149893812Y-55336516D01*
X149882069Y-55310803D01*
X149842545Y-55189163D01*
X149771008Y-55048765D01*
X149756760Y-55020801D01*
X149645690Y-54867927D01*
X149512073Y-54734310D01*
X149404164Y-54655909D01*
X149381614Y-54639525D01*
X149338948Y-54584194D01*
X149330500Y-54539207D01*
X149330500Y-50308199D01*
X149350185Y-50241160D01*
X149385607Y-50205098D01*
X149510289Y-50121789D01*
X149621789Y-50010289D01*
X149709394Y-49879179D01*
X149769737Y-49733497D01*
X149800500Y-49578842D01*
X149800500Y-49421158D01*
X149800500Y-49421155D01*
X149800499Y-49421153D01*
X149769738Y-49266510D01*
X149769737Y-49266503D01*
X149727283Y-49164008D01*
X149709397Y-49120827D01*
X149709390Y-49120814D01*
X149621789Y-48989711D01*
X149621786Y-48989707D01*
X149510292Y-48878213D01*
X149510288Y-48878210D01*
X149379185Y-48790609D01*
X149379172Y-48790602D01*
X149233501Y-48730264D01*
X149233489Y-48730261D01*
X149078845Y-48699500D01*
X149078842Y-48699500D01*
X148921158Y-48699500D01*
X148921155Y-48699500D01*
X148766510Y-48730261D01*
X148766498Y-48730264D01*
X148620827Y-48790602D01*
X148620814Y-48790609D01*
X148489711Y-48878210D01*
X148489707Y-48878213D01*
X148378213Y-48989707D01*
X148378210Y-48989711D01*
X148290609Y-49120814D01*
X148290602Y-49120827D01*
X148230264Y-49266498D01*
X148230261Y-49266510D01*
X148199500Y-49421153D01*
X148199500Y-49454626D01*
X148182887Y-49516626D01*
X148170423Y-49538215D01*
X148129499Y-49690943D01*
X148129499Y-49690945D01*
X148129499Y-49859046D01*
X148129500Y-49859059D01*
X148129500Y-54539207D01*
X148109815Y-54606246D01*
X148078386Y-54639525D01*
X147947925Y-54734311D01*
X147814312Y-54867924D01*
X147814312Y-54867925D01*
X147814310Y-54867927D01*
X147785439Y-54907664D01*
X147703240Y-55020800D01*
X147617454Y-55189163D01*
X147577668Y-55311612D01*
X147538230Y-55369287D01*
X147473871Y-55396485D01*
X147405025Y-55384570D01*
X147353549Y-55337325D01*
X147341806Y-55311611D01*
X147302085Y-55189362D01*
X147216329Y-55021059D01*
X147197883Y-54995670D01*
X147197882Y-54995669D01*
X146672962Y-55520590D01*
X146655925Y-55457007D01*
X146590099Y-55342993D01*
X146497007Y-55249901D01*
X146382993Y-55184075D01*
X146319409Y-55167037D01*
X146844328Y-54642116D01*
X146818933Y-54623666D01*
X146650637Y-54537914D01*
X146471002Y-54479548D01*
X146284447Y-54450000D01*
X146095553Y-54450000D01*
X145908997Y-54479548D01*
X145729362Y-54537914D01*
X145561060Y-54623669D01*
X145535670Y-54642116D01*
X145535669Y-54642116D01*
X146060591Y-55167037D01*
X145997007Y-55184075D01*
X145882993Y-55249901D01*
X145789901Y-55342993D01*
X145724075Y-55457007D01*
X145707037Y-55520590D01*
X145182116Y-54995669D01*
X145182116Y-54995670D01*
X145163669Y-55021060D01*
X145077914Y-55189362D01*
X145019548Y-55368997D01*
X144990000Y-55555552D01*
X140418291Y-55555552D01*
X140416948Y-55553226D01*
X140332523Y-55443201D01*
X140281248Y-55376377D01*
X140281242Y-55376370D01*
X140123629Y-55218757D01*
X140123622Y-55218751D01*
X139946782Y-55083058D01*
X139946780Y-55083057D01*
X139946774Y-55083052D01*
X139753726Y-54971595D01*
X139753722Y-54971593D01*
X139547790Y-54886293D01*
X139547783Y-54886291D01*
X139547781Y-54886290D01*
X139332463Y-54828596D01*
X139332457Y-54828595D01*
X139332452Y-54828594D01*
X139208790Y-54812314D01*
X139111466Y-54799501D01*
X139111463Y-54799500D01*
X139111457Y-54799500D01*
X138888543Y-54799500D01*
X138888537Y-54799500D01*
X138888533Y-54799501D01*
X138667547Y-54828594D01*
X138667540Y-54828595D01*
X138667537Y-54828596D01*
X138452219Y-54886290D01*
X138452209Y-54886293D01*
X138246277Y-54971593D01*
X138246273Y-54971595D01*
X138053226Y-55083052D01*
X138053217Y-55083058D01*
X137876377Y-55218751D01*
X137876370Y-55218757D01*
X137718757Y-55376370D01*
X137718751Y-55376377D01*
X137583058Y-55553217D01*
X137583052Y-55553226D01*
X137471595Y-55746273D01*
X137471593Y-55746277D01*
X137386293Y-55952209D01*
X137386290Y-55952219D01*
X137328597Y-56167534D01*
X137328594Y-56167547D01*
X137299501Y-56388533D01*
X137299500Y-56388549D01*
X135558227Y-56388549D01*
X135571998Y-56346166D01*
X135581757Y-56316130D01*
X135581757Y-56316127D01*
X135615000Y-56106246D01*
X135615000Y-55893753D01*
X135581757Y-55683872D01*
X135581757Y-55683869D01*
X135516095Y-55481782D01*
X135419624Y-55292449D01*
X135380270Y-55238282D01*
X135380269Y-55238282D01*
X134747962Y-55870590D01*
X134730925Y-55807007D01*
X134665099Y-55692993D01*
X134572007Y-55599901D01*
X134457993Y-55534075D01*
X134394409Y-55517037D01*
X135026716Y-54884728D01*
X134972550Y-54845375D01*
X134783217Y-54748904D01*
X134581129Y-54683242D01*
X134371246Y-54650000D01*
X134158754Y-54650000D01*
X133948872Y-54683242D01*
X133948869Y-54683242D01*
X133746782Y-54748904D01*
X133557439Y-54845380D01*
X133503282Y-54884727D01*
X133503282Y-54884728D01*
X134135591Y-55517037D01*
X134072007Y-55534075D01*
X133957993Y-55599901D01*
X133864901Y-55692993D01*
X133799075Y-55807007D01*
X133782037Y-55870591D01*
X133111818Y-55200372D01*
X133078333Y-55139049D01*
X133078330Y-55139036D01*
X133075499Y-55126015D01*
X133075499Y-55102128D01*
X133069091Y-55042517D01*
X133040926Y-54967002D01*
X133018798Y-54907673D01*
X133018793Y-54907664D01*
X132932547Y-54792455D01*
X132932544Y-54792452D01*
X132817335Y-54706206D01*
X132817328Y-54706202D01*
X132682482Y-54655908D01*
X132682483Y-54655908D01*
X132622883Y-54649501D01*
X132622881Y-54649500D01*
X132622873Y-54649500D01*
X132622864Y-54649500D01*
X130827129Y-54649500D01*
X130827123Y-54649501D01*
X130767516Y-54655908D01*
X130632671Y-54706202D01*
X130632664Y-54706206D01*
X130517455Y-54792452D01*
X130517452Y-54792455D01*
X130431206Y-54907664D01*
X130431202Y-54907671D01*
X130380908Y-55042517D01*
X130374501Y-55102116D01*
X130374500Y-55102135D01*
X124000500Y-55102135D01*
X124000500Y-52057648D01*
X125699500Y-52057648D01*
X125699500Y-52262351D01*
X125731522Y-52464534D01*
X125794781Y-52659223D01*
X125887715Y-52841613D01*
X126008028Y-53007213D01*
X126152786Y-53151971D01*
X126287714Y-53250000D01*
X126318390Y-53272287D01*
X126434607Y-53331503D01*
X126500776Y-53365218D01*
X126500778Y-53365218D01*
X126500781Y-53365220D01*
X126605137Y-53399127D01*
X126695465Y-53428477D01*
X126796557Y-53444488D01*
X126897648Y-53460500D01*
X126897649Y-53460500D01*
X127102351Y-53460500D01*
X127102352Y-53460500D01*
X127304534Y-53428477D01*
X127499219Y-53365220D01*
X127681610Y-53272287D01*
X127774590Y-53204732D01*
X127847213Y-53151971D01*
X127847215Y-53151968D01*
X127847219Y-53151966D01*
X127991966Y-53007219D01*
X127991968Y-53007215D01*
X127991971Y-53007213D01*
X128044732Y-52934590D01*
X128112287Y-52841610D01*
X128205220Y-52659219D01*
X128268477Y-52464534D01*
X128300500Y-52262352D01*
X128300500Y-52057648D01*
X130199500Y-52057648D01*
X130199500Y-52262351D01*
X130231522Y-52464534D01*
X130294781Y-52659223D01*
X130387715Y-52841613D01*
X130508028Y-53007213D01*
X130652786Y-53151971D01*
X130787714Y-53250000D01*
X130818390Y-53272287D01*
X130934607Y-53331503D01*
X131000776Y-53365218D01*
X131000778Y-53365218D01*
X131000781Y-53365220D01*
X131105137Y-53399127D01*
X131195465Y-53428477D01*
X131296557Y-53444488D01*
X131397648Y-53460500D01*
X131397649Y-53460500D01*
X131602351Y-53460500D01*
X131602352Y-53460500D01*
X131804534Y-53428477D01*
X131999219Y-53365220D01*
X132181610Y-53272287D01*
X132274590Y-53204732D01*
X132347213Y-53151971D01*
X132347215Y-53151968D01*
X132347219Y-53151966D01*
X132491966Y-53007219D01*
X132491968Y-53007215D01*
X132491971Y-53007213D01*
X132544732Y-52934590D01*
X132612287Y-52841610D01*
X132705220Y-52659219D01*
X132768477Y-52464534D01*
X132800500Y-52262352D01*
X132800500Y-52057648D01*
X134699500Y-52057648D01*
X134699500Y-52262351D01*
X134731522Y-52464534D01*
X134794781Y-52659223D01*
X134887715Y-52841613D01*
X135008028Y-53007213D01*
X135152786Y-53151971D01*
X135287714Y-53250000D01*
X135318390Y-53272287D01*
X135434607Y-53331503D01*
X135500776Y-53365218D01*
X135500778Y-53365218D01*
X135500781Y-53365220D01*
X135605137Y-53399127D01*
X135695465Y-53428477D01*
X135796557Y-53444488D01*
X135897648Y-53460500D01*
X135897649Y-53460500D01*
X136102351Y-53460500D01*
X136102352Y-53460500D01*
X136304534Y-53428477D01*
X136499219Y-53365220D01*
X136681610Y-53272287D01*
X136774590Y-53204732D01*
X136847213Y-53151971D01*
X136847215Y-53151968D01*
X136847219Y-53151966D01*
X136991966Y-53007219D01*
X136991968Y-53007215D01*
X136991971Y-53007213D01*
X137044732Y-52934590D01*
X137112287Y-52841610D01*
X137205220Y-52659219D01*
X137268477Y-52464534D01*
X137300500Y-52262352D01*
X137300500Y-52057648D01*
X137268477Y-51855466D01*
X137205220Y-51660781D01*
X137205218Y-51660778D01*
X137205218Y-51660776D01*
X137171503Y-51594607D01*
X137112287Y-51478390D01*
X137104556Y-51467749D01*
X136991971Y-51312786D01*
X136847213Y-51168028D01*
X136681613Y-51047715D01*
X136681612Y-51047714D01*
X136681610Y-51047713D01*
X136624653Y-51018691D01*
X136499223Y-50954781D01*
X136304534Y-50891522D01*
X136129995Y-50863878D01*
X136102352Y-50859500D01*
X135897648Y-50859500D01*
X135873329Y-50863351D01*
X135695465Y-50891522D01*
X135500776Y-50954781D01*
X135318386Y-51047715D01*
X135152786Y-51168028D01*
X135008028Y-51312786D01*
X134887715Y-51478386D01*
X134794781Y-51660776D01*
X134731522Y-51855465D01*
X134699500Y-52057648D01*
X132800500Y-52057648D01*
X132768477Y-51855466D01*
X132705220Y-51660781D01*
X132705218Y-51660778D01*
X132705218Y-51660776D01*
X132671503Y-51594607D01*
X132612287Y-51478390D01*
X132604556Y-51467749D01*
X132491971Y-51312786D01*
X132347213Y-51168028D01*
X132181613Y-51047715D01*
X132181612Y-51047714D01*
X132181610Y-51047713D01*
X132124653Y-51018691D01*
X131999223Y-50954781D01*
X131804534Y-50891522D01*
X131629995Y-50863878D01*
X131602352Y-50859500D01*
X131397648Y-50859500D01*
X131373329Y-50863351D01*
X131195465Y-50891522D01*
X131000776Y-50954781D01*
X130818386Y-51047715D01*
X130652786Y-51168028D01*
X130508028Y-51312786D01*
X130387715Y-51478386D01*
X130294781Y-51660776D01*
X130231522Y-51855465D01*
X130199500Y-52057648D01*
X128300500Y-52057648D01*
X128268477Y-51855466D01*
X128205220Y-51660781D01*
X128205218Y-51660778D01*
X128205218Y-51660776D01*
X128171503Y-51594607D01*
X128112287Y-51478390D01*
X128104556Y-51467749D01*
X127991971Y-51312786D01*
X127847213Y-51168028D01*
X127681613Y-51047715D01*
X127681612Y-51047714D01*
X127681610Y-51047713D01*
X127624653Y-51018691D01*
X127499223Y-50954781D01*
X127304534Y-50891522D01*
X127129995Y-50863878D01*
X127102352Y-50859500D01*
X126897648Y-50859500D01*
X126873329Y-50863351D01*
X126695465Y-50891522D01*
X126500776Y-50954781D01*
X126318386Y-51047715D01*
X126152786Y-51168028D01*
X126008028Y-51312786D01*
X125887715Y-51478386D01*
X125794781Y-51660776D01*
X125731522Y-51855465D01*
X125699500Y-52057648D01*
X124000500Y-52057648D01*
X124000500Y-41897648D01*
X125699500Y-41897648D01*
X125699500Y-42102351D01*
X125731522Y-42304534D01*
X125794781Y-42499223D01*
X125887715Y-42681613D01*
X126008028Y-42847213D01*
X126152786Y-42991971D01*
X126298051Y-43097510D01*
X126318390Y-43112287D01*
X126434607Y-43171503D01*
X126500776Y-43205218D01*
X126500778Y-43205218D01*
X126500781Y-43205220D01*
X126605137Y-43239127D01*
X126695465Y-43268477D01*
X126730822Y-43274077D01*
X126897648Y-43300500D01*
X126897649Y-43300500D01*
X127102351Y-43300500D01*
X127102352Y-43300500D01*
X127304534Y-43268477D01*
X127499219Y-43205220D01*
X127681610Y-43112287D01*
X127774590Y-43044732D01*
X127847213Y-42991971D01*
X127847215Y-42991968D01*
X127847219Y-42991966D01*
X127991966Y-42847219D01*
X127991968Y-42847215D01*
X127991971Y-42847213D01*
X128075670Y-42732009D01*
X128112287Y-42681610D01*
X128205220Y-42499219D01*
X128268477Y-42304534D01*
X128300500Y-42102352D01*
X128300500Y-41897648D01*
X130199500Y-41897648D01*
X130199500Y-42102351D01*
X130231522Y-42304534D01*
X130294781Y-42499223D01*
X130387715Y-42681613D01*
X130508028Y-42847213D01*
X130652786Y-42991971D01*
X130798051Y-43097510D01*
X130818390Y-43112287D01*
X130934607Y-43171503D01*
X131000776Y-43205218D01*
X131000778Y-43205218D01*
X131000781Y-43205220D01*
X131105137Y-43239127D01*
X131195465Y-43268477D01*
X131230822Y-43274077D01*
X131397648Y-43300500D01*
X131397649Y-43300500D01*
X131602351Y-43300500D01*
X131602352Y-43300500D01*
X131804534Y-43268477D01*
X131999219Y-43205220D01*
X132181610Y-43112287D01*
X132274590Y-43044732D01*
X132347213Y-42991971D01*
X132347215Y-42991968D01*
X132347219Y-42991966D01*
X132491966Y-42847219D01*
X132491968Y-42847215D01*
X132491971Y-42847213D01*
X132575670Y-42732009D01*
X132612287Y-42681610D01*
X132705220Y-42499219D01*
X132768477Y-42304534D01*
X132800500Y-42102352D01*
X132800500Y-41897648D01*
X134699500Y-41897648D01*
X134699500Y-42102351D01*
X134731522Y-42304534D01*
X134794781Y-42499223D01*
X134887715Y-42681613D01*
X135008028Y-42847213D01*
X135152786Y-42991971D01*
X135298051Y-43097510D01*
X135318390Y-43112287D01*
X135434607Y-43171503D01*
X135500776Y-43205218D01*
X135500778Y-43205218D01*
X135500781Y-43205220D01*
X135605137Y-43239127D01*
X135695465Y-43268477D01*
X135730822Y-43274077D01*
X135897648Y-43300500D01*
X135897649Y-43300500D01*
X136102351Y-43300500D01*
X136102352Y-43300500D01*
X136304534Y-43268477D01*
X136499219Y-43205220D01*
X136681610Y-43112287D01*
X136774590Y-43044732D01*
X136847213Y-42991971D01*
X136847215Y-42991968D01*
X136847219Y-42991966D01*
X136991966Y-42847219D01*
X136991968Y-42847215D01*
X136991971Y-42847213D01*
X137075670Y-42732009D01*
X137112287Y-42681610D01*
X137205220Y-42499219D01*
X137268477Y-42304534D01*
X137300500Y-42102352D01*
X137300500Y-41897648D01*
X137268477Y-41695466D01*
X137205220Y-41500781D01*
X137205218Y-41500778D01*
X137205218Y-41500776D01*
X137171503Y-41434607D01*
X137112287Y-41318390D01*
X137104556Y-41307749D01*
X136991971Y-41152786D01*
X136847213Y-41008028D01*
X136681613Y-40887715D01*
X136681612Y-40887714D01*
X136681610Y-40887713D01*
X136607594Y-40850000D01*
X136499223Y-40794781D01*
X136304534Y-40731522D01*
X136129995Y-40703878D01*
X136102352Y-40699500D01*
X135897648Y-40699500D01*
X135873329Y-40703351D01*
X135695465Y-40731522D01*
X135500776Y-40794781D01*
X135318386Y-40887715D01*
X135152786Y-41008028D01*
X135008028Y-41152786D01*
X134887715Y-41318386D01*
X134794781Y-41500776D01*
X134731522Y-41695465D01*
X134699500Y-41897648D01*
X132800500Y-41897648D01*
X132768477Y-41695466D01*
X132705220Y-41500781D01*
X132705218Y-41500778D01*
X132705218Y-41500776D01*
X132671503Y-41434607D01*
X132612287Y-41318390D01*
X132604556Y-41307749D01*
X132491971Y-41152786D01*
X132347213Y-41008028D01*
X132181613Y-40887715D01*
X132181612Y-40887714D01*
X132181610Y-40887713D01*
X132107594Y-40850000D01*
X131999223Y-40794781D01*
X131804534Y-40731522D01*
X131629995Y-40703878D01*
X131602352Y-40699500D01*
X131397648Y-40699500D01*
X131373329Y-40703351D01*
X131195465Y-40731522D01*
X131000776Y-40794781D01*
X130818386Y-40887715D01*
X130652786Y-41008028D01*
X130508028Y-41152786D01*
X130387715Y-41318386D01*
X130294781Y-41500776D01*
X130231522Y-41695465D01*
X130199500Y-41897648D01*
X128300500Y-41897648D01*
X128268477Y-41695466D01*
X128205220Y-41500781D01*
X128205218Y-41500778D01*
X128205218Y-41500776D01*
X128171503Y-41434607D01*
X128112287Y-41318390D01*
X128104556Y-41307749D01*
X127991971Y-41152786D01*
X127847213Y-41008028D01*
X127681613Y-40887715D01*
X127681612Y-40887714D01*
X127681610Y-40887713D01*
X127607594Y-40850000D01*
X127499223Y-40794781D01*
X127304534Y-40731522D01*
X127129995Y-40703878D01*
X127102352Y-40699500D01*
X126897648Y-40699500D01*
X126873329Y-40703351D01*
X126695465Y-40731522D01*
X126500776Y-40794781D01*
X126318386Y-40887715D01*
X126152786Y-41008028D01*
X126008028Y-41152786D01*
X125887715Y-41318386D01*
X125794781Y-41500776D01*
X125731522Y-41695465D01*
X125699500Y-41897648D01*
X124000500Y-41897648D01*
X124000500Y-36502706D01*
X124000618Y-36497297D01*
X124003377Y-36434108D01*
X124017387Y-36113224D01*
X124018325Y-36102496D01*
X124068151Y-35724032D01*
X124070024Y-35713402D01*
X124152648Y-35340714D01*
X124155446Y-35330276D01*
X124235620Y-35075996D01*
X124270230Y-34966227D01*
X124273917Y-34956095D01*
X124420003Y-34603412D01*
X124424561Y-34593638D01*
X124534784Y-34381902D01*
X140759500Y-34381902D01*
X140759500Y-34618097D01*
X140796446Y-34851368D01*
X140869433Y-35075996D01*
X140976657Y-35286433D01*
X141115483Y-35477510D01*
X141282490Y-35644517D01*
X141317127Y-35669683D01*
X141359792Y-35725013D01*
X141365771Y-35794626D01*
X141333165Y-35856421D01*
X141317130Y-35870315D01*
X141299365Y-35883222D01*
X141282488Y-35895484D01*
X141115485Y-36062487D01*
X141115485Y-36062488D01*
X141115483Y-36062490D01*
X141082532Y-36107843D01*
X140976657Y-36253566D01*
X140869433Y-36464003D01*
X140796446Y-36688631D01*
X140759500Y-36921902D01*
X140759500Y-37158097D01*
X140796446Y-37391368D01*
X140869433Y-37615996D01*
X140976519Y-37826163D01*
X140976657Y-37826433D01*
X141115483Y-38017510D01*
X141282490Y-38184517D01*
X141317127Y-38209683D01*
X141359792Y-38265013D01*
X141365771Y-38334626D01*
X141333165Y-38396421D01*
X141317130Y-38410315D01*
X141299365Y-38423222D01*
X141282488Y-38435484D01*
X141115485Y-38602487D01*
X141115485Y-38602488D01*
X141115483Y-38602490D01*
X141055862Y-38684550D01*
X140976657Y-38793566D01*
X140869433Y-39004003D01*
X140796446Y-39228631D01*
X140759500Y-39461902D01*
X140759500Y-39698097D01*
X140796446Y-39931368D01*
X140869433Y-40155996D01*
X140976657Y-40366433D01*
X141115483Y-40557510D01*
X141282490Y-40724517D01*
X141317127Y-40749683D01*
X141359792Y-40805013D01*
X141365771Y-40874626D01*
X141333165Y-40936421D01*
X141317130Y-40950315D01*
X141299365Y-40963222D01*
X141282488Y-40975484D01*
X141115485Y-41142487D01*
X141115485Y-41142488D01*
X141115483Y-41142490D01*
X141055862Y-41224550D01*
X140976657Y-41333566D01*
X140869433Y-41544003D01*
X140796446Y-41768631D01*
X140759500Y-42001902D01*
X140759500Y-42238097D01*
X140796446Y-42471368D01*
X140869433Y-42695996D01*
X140920003Y-42795244D01*
X140976657Y-42906433D01*
X141115483Y-43097510D01*
X141282490Y-43264517D01*
X141317127Y-43289683D01*
X141359792Y-43345013D01*
X141365771Y-43414626D01*
X141333165Y-43476421D01*
X141317130Y-43490315D01*
X141302468Y-43500968D01*
X141282488Y-43515484D01*
X141115485Y-43682487D01*
X141115485Y-43682488D01*
X141115483Y-43682490D01*
X141063242Y-43754394D01*
X140976657Y-43873566D01*
X140869433Y-44084003D01*
X140796446Y-44308631D01*
X140759500Y-44541902D01*
X140759500Y-44778097D01*
X140796446Y-45011368D01*
X140869433Y-45235996D01*
X140976657Y-45446433D01*
X141115483Y-45637510D01*
X141282490Y-45804517D01*
X141317127Y-45829683D01*
X141359792Y-45885013D01*
X141365771Y-45954626D01*
X141333165Y-46016421D01*
X141317130Y-46030315D01*
X141299365Y-46043222D01*
X141282488Y-46055484D01*
X141115485Y-46222487D01*
X141115485Y-46222488D01*
X141115483Y-46222490D01*
X141084462Y-46265187D01*
X140976657Y-46413566D01*
X140869433Y-46624003D01*
X140796446Y-46848631D01*
X140759500Y-47081902D01*
X140759500Y-47318097D01*
X140796446Y-47551368D01*
X140869433Y-47775996D01*
X140976657Y-47986433D01*
X141115483Y-48177510D01*
X141282490Y-48344517D01*
X141317127Y-48369683D01*
X141359792Y-48425013D01*
X141365771Y-48494626D01*
X141333165Y-48556421D01*
X141317130Y-48570315D01*
X141299365Y-48583222D01*
X141282488Y-48595484D01*
X141115485Y-48762487D01*
X141115485Y-48762488D01*
X141115483Y-48762490D01*
X141087868Y-48800499D01*
X140976657Y-48953566D01*
X140869433Y-49164003D01*
X140796446Y-49388631D01*
X140759500Y-49621902D01*
X140759500Y-49858097D01*
X140796446Y-50091368D01*
X140869433Y-50315996D01*
X140976657Y-50526433D01*
X141115483Y-50717510D01*
X141282490Y-50884517D01*
X141473567Y-51023343D01*
X141521396Y-51047713D01*
X141684003Y-51130566D01*
X141684005Y-51130566D01*
X141684008Y-51130568D01*
X141799298Y-51168028D01*
X141908631Y-51203553D01*
X142141903Y-51240500D01*
X142141908Y-51240500D01*
X142378097Y-51240500D01*
X142611368Y-51203553D01*
X142835992Y-51130568D01*
X143046433Y-51023343D01*
X143237510Y-50884517D01*
X143404517Y-50717510D01*
X143543343Y-50526433D01*
X143650568Y-50315992D01*
X143723553Y-50091368D01*
X143736395Y-50010288D01*
X143760500Y-49858097D01*
X143760500Y-49621902D01*
X143723553Y-49388631D01*
X143650566Y-49164003D01*
X143543342Y-48953566D01*
X143404517Y-48762490D01*
X143237510Y-48595483D01*
X143202872Y-48570317D01*
X143160207Y-48514989D01*
X143154228Y-48445375D01*
X143186833Y-48383580D01*
X143202873Y-48369682D01*
X143237510Y-48344517D01*
X143404517Y-48177510D01*
X143543343Y-47986433D01*
X143650568Y-47775992D01*
X143723553Y-47551368D01*
X143760500Y-47318097D01*
X143760500Y-47081902D01*
X143723553Y-46848631D01*
X143650566Y-46624003D01*
X143543342Y-46413566D01*
X143404517Y-46222490D01*
X143237510Y-46055483D01*
X143202872Y-46030317D01*
X143160207Y-45974989D01*
X143154228Y-45905375D01*
X143186833Y-45843580D01*
X143202873Y-45829682D01*
X143237510Y-45804517D01*
X143404517Y-45637510D01*
X143543343Y-45446433D01*
X143650568Y-45235992D01*
X143723553Y-45011368D01*
X143723553Y-45011365D01*
X143760500Y-44778097D01*
X143760500Y-44541902D01*
X143723553Y-44308631D01*
X143650566Y-44084003D01*
X143594002Y-43972991D01*
X143543343Y-43873567D01*
X143404517Y-43682490D01*
X143237510Y-43515483D01*
X143202872Y-43490317D01*
X143160207Y-43434989D01*
X143154228Y-43365375D01*
X143186833Y-43303580D01*
X143202873Y-43289682D01*
X143237510Y-43264517D01*
X143404517Y-43097510D01*
X143543343Y-42906433D01*
X143650568Y-42695992D01*
X143723553Y-42471368D01*
X143749977Y-42304534D01*
X143760500Y-42238097D01*
X143760500Y-42001902D01*
X143723553Y-41768631D01*
X143650566Y-41544003D01*
X143543342Y-41333566D01*
X143532313Y-41318386D01*
X143404517Y-41142490D01*
X143237510Y-40975483D01*
X143202872Y-40950317D01*
X143160207Y-40894989D01*
X143154228Y-40825375D01*
X143186833Y-40763580D01*
X143202873Y-40749682D01*
X143237510Y-40724517D01*
X143404517Y-40557510D01*
X143543343Y-40366433D01*
X143650568Y-40155992D01*
X143723553Y-39931368D01*
X143760500Y-39698097D01*
X143760500Y-39461902D01*
X143723553Y-39228631D01*
X143650566Y-39004003D01*
X143543342Y-38793566D01*
X143404517Y-38602490D01*
X143237510Y-38435483D01*
X143202872Y-38410317D01*
X143160207Y-38354989D01*
X143154228Y-38285375D01*
X143186833Y-38223580D01*
X143202873Y-38209682D01*
X143237510Y-38184517D01*
X143404517Y-38017510D01*
X143543343Y-37826433D01*
X143650568Y-37615992D01*
X143723553Y-37391368D01*
X143748637Y-37232993D01*
X143760500Y-37158097D01*
X143760500Y-36921902D01*
X143723553Y-36688631D01*
X143663142Y-36502706D01*
X143650568Y-36464008D01*
X143650566Y-36464005D01*
X143650566Y-36464003D01*
X143594002Y-36352991D01*
X143543343Y-36253567D01*
X143404517Y-36062490D01*
X143237510Y-35895483D01*
X143202872Y-35870317D01*
X143160207Y-35814989D01*
X143154228Y-35745375D01*
X143186833Y-35683580D01*
X143202873Y-35669682D01*
X143237510Y-35644517D01*
X143404517Y-35477510D01*
X143543343Y-35286433D01*
X143650568Y-35075992D01*
X143723553Y-34851368D01*
X143760500Y-34618097D01*
X143760500Y-34381902D01*
X155999500Y-34381902D01*
X155999500Y-34618097D01*
X156036446Y-34851368D01*
X156109433Y-35075996D01*
X156216657Y-35286433D01*
X156355483Y-35477510D01*
X156522490Y-35644517D01*
X156581716Y-35687547D01*
X156624381Y-35742875D01*
X156632448Y-35797593D01*
X156630893Y-35817340D01*
X157370591Y-36557037D01*
X157307007Y-36574075D01*
X157192993Y-36639901D01*
X157099901Y-36732993D01*
X157034075Y-36847007D01*
X157017037Y-36910591D01*
X156277340Y-36170894D01*
X156217084Y-36253830D01*
X156109897Y-36464197D01*
X156036934Y-36688752D01*
X156000000Y-36921947D01*
X156000000Y-37158052D01*
X156036934Y-37391247D01*
X156109897Y-37615802D01*
X156217087Y-37826174D01*
X156277338Y-37909104D01*
X156277340Y-37909105D01*
X157017037Y-37169408D01*
X157034075Y-37232993D01*
X157099901Y-37347007D01*
X157192993Y-37440099D01*
X157307007Y-37505925D01*
X157370590Y-37522962D01*
X156630893Y-38262658D01*
X156632448Y-38282405D01*
X156618084Y-38350783D01*
X156581717Y-38392451D01*
X156522490Y-38435482D01*
X156355485Y-38602487D01*
X156355485Y-38602488D01*
X156355483Y-38602490D01*
X156295862Y-38684550D01*
X156216657Y-38793566D01*
X156109433Y-39004003D01*
X156036446Y-39228631D01*
X155999500Y-39461902D01*
X155999500Y-39698097D01*
X156036446Y-39931368D01*
X156109433Y-40155996D01*
X156216657Y-40366433D01*
X156355483Y-40557510D01*
X156522490Y-40724517D01*
X156557127Y-40749683D01*
X156599792Y-40805013D01*
X156605771Y-40874626D01*
X156573165Y-40936421D01*
X156557130Y-40950315D01*
X156539365Y-40963222D01*
X156522488Y-40975484D01*
X156355485Y-41142487D01*
X156355485Y-41142488D01*
X156355483Y-41142490D01*
X156295862Y-41224550D01*
X156216657Y-41333566D01*
X156109433Y-41544003D01*
X156036446Y-41768631D01*
X155999500Y-42001902D01*
X155999500Y-42238097D01*
X156036446Y-42471368D01*
X156109433Y-42695996D01*
X156160003Y-42795244D01*
X156216657Y-42906433D01*
X156355483Y-43097510D01*
X156522490Y-43264517D01*
X156557127Y-43289683D01*
X156599792Y-43345013D01*
X156605771Y-43414626D01*
X156573165Y-43476421D01*
X156557130Y-43490315D01*
X156542468Y-43500968D01*
X156522488Y-43515484D01*
X156355485Y-43682487D01*
X156355485Y-43682488D01*
X156355483Y-43682490D01*
X156303242Y-43754394D01*
X156216657Y-43873566D01*
X156109433Y-44084003D01*
X156036446Y-44308631D01*
X155999500Y-44541902D01*
X155999500Y-44778097D01*
X156036446Y-45011368D01*
X156109433Y-45235996D01*
X156216657Y-45446433D01*
X156355483Y-45637510D01*
X156522490Y-45804517D01*
X156557127Y-45829683D01*
X156599792Y-45885013D01*
X156605771Y-45954626D01*
X156573165Y-46016421D01*
X156557130Y-46030315D01*
X156539365Y-46043222D01*
X156522488Y-46055484D01*
X156355485Y-46222487D01*
X156355485Y-46222488D01*
X156355483Y-46222490D01*
X156324462Y-46265187D01*
X156216657Y-46413566D01*
X156109433Y-46624003D01*
X156036446Y-46848631D01*
X155999500Y-47081902D01*
X155999500Y-47318097D01*
X156036446Y-47551368D01*
X156109433Y-47775996D01*
X156216657Y-47986433D01*
X156355483Y-48177510D01*
X156522490Y-48344517D01*
X156557127Y-48369683D01*
X156599792Y-48425013D01*
X156605771Y-48494626D01*
X156573165Y-48556421D01*
X156557130Y-48570315D01*
X156539365Y-48583222D01*
X156522488Y-48595484D01*
X156355485Y-48762487D01*
X156355485Y-48762488D01*
X156355483Y-48762490D01*
X156327868Y-48800499D01*
X156216657Y-48953566D01*
X156109433Y-49164003D01*
X156036446Y-49388631D01*
X155999500Y-49621902D01*
X155999500Y-49858097D01*
X156036446Y-50091368D01*
X156109433Y-50315996D01*
X156216657Y-50526433D01*
X156355483Y-50717510D01*
X156522490Y-50884517D01*
X156713567Y-51023343D01*
X156761396Y-51047713D01*
X156924003Y-51130566D01*
X156924005Y-51130566D01*
X156924008Y-51130568D01*
X157039298Y-51168028D01*
X157148631Y-51203553D01*
X157381903Y-51240500D01*
X157381908Y-51240500D01*
X157618097Y-51240500D01*
X157851368Y-51203553D01*
X158075992Y-51130568D01*
X158286433Y-51023343D01*
X158477510Y-50884517D01*
X158644517Y-50717510D01*
X158783343Y-50526433D01*
X158890568Y-50315992D01*
X158963553Y-50091368D01*
X158976395Y-50010288D01*
X159000500Y-49858097D01*
X159000500Y-49621902D01*
X158963553Y-49388631D01*
X158890566Y-49164003D01*
X158783342Y-48953566D01*
X158644517Y-48762490D01*
X158477510Y-48595483D01*
X158442872Y-48570317D01*
X158400207Y-48514989D01*
X158394228Y-48445375D01*
X158426833Y-48383580D01*
X158442873Y-48369682D01*
X158477510Y-48344517D01*
X158644517Y-48177510D01*
X158783343Y-47986433D01*
X158890568Y-47775992D01*
X158963553Y-47551368D01*
X159000500Y-47318097D01*
X159000500Y-47081902D01*
X158974260Y-46916232D01*
X158971686Y-46899983D01*
X168199500Y-46899983D01*
X168199500Y-48100001D01*
X168199501Y-48100018D01*
X168210000Y-48202796D01*
X168210001Y-48202799D01*
X168265185Y-48369331D01*
X168265187Y-48369336D01*
X168273973Y-48383580D01*
X168357288Y-48518656D01*
X168481344Y-48642712D01*
X168630666Y-48734814D01*
X168797203Y-48789999D01*
X168899991Y-48800500D01*
X170100008Y-48800499D01*
X170202797Y-48789999D01*
X170369334Y-48734814D01*
X170518656Y-48642712D01*
X170642712Y-48518656D01*
X170734814Y-48369334D01*
X170789999Y-48202797D01*
X170800500Y-48100009D01*
X170800499Y-46899992D01*
X170789999Y-46797203D01*
X170734814Y-46630666D01*
X170642712Y-46481344D01*
X170518656Y-46357288D01*
X170369334Y-46265186D01*
X170202797Y-46210001D01*
X170202795Y-46210000D01*
X170100010Y-46199500D01*
X168899998Y-46199500D01*
X168899981Y-46199501D01*
X168797203Y-46210000D01*
X168797200Y-46210001D01*
X168630668Y-46265185D01*
X168630663Y-46265187D01*
X168481342Y-46357289D01*
X168357289Y-46481342D01*
X168265187Y-46630663D01*
X168265186Y-46630666D01*
X168210001Y-46797203D01*
X168210001Y-46797204D01*
X168210000Y-46797204D01*
X168199500Y-46899983D01*
X158971686Y-46899983D01*
X158963553Y-46848631D01*
X158890566Y-46624003D01*
X158783342Y-46413566D01*
X158644517Y-46222490D01*
X158477510Y-46055483D01*
X158442872Y-46030317D01*
X158400207Y-45974989D01*
X158394228Y-45905375D01*
X158426833Y-45843580D01*
X158442873Y-45829682D01*
X158477510Y-45804517D01*
X158644517Y-45637510D01*
X158783343Y-45446433D01*
X158890568Y-45235992D01*
X158963553Y-45011368D01*
X158977408Y-44923889D01*
X159000500Y-44778097D01*
X159000500Y-44541902D01*
X158963553Y-44308631D01*
X158949605Y-44265705D01*
X158890568Y-44084008D01*
X158821835Y-43949111D01*
X158821834Y-43949107D01*
X158795631Y-43897682D01*
X168200000Y-43897682D01*
X168200000Y-44102317D01*
X168232009Y-44304417D01*
X168295244Y-44499031D01*
X168388141Y-44681350D01*
X168388147Y-44681359D01*
X168420523Y-44725921D01*
X168420524Y-44725922D01*
X169100000Y-44046446D01*
X169100000Y-44052661D01*
X169127259Y-44154394D01*
X169179920Y-44245606D01*
X169254394Y-44320080D01*
X169345606Y-44372741D01*
X169447339Y-44400000D01*
X169453553Y-44400000D01*
X168774076Y-45079474D01*
X168818650Y-45111859D01*
X169000968Y-45204755D01*
X169195582Y-45267990D01*
X169397683Y-45300000D01*
X169602317Y-45300000D01*
X169804417Y-45267990D01*
X169999031Y-45204755D01*
X170181349Y-45111859D01*
X170225921Y-45079474D01*
X169546447Y-44400000D01*
X169552661Y-44400000D01*
X169654394Y-44372741D01*
X169745606Y-44320080D01*
X169820080Y-44245606D01*
X169872741Y-44154394D01*
X169900000Y-44052661D01*
X169900000Y-44046448D01*
X170579474Y-44725922D01*
X170579474Y-44725921D01*
X170611859Y-44681349D01*
X170704755Y-44499031D01*
X170767990Y-44304417D01*
X170800000Y-44102317D01*
X170800000Y-43897682D01*
X170767990Y-43695582D01*
X170704755Y-43500968D01*
X170611859Y-43318650D01*
X170579474Y-43274077D01*
X170579474Y-43274076D01*
X169900000Y-43953551D01*
X169900000Y-43947339D01*
X169872741Y-43845606D01*
X169820080Y-43754394D01*
X169745606Y-43679920D01*
X169654394Y-43627259D01*
X169552661Y-43600000D01*
X169546446Y-43600000D01*
X170225922Y-42920524D01*
X170225921Y-42920523D01*
X170181359Y-42888147D01*
X170181350Y-42888141D01*
X169999031Y-42795244D01*
X169804417Y-42732009D01*
X169602317Y-42700000D01*
X169397683Y-42700000D01*
X169195582Y-42732009D01*
X169000968Y-42795244D01*
X168818644Y-42888143D01*
X168774077Y-42920523D01*
X168774077Y-42920524D01*
X169453554Y-43600000D01*
X169447339Y-43600000D01*
X169345606Y-43627259D01*
X169254394Y-43679920D01*
X169179920Y-43754394D01*
X169127259Y-43845606D01*
X169100000Y-43947339D01*
X169100000Y-43953553D01*
X168420524Y-43274077D01*
X168420523Y-43274077D01*
X168388143Y-43318644D01*
X168295244Y-43500968D01*
X168232009Y-43695582D01*
X168200000Y-43897682D01*
X158795631Y-43897682D01*
X158783346Y-43873571D01*
X158696758Y-43754394D01*
X158644517Y-43682490D01*
X158477510Y-43515483D01*
X158442872Y-43490317D01*
X158400207Y-43434989D01*
X158394228Y-43365375D01*
X158426833Y-43303580D01*
X158442873Y-43289682D01*
X158477510Y-43264517D01*
X158644517Y-43097510D01*
X158783343Y-42906433D01*
X158890568Y-42695992D01*
X158963553Y-42471368D01*
X158989977Y-42304534D01*
X159000500Y-42238097D01*
X159000500Y-42001902D01*
X158963553Y-41768631D01*
X158890566Y-41544003D01*
X158783342Y-41333566D01*
X158772313Y-41318386D01*
X158644517Y-41142490D01*
X158477510Y-40975483D01*
X158442872Y-40950317D01*
X158400207Y-40894989D01*
X158394228Y-40825375D01*
X158426833Y-40763580D01*
X158442873Y-40749682D01*
X158477510Y-40724517D01*
X158644517Y-40557510D01*
X158783343Y-40366433D01*
X158890568Y-40155992D01*
X158963553Y-39931368D01*
X159000500Y-39698097D01*
X159000500Y-39461902D01*
X158963553Y-39228631D01*
X158890566Y-39004003D01*
X158783342Y-38793566D01*
X158644517Y-38602490D01*
X158477510Y-38435483D01*
X158418282Y-38392451D01*
X158375617Y-38337122D01*
X158367550Y-38282404D01*
X158369104Y-38262657D01*
X157629408Y-37522962D01*
X157692993Y-37505925D01*
X157807007Y-37440099D01*
X157900099Y-37347007D01*
X157965925Y-37232993D01*
X157982962Y-37169408D01*
X158722658Y-37909105D01*
X158722658Y-37909104D01*
X158782914Y-37826169D01*
X158782918Y-37826163D01*
X158890102Y-37615802D01*
X158963065Y-37391247D01*
X159000000Y-37158052D01*
X159000000Y-36921947D01*
X158963065Y-36688752D01*
X158890102Y-36464197D01*
X158782914Y-36253828D01*
X158722658Y-36170894D01*
X158722658Y-36170893D01*
X157982962Y-36910590D01*
X157965925Y-36847007D01*
X157900099Y-36732993D01*
X157807007Y-36639901D01*
X157692993Y-36574075D01*
X157629409Y-36557037D01*
X158369105Y-35817340D01*
X158367551Y-35797594D01*
X158381915Y-35729216D01*
X158418284Y-35687547D01*
X158477510Y-35644517D01*
X158644517Y-35477510D01*
X158783343Y-35286433D01*
X158890568Y-35075992D01*
X158963553Y-34851368D01*
X159000500Y-34618097D01*
X159000500Y-34381902D01*
X158963553Y-34148631D01*
X158890566Y-33924003D01*
X158783342Y-33713566D01*
X158644517Y-33522490D01*
X158477510Y-33355483D01*
X158286433Y-33216657D01*
X158075996Y-33109433D01*
X157851368Y-33036446D01*
X157618097Y-32999500D01*
X157618092Y-32999500D01*
X157381908Y-32999500D01*
X157381903Y-32999500D01*
X157148631Y-33036446D01*
X156924003Y-33109433D01*
X156713566Y-33216657D01*
X156604550Y-33295862D01*
X156522490Y-33355483D01*
X156522488Y-33355485D01*
X156522487Y-33355485D01*
X156355485Y-33522487D01*
X156355485Y-33522488D01*
X156355483Y-33522490D01*
X156296421Y-33603782D01*
X156216657Y-33713566D01*
X156109433Y-33924003D01*
X156036446Y-34148631D01*
X155999500Y-34381902D01*
X143760500Y-34381902D01*
X143723553Y-34148631D01*
X143650566Y-33924003D01*
X143543342Y-33713566D01*
X143404517Y-33522490D01*
X143237510Y-33355483D01*
X143046433Y-33216657D01*
X142835996Y-33109433D01*
X142611368Y-33036446D01*
X142378097Y-32999500D01*
X142378092Y-32999500D01*
X142141908Y-32999500D01*
X142141903Y-32999500D01*
X141908631Y-33036446D01*
X141684003Y-33109433D01*
X141473566Y-33216657D01*
X141364550Y-33295862D01*
X141282490Y-33355483D01*
X141282488Y-33355485D01*
X141282487Y-33355485D01*
X141115485Y-33522487D01*
X141115485Y-33522488D01*
X141115483Y-33522490D01*
X141056421Y-33603782D01*
X140976657Y-33713566D01*
X140869433Y-33924003D01*
X140796446Y-34148631D01*
X140759500Y-34381902D01*
X124534784Y-34381902D01*
X124600822Y-34255045D01*
X124606217Y-34245700D01*
X124811325Y-33923744D01*
X124817515Y-33914905D01*
X125049896Y-33612060D01*
X125056834Y-33603791D01*
X125314726Y-33322352D01*
X125322352Y-33314726D01*
X125603791Y-33056834D01*
X125612060Y-33049896D01*
X125914905Y-32817515D01*
X125923744Y-32811325D01*
X126245700Y-32606217D01*
X126255045Y-32600822D01*
X126593638Y-32424561D01*
X126603412Y-32420003D01*
X126956095Y-32273917D01*
X126966227Y-32270230D01*
X127330285Y-32155443D01*
X127340714Y-32152648D01*
X127713402Y-32070024D01*
X127724032Y-32068151D01*
X128102496Y-32018325D01*
X128113224Y-32017387D01*
X128497297Y-32000617D01*
X128502706Y-32000500D01*
X128565892Y-32000500D01*
X171434108Y-32000500D01*
X171497294Y-32000500D01*
X171502702Y-32000617D01*
G37*
%TD.AperFunction*%
%TD*%
M02*
