M48
; DRILL file {KiCad 9.0.8-9.0.8~ubuntu24.04.1} date 2026-05-06T20:03:50+0200
; FORMAT={-:-/ absolute / metric / decimal}
; #@! TF.CreationDate,2026-05-06T20:03:50+02:00
; #@! TF.GenerationSoftware,Kicad,Pcbnew,9.0.8-9.0.8~ubuntu24.04.1
; #@! TF.FileFunction,Plated,1,2,PTH
FMAT,2
METRIC
; #@! TA.AperFunction,Plated,PTH,ViaDrill
T1C0.300
; #@! TA.AperFunction,Plated,PTH,ComponentDrill
T2C0.750
; #@! TA.AperFunction,Plated,PTH,ComponentDrill
T3C0.800
; #@! TA.AperFunction,Plated,PTH,ComponentDrill
T4C1.000
; #@! TA.AperFunction,Plated,PTH,ComponentDrill
T5C1.500
; #@! TA.AperFunction,Plated,PTH,ComponentDrill
T6C2.000
; #@! TA.AperFunction,Plated,PTH,ComponentDrill
T7C3.200
%
G90
G05
T1
X142.0Y-95.5
X142.5Y-97.5
X146.0Y-94.0
X146.0Y-95.56
X149.0Y-49.5
X154.0Y-94.0
X154.0Y-95.56
X158.0Y-94.0
X158.0Y-96.0
X171.2Y-77.5
X171.8Y-74.0
X172.4Y-70.5
X173.0Y-67.0
T2
X138.45Y-83.0
X138.45Y-84.27
X138.45Y-85.54
X140.05Y-88.84
X140.05Y-96.46
X146.45Y-83.0
X146.45Y-84.27
X146.45Y-85.54
X148.0Y-88.84
X148.0Y-96.46
X154.45Y-83.0
X154.45Y-84.27
X154.45Y-85.54
X156.05Y-88.84
X156.05Y-96.46
X162.45Y-83.0
X162.45Y-84.27
X162.45Y-85.54
X164.0Y-88.84
X164.0Y-96.46
T3
X125.34Y-79.0
X127.0Y-42.0
X127.0Y-52.16
X127.5Y-93.0
X131.0Y-93.0
X131.5Y-42.0
X131.5Y-52.16
X135.5Y-79.0
X136.0Y-42.0
X136.0Y-52.16
X136.0Y-89.96
X136.0Y-94.96
X144.0Y-89.96
X144.0Y-94.96
X152.0Y-89.96
X152.0Y-94.96
X160.0Y-89.96
X160.0Y-94.96
X164.84Y-67.0
X164.84Y-70.5
X164.84Y-74.0
X164.84Y-77.5
X166.0Y-53.5
X166.0Y-55.5
X166.0Y-61.0
X166.0Y-63.0
X169.5Y-44.0
X169.5Y-47.5
X175.0Y-67.0
X175.0Y-70.5
X175.0Y-74.0
X175.0Y-77.5
T4
X126.69Y-60.46
X126.69Y-65.54
X126.69Y-69.96
X126.69Y-75.04
X131.725Y-56.0
X134.265Y-56.0
X134.31Y-60.46
X134.31Y-65.54
X134.31Y-69.96
X134.31Y-75.04
X142.26Y-34.5
X142.26Y-37.04
X142.26Y-39.58
X142.26Y-42.12
X142.26Y-44.66
X142.26Y-47.2
X142.26Y-49.74
X144.92Y-102.5
X146.19Y-55.65
X147.46Y-102.5
X148.73Y-55.65
X150.0Y-102.5
X151.27Y-55.65
X152.54Y-102.5
X153.81Y-55.65
X155.08Y-102.5
X157.5Y-34.5
X157.5Y-37.04
X157.5Y-39.58
X157.5Y-42.12
X157.5Y-44.66
X157.5Y-47.2
X157.5Y-49.74
X171.23Y-58.11
X171.23Y-60.11
X171.23Y-62.11
X173.77Y-58.11
X173.77Y-60.11
X173.77Y-62.11
T5
X172.5Y-56.0
X172.5Y-64.22
T6
X139.0Y-56.5
X139.0Y-78.5
X161.0Y-56.5
X161.0Y-78.5
T7
X128.5Y-36.5
X128.5Y-101.5
X171.5Y-36.5
X171.5Y-101.5
M30
